%TF.GenerationSoftware,KiCad,Pcbnew,(5.99.0-7519-ga8269b6380)*%
%TF.CreationDate,2021-01-03T22:28:01+01:00*%
%TF.ProjectId,l0ggi,6c306767-692e-46b6-9963-61645f706362,rev?*%
%TF.SameCoordinates,Original*%
%TF.FileFunction,Soldermask,Bot*%
%TF.FilePolarity,Negative*%
%FSLAX46Y46*%
G04 Gerber Fmt 4.6, Leading zero omitted, Abs format (unit mm)*
G04 Created by KiCad (PCBNEW (5.99.0-7519-ga8269b6380)) date 2021-01-03 22:28:01*
%MOMM*%
%LPD*%
G01*
G04 APERTURE LIST*
%ADD10C,1.500000*%
%ADD11R,1.500000X1.500000*%
%ADD12O,1.700000X0.900000*%
%ADD13O,2.400000X0.900000*%
%ADD14C,0.700000*%
%ADD15R,0.800000X1.500000*%
%ADD16R,1.450000X2.000000*%
%ADD17O,1.700000X1.700000*%
%ADD18R,1.700000X1.700000*%
%ADD19C,3.000000*%
%ADD20R,3.000000X3.000000*%
%ADD21C,2.700000*%
G04 APERTURE END LIST*
D10*
%TO.C,U4*%
X68580000Y-87376000D03*
X71120000Y-87376000D03*
X73660000Y-87376000D03*
D11*
X76200000Y-87376000D03*
%TD*%
D12*
%TO.C,P1*%
X85005000Y-74615000D03*
X85005000Y-83265000D03*
D13*
X81625000Y-74615000D03*
X81625000Y-83265000D03*
D14*
X81995000Y-78515000D03*
X81995000Y-75965000D03*
X81995000Y-76815000D03*
X81995000Y-77665000D03*
X81995000Y-81915000D03*
X81995000Y-80215000D03*
X81995000Y-79365000D03*
X81995000Y-81065000D03*
X80645000Y-75965000D03*
X80645000Y-76815000D03*
X80645000Y-77665000D03*
X80645000Y-78515000D03*
X80645000Y-79365000D03*
X80645000Y-80215000D03*
X80645000Y-81065000D03*
X80645000Y-81915000D03*
%TD*%
D15*
%TO.C,J5*%
X62890000Y-67370165D03*
X61790000Y-67370165D03*
X60690000Y-67370165D03*
X59590000Y-67370165D03*
X58490000Y-67370165D03*
X57390000Y-67370165D03*
X56290000Y-67370165D03*
X55190000Y-67370165D03*
D16*
X52815000Y-73070165D03*
X66565000Y-73070165D03*
X66565000Y-64770165D03*
X52815000Y-64770165D03*
%TD*%
D17*
%TO.C,J4*%
X40894000Y-81534000D03*
X40894000Y-78994000D03*
X40894000Y-76454000D03*
X40894000Y-73914000D03*
X40894000Y-71374000D03*
X40894000Y-68834000D03*
X40894000Y-66294000D03*
D18*
X40894000Y-63754000D03*
%TD*%
D17*
%TO.C,J3*%
X76962000Y-81534000D03*
X76962000Y-78994000D03*
X76962000Y-76454000D03*
X76962000Y-73914000D03*
X76962000Y-71374000D03*
X76962000Y-68834000D03*
X76962000Y-66294000D03*
D18*
X76962000Y-63754000D03*
%TD*%
D19*
%TO.C,J2*%
X73152000Y-56388000D03*
D20*
X78232000Y-56388000D03*
%TD*%
D17*
%TO.C,J1*%
X64008000Y-88392000D03*
X61468000Y-88392000D03*
X58928000Y-88392000D03*
X56388000Y-88392000D03*
X53848000Y-88392000D03*
X51308000Y-88392000D03*
D18*
X48768000Y-88392000D03*
%TD*%
D21*
%TO.C,H5*%
X47244000Y-58928000D03*
%TD*%
%TO.C,H4*%
X83312000Y-87630000D03*
%TD*%
%TO.C,H3*%
X41656000Y-87630000D03*
%TD*%
%TO.C,H2*%
X83312000Y-56388000D03*
%TD*%
%TO.C,H1*%
X41656000Y-56388000D03*
%TD*%
D17*
%TO.C,D2*%
X83566000Y-71367691D03*
X83566000Y-68827691D03*
X83566000Y-66287691D03*
D18*
X83566000Y-63747691D03*
%TD*%
M02*
