%TF.GenerationSoftware,KiCad,Pcbnew,(5.99.0-7519-ga8269b6380)*%
%TF.CreationDate,2021-01-03T22:28:01+01:00*%
%TF.ProjectId,l0ggi,6c306767-692e-46b6-9963-61645f706362,rev?*%
%TF.SameCoordinates,Original*%
%TF.FileFunction,Paste,Top*%
%TF.FilePolarity,Positive*%
%FSLAX46Y46*%
G04 Gerber Fmt 4.6, Leading zero omitted, Abs format (unit mm)*
G04 Created by KiCad (PCBNEW (5.99.0-7519-ga8269b6380)) date 2021-01-03 22:28:01*
%MOMM*%
%LPD*%
G01*
G04 APERTURE LIST*
G04 Aperture macros list*
%AMRoundRect*
0 Rectangle with rounded corners*
0 $1 Rounding radius*
0 $2 $3 $4 $5 $6 $7 $8 $9 X,Y pos of 4 corners*
0 Add a 4 corners polygon primitive as box body*
4,1,4,$2,$3,$4,$5,$6,$7,$8,$9,$2,$3,0*
0 Add four circle primitives for the rounded corners*
1,1,$1+$1,$2,$3,0*
1,1,$1+$1,$4,$5,0*
1,1,$1+$1,$6,$7,0*
1,1,$1+$1,$8,$9,0*
0 Add four rect primitives between the rounded corners*
20,1,$1+$1,$2,$3,$4,$5,0*
20,1,$1+$1,$4,$5,$6,$7,0*
20,1,$1+$1,$6,$7,$8,$9,0*
20,1,$1+$1,$8,$9,$2,$3,0*%
G04 Aperture macros list end*
%ADD10R,0.600000X0.450000*%
%ADD11R,2.500000X1.000000*%
%ADD12R,1.000000X1.800000*%
%ADD13R,1.500000X2.000000*%
%ADD14R,3.800000X2.000000*%
%ADD15RoundRect,0.225000X-0.225000X-0.225000X0.225000X-0.225000X0.225000X0.225000X-0.225000X0.225000X0*%
%ADD16RoundRect,0.062500X-0.062500X-0.337500X0.062500X-0.337500X0.062500X0.337500X-0.062500X0.337500X0*%
%ADD17RoundRect,0.062500X-0.337500X-0.062500X0.337500X-0.062500X0.337500X0.062500X-0.337500X0.062500X0*%
%ADD18RoundRect,0.200000X0.200000X0.275000X-0.200000X0.275000X-0.200000X-0.275000X0.200000X-0.275000X0*%
%ADD19RoundRect,0.200000X-0.275000X0.200000X-0.275000X-0.200000X0.275000X-0.200000X0.275000X0.200000X0*%
%ADD20RoundRect,0.200000X0.275000X-0.200000X0.275000X0.200000X-0.275000X0.200000X-0.275000X-0.200000X0*%
%ADD21RoundRect,0.200000X-0.200000X-0.275000X0.200000X-0.275000X0.200000X0.275000X-0.200000X0.275000X0*%
%ADD22R,0.900000X0.800000*%
%ADD23RoundRect,0.225000X-0.225000X-0.250000X0.225000X-0.250000X0.225000X0.250000X-0.225000X0.250000X0*%
%ADD24RoundRect,0.225000X0.250000X-0.225000X0.250000X0.225000X-0.250000X0.225000X-0.250000X-0.225000X0*%
%ADD25RoundRect,0.225000X-0.250000X0.225000X-0.250000X-0.225000X0.250000X-0.225000X0.250000X0.225000X0*%
%ADD26RoundRect,0.225000X0.225000X0.250000X-0.225000X0.250000X-0.225000X-0.250000X0.225000X-0.250000X0*%
G04 APERTURE END LIST*
D10*
%TO.C,D1*%
X75218000Y-61434000D03*
X73118000Y-61434000D03*
%TD*%
D11*
%TO.C,U3*%
X67290000Y-62540000D03*
X67290000Y-64540000D03*
X67290000Y-66540000D03*
X67290000Y-68540000D03*
X67290000Y-70540000D03*
X67290000Y-72540000D03*
X67290000Y-74540000D03*
X67290000Y-76540000D03*
D12*
X64690000Y-78040000D03*
X62690000Y-78040000D03*
X60690000Y-78040000D03*
X58690000Y-78040000D03*
X56690000Y-78040000D03*
X54690000Y-78040000D03*
D11*
X52090000Y-76540000D03*
X52090000Y-74540000D03*
X52090000Y-72540000D03*
X52090000Y-70540000D03*
X52090000Y-68540000D03*
X52090000Y-66540000D03*
X52090000Y-64540000D03*
X52090000Y-62540000D03*
%TD*%
D13*
%TO.C,U2*%
X44182000Y-73847999D03*
X48782000Y-73847999D03*
X46482000Y-73847999D03*
D14*
X46482000Y-67547999D03*
%TD*%
D15*
%TO.C,U1*%
X52682000Y-84686000D03*
X52682000Y-83566000D03*
X52682000Y-82446000D03*
X51562000Y-84686000D03*
X51562000Y-83566000D03*
X51562000Y-82446000D03*
X50442000Y-84686000D03*
X50442000Y-83566000D03*
X50442000Y-82446000D03*
D16*
X50062000Y-81116000D03*
X50562000Y-81116000D03*
X51062000Y-81116000D03*
X51562000Y-81116000D03*
X52062000Y-81116000D03*
X52562000Y-81116000D03*
X53062000Y-81116000D03*
D17*
X54012000Y-82066000D03*
X54012000Y-82566000D03*
X54012000Y-83066000D03*
X54012000Y-83566000D03*
X54012000Y-84066000D03*
X54012000Y-84566000D03*
X54012000Y-85066000D03*
D16*
X53062000Y-86016000D03*
X52562000Y-86016000D03*
X52062000Y-86016000D03*
X51562000Y-86016000D03*
X51062000Y-86016000D03*
X50562000Y-86016000D03*
X50062000Y-86016000D03*
D17*
X49112000Y-85066000D03*
X49112000Y-84566000D03*
X49112000Y-84066000D03*
X49112000Y-83566000D03*
X49112000Y-83066000D03*
X49112000Y-82566000D03*
X49112000Y-82066000D03*
%TD*%
D18*
%TO.C,R11*%
X58611000Y-83312000D03*
X60261000Y-83312000D03*
%TD*%
D19*
%TO.C,R10*%
X74168000Y-69151000D03*
X74168000Y-67501000D03*
%TD*%
%TO.C,R9*%
X72644000Y-69151000D03*
X72644000Y-67501000D03*
%TD*%
D20*
%TO.C,R8*%
X72644000Y-64424779D03*
X72644000Y-66074779D03*
%TD*%
%TO.C,R7*%
X45466000Y-62675000D03*
X45466000Y-64325000D03*
%TD*%
D21*
%TO.C,R6*%
X49451474Y-65371577D03*
X47801474Y-65371577D03*
%TD*%
D18*
%TO.C,R5*%
X66428239Y-80772000D03*
X68078239Y-80772000D03*
%TD*%
D21*
%TO.C,R4*%
X64368925Y-84349884D03*
X62718925Y-84349884D03*
%TD*%
D20*
%TO.C,R3*%
X80518000Y-71057000D03*
X80518000Y-72707000D03*
%TD*%
D18*
%TO.C,R2*%
X45911000Y-83312000D03*
X47561000Y-83312000D03*
%TD*%
D21*
%TO.C,R1*%
X47561000Y-81788000D03*
X45911000Y-81788000D03*
%TD*%
D22*
%TO.C,Q2*%
X68444150Y-83503062D03*
X66444150Y-84453062D03*
X66444150Y-82553062D03*
%TD*%
%TO.C,Q1*%
X64754000Y-81788000D03*
X62754000Y-82738000D03*
X62754000Y-80838000D03*
%TD*%
D23*
%TO.C,C8*%
X77737000Y-85344000D03*
X76187000Y-85344000D03*
%TD*%
D24*
%TO.C,C7*%
X80772000Y-63995000D03*
X80772000Y-65545000D03*
%TD*%
D25*
%TO.C,C6*%
X48768000Y-78753000D03*
X48768000Y-77203000D03*
%TD*%
%TO.C,C5*%
X43688000Y-64275000D03*
X43688000Y-62725000D03*
%TD*%
D23*
%TO.C,C4*%
X45733000Y-76539999D03*
X44183000Y-76539999D03*
%TD*%
D26*
%TO.C,C3*%
X44183000Y-78317999D03*
X45733000Y-78317999D03*
%TD*%
%TO.C,C2*%
X45961000Y-84836000D03*
X47511000Y-84836000D03*
%TD*%
%TO.C,C1*%
X45961000Y-86360000D03*
X47511000Y-86360000D03*
%TD*%
M02*
