%TF.GenerationSoftware,KiCad,Pcbnew,(5.99.0-7519-ga8269b6380)*%
%TF.CreationDate,2021-01-03T22:28:01+01:00*%
%TF.ProjectId,l0ggi,6c306767-692e-46b6-9963-61645f706362,rev?*%
%TF.SameCoordinates,Original*%
%TF.FileFunction,Copper,L1,Top*%
%TF.FilePolarity,Positive*%
%FSLAX46Y46*%
G04 Gerber Fmt 4.6, Leading zero omitted, Abs format (unit mm)*
G04 Created by KiCad (PCBNEW (5.99.0-7519-ga8269b6380)) date 2021-01-03 22:28:01*
%MOMM*%
%LPD*%
G01*
G04 APERTURE LIST*
G04 Aperture macros list*
%AMRoundRect*
0 Rectangle with rounded corners*
0 $1 Rounding radius*
0 $2 $3 $4 $5 $6 $7 $8 $9 X,Y pos of 4 corners*
0 Add a 4 corners polygon primitive as box body*
4,1,4,$2,$3,$4,$5,$6,$7,$8,$9,$2,$3,0*
0 Add four circle primitives for the rounded corners*
1,1,$1+$1,$2,$3,0*
1,1,$1+$1,$4,$5,0*
1,1,$1+$1,$6,$7,0*
1,1,$1+$1,$8,$9,0*
0 Add four rect primitives between the rounded corners*
20,1,$1+$1,$2,$3,$4,$5,0*
20,1,$1+$1,$4,$5,$6,$7,0*
20,1,$1+$1,$6,$7,$8,$9,0*
20,1,$1+$1,$8,$9,$2,$3,0*%
G04 Aperture macros list end*
%TA.AperFunction,SMDPad,CuDef*%
%ADD10R,0.600000X0.450000*%
%TD*%
%TA.AperFunction,ComponentPad*%
%ADD11C,1.500000*%
%TD*%
%TA.AperFunction,ComponentPad*%
%ADD12R,1.500000X1.500000*%
%TD*%
%TA.AperFunction,SMDPad,CuDef*%
%ADD13R,2.500000X1.000000*%
%TD*%
%TA.AperFunction,SMDPad,CuDef*%
%ADD14R,1.000000X1.800000*%
%TD*%
%TA.AperFunction,SMDPad,CuDef*%
%ADD15R,1.500000X2.000000*%
%TD*%
%TA.AperFunction,SMDPad,CuDef*%
%ADD16R,3.800000X2.000000*%
%TD*%
%TA.AperFunction,SMDPad,CuDef*%
%ADD17R,3.350000X3.350000*%
%TD*%
%TA.AperFunction,SMDPad,CuDef*%
%ADD18RoundRect,0.062500X-0.062500X-0.337500X0.062500X-0.337500X0.062500X0.337500X-0.062500X0.337500X0*%
%TD*%
%TA.AperFunction,SMDPad,CuDef*%
%ADD19RoundRect,0.062500X-0.337500X-0.062500X0.337500X-0.062500X0.337500X0.062500X-0.337500X0.062500X0*%
%TD*%
%TA.AperFunction,SMDPad,CuDef*%
%ADD20RoundRect,0.200000X0.200000X0.275000X-0.200000X0.275000X-0.200000X-0.275000X0.200000X-0.275000X0*%
%TD*%
%TA.AperFunction,SMDPad,CuDef*%
%ADD21RoundRect,0.200000X-0.275000X0.200000X-0.275000X-0.200000X0.275000X-0.200000X0.275000X0.200000X0*%
%TD*%
%TA.AperFunction,SMDPad,CuDef*%
%ADD22RoundRect,0.200000X0.275000X-0.200000X0.275000X0.200000X-0.275000X0.200000X-0.275000X-0.200000X0*%
%TD*%
%TA.AperFunction,SMDPad,CuDef*%
%ADD23RoundRect,0.200000X-0.200000X-0.275000X0.200000X-0.275000X0.200000X0.275000X-0.200000X0.275000X0*%
%TD*%
%TA.AperFunction,SMDPad,CuDef*%
%ADD24R,0.900000X0.800000*%
%TD*%
%TA.AperFunction,ComponentPad*%
%ADD25O,1.700000X0.900000*%
%TD*%
%TA.AperFunction,ComponentPad*%
%ADD26O,2.400000X0.900000*%
%TD*%
%TA.AperFunction,ComponentPad*%
%ADD27C,0.700000*%
%TD*%
%TA.AperFunction,ComponentPad*%
%ADD28O,1.700000X1.700000*%
%TD*%
%TA.AperFunction,ComponentPad*%
%ADD29R,1.700000X1.700000*%
%TD*%
%TA.AperFunction,ComponentPad*%
%ADD30C,3.000000*%
%TD*%
%TA.AperFunction,ComponentPad*%
%ADD31R,3.000000X3.000000*%
%TD*%
%TA.AperFunction,SMDPad,CuDef*%
%ADD32RoundRect,0.225000X-0.225000X-0.250000X0.225000X-0.250000X0.225000X0.250000X-0.225000X0.250000X0*%
%TD*%
%TA.AperFunction,SMDPad,CuDef*%
%ADD33RoundRect,0.225000X0.250000X-0.225000X0.250000X0.225000X-0.250000X0.225000X-0.250000X-0.225000X0*%
%TD*%
%TA.AperFunction,SMDPad,CuDef*%
%ADD34RoundRect,0.225000X-0.250000X0.225000X-0.250000X-0.225000X0.250000X-0.225000X0.250000X0.225000X0*%
%TD*%
%TA.AperFunction,SMDPad,CuDef*%
%ADD35RoundRect,0.225000X0.225000X0.250000X-0.225000X0.250000X-0.225000X-0.250000X0.225000X-0.250000X0*%
%TD*%
%TA.AperFunction,ViaPad*%
%ADD36C,0.800000*%
%TD*%
%TA.AperFunction,Conductor*%
%ADD37C,0.250000*%
%TD*%
%TA.AperFunction,Conductor*%
%ADD38C,0.500000*%
%TD*%
%TA.AperFunction,Conductor*%
%ADD39C,0.200000*%
%TD*%
G04 APERTURE END LIST*
D10*
%TO.P,D1,2,A*%
%TO.N,+5V*%
X75218000Y-61434000D03*
%TO.P,D1,1,K*%
%TO.N,Net-(D1-Pad1)*%
X73118000Y-61434000D03*
%TD*%
D11*
%TO.P,U4,4,GND*%
%TO.N,GND*%
X68580000Y-87376000D03*
%TO.P,U4,3,NC*%
%TO.N,N/C*%
X71120000Y-87376000D03*
%TO.P,U4,2,IO*%
%TO.N,DHT*%
X73660000Y-87376000D03*
D12*
%TO.P,U4,1,VCC*%
%TO.N,+3V3*%
X76200000Y-87376000D03*
%TD*%
D13*
%TO.P,U3,22,GPIO1/TXD*%
%TO.N,UART_TX*%
X67290000Y-62540000D03*
%TO.P,U3,21,GPIO3/RXD*%
%TO.N,Net-(R11-Pad1)*%
X67290000Y-64540000D03*
%TO.P,U3,20,GPIO5*%
%TO.N,SCL*%
X67290000Y-66540000D03*
%TO.P,U3,19,GPIO4*%
%TO.N,SDA*%
X67290000Y-68540000D03*
%TO.P,U3,18,GPIO0*%
%TO.N,GPIO0*%
X67290000Y-70540000D03*
%TO.P,U3,17,GPIO2*%
%TO.N,GPIO2*%
X67290000Y-72540000D03*
%TO.P,U3,16,GPIO15*%
%TO.N,GPIO15*%
X67290000Y-74540000D03*
%TO.P,U3,15,GND*%
%TO.N,GND*%
X67290000Y-76540000D03*
D14*
%TO.P,U3,14,SCLK*%
%TO.N,SD_SCL*%
X64690000Y-78040000D03*
%TO.P,U3,13,MOSI*%
%TO.N,SD_MOSI*%
X62690000Y-78040000D03*
%TO.P,U3,12,GPIO10*%
%TO.N,GPIO10*%
X60690000Y-78040000D03*
%TO.P,U3,11,GPIO9*%
%TO.N,GPIO9*%
X58690000Y-78040000D03*
%TO.P,U3,10,MISO*%
%TO.N,SD_MISO*%
X56690000Y-78040000D03*
%TO.P,U3,9,CS0*%
%TO.N,SD_CS*%
X54690000Y-78040000D03*
D13*
%TO.P,U3,8,VCC*%
%TO.N,+3V3*%
X52090000Y-76540000D03*
%TO.P,U3,7,GPIO13*%
%TO.N,GPIO13*%
X52090000Y-74540000D03*
%TO.P,U3,6,GPIO12*%
%TO.N,GPIO12*%
X52090000Y-72540000D03*
%TO.P,U3,5,GPIO14*%
%TO.N,GPIO14*%
X52090000Y-70540000D03*
%TO.P,U3,4,GPIO16*%
%TO.N,DHT*%
X52090000Y-68540000D03*
%TO.P,U3,3,EN*%
%TO.N,Net-(R6-Pad2)*%
X52090000Y-66540000D03*
%TO.P,U3,2,ADC*%
%TO.N,ADC*%
X52090000Y-64540000D03*
%TO.P,U3,1,~RST*%
%TO.N,RST*%
X52090000Y-62540000D03*
%TD*%
D15*
%TO.P,U2,1,GND*%
%TO.N,GND*%
X44182000Y-73847999D03*
%TO.P,U2,3,VI*%
%TO.N,+5V*%
X48782000Y-73847999D03*
%TO.P,U2,2,VO*%
%TO.N,+3V3*%
X46482000Y-73847999D03*
D16*
X46482000Y-67547999D03*
%TD*%
D17*
%TO.P,U1,29,GND*%
%TO.N,GND*%
X51562000Y-83566000D03*
D18*
%TO.P,U1,28,~DTR*%
%TO.N,N/C*%
X50062000Y-81116000D03*
%TO.P,U1,27,~DSR*%
X50562000Y-81116000D03*
%TO.P,U1,26,TXD*%
%TO.N,UART_TX*%
X51062000Y-81116000D03*
%TO.P,U1,25,RXD*%
%TO.N,UART_RX*%
X51562000Y-81116000D03*
%TO.P,U1,24,~RTS*%
%TO.N,/RTS*%
X52062000Y-81116000D03*
%TO.P,U1,23,~CTS*%
%TO.N,/CTS*%
X52562000Y-81116000D03*
%TO.P,U1,22,GPIO.4*%
%TO.N,N/C*%
X53062000Y-81116000D03*
D19*
%TO.P,U1,21,GPIO.5*%
X54012000Y-82066000D03*
%TO.P,U1,20,GPIO.6*%
X54012000Y-82566000D03*
%TO.P,U1,19,~TXT~/GPIO.0*%
X54012000Y-83066000D03*
%TO.P,U1,18,~RXT~/GPIO.1*%
X54012000Y-83566000D03*
%TO.P,U1,17,RS485/GPIO.2*%
X54012000Y-84066000D03*
%TO.P,U1,16,~WAKEUP~/GPIO.3*%
X54012000Y-84566000D03*
%TO.P,U1,15,CHR0*%
X54012000Y-85066000D03*
D18*
%TO.P,U1,14,CHR1*%
X53062000Y-86016000D03*
%TO.P,U1,13,CHREN*%
X52562000Y-86016000D03*
%TO.P,U1,12,SUSPEND*%
X52062000Y-86016000D03*
%TO.P,U1,11,~SUSPENDb*%
X51562000Y-86016000D03*
%TO.P,U1,10,NC*%
X51062000Y-86016000D03*
%TO.P,U1,9,~RSTb*%
X50562000Y-86016000D03*
%TO.P,U1,8,VBUS*%
%TO.N,+5V*%
X50062000Y-86016000D03*
D19*
%TO.P,U1,7,REGIN*%
%TO.N,+3V3*%
X49112000Y-85066000D03*
%TO.P,U1,6,VDD*%
X49112000Y-84566000D03*
%TO.P,U1,5,D-*%
%TO.N,/USB_F_-*%
X49112000Y-84066000D03*
%TO.P,U1,4,D+*%
%TO.N,/USB_F_+*%
X49112000Y-83566000D03*
%TO.P,U1,3,GND*%
%TO.N,GND*%
X49112000Y-83066000D03*
%TO.P,U1,2,~RI~/CLK*%
%TO.N,N/C*%
X49112000Y-82566000D03*
%TO.P,U1,1,~DCD*%
X49112000Y-82066000D03*
%TD*%
D20*
%TO.P,R11,2*%
%TO.N,UART_RX*%
X58611000Y-83312000D03*
%TO.P,R11,1*%
%TO.N,Net-(R11-Pad1)*%
X60261000Y-83312000D03*
%TD*%
D21*
%TO.P,R10,2*%
%TO.N,GPIO15*%
X74168000Y-69151000D03*
%TO.P,R10,1*%
%TO.N,+3V3*%
X74168000Y-67501000D03*
%TD*%
%TO.P,R9,2*%
%TO.N,GPIO2*%
X72644000Y-69151000D03*
%TO.P,R9,1*%
%TO.N,+3V3*%
X72644000Y-67501000D03*
%TD*%
D22*
%TO.P,R8,2*%
%TO.N,GPIO0*%
X72644000Y-64424779D03*
%TO.P,R8,1*%
%TO.N,+3V3*%
X72644000Y-66074779D03*
%TD*%
%TO.P,R7,2*%
%TO.N,RST*%
X45466000Y-62675000D03*
%TO.P,R7,1*%
%TO.N,+3V3*%
X45466000Y-64325000D03*
%TD*%
D23*
%TO.P,R6,2*%
%TO.N,Net-(R6-Pad2)*%
X49451474Y-65371577D03*
%TO.P,R6,1*%
%TO.N,+3V3*%
X47801474Y-65371577D03*
%TD*%
D20*
%TO.P,R5,2*%
%TO.N,/RTS*%
X66428239Y-80772000D03*
%TO.P,R5,1*%
%TO.N,Net-(Q2-Pad2)*%
X68078239Y-80772000D03*
%TD*%
D23*
%TO.P,R4,2*%
%TO.N,/CTS*%
X64368925Y-84349884D03*
%TO.P,R4,1*%
%TO.N,Net-(Q1-Pad2)*%
X62718925Y-84349884D03*
%TD*%
D22*
%TO.P,R3,2*%
%TO.N,GND*%
X80518000Y-71057000D03*
%TO.P,R3,1*%
%TO.N,Net-(P1-PadA5)*%
X80518000Y-72707000D03*
%TD*%
D20*
%TO.P,R2,2*%
%TO.N,USB_-*%
X45911000Y-83312000D03*
%TO.P,R2,1*%
%TO.N,/USB_F_-*%
X47561000Y-83312000D03*
%TD*%
D23*
%TO.P,R1,2*%
%TO.N,/USB_F_+*%
X47561000Y-81788000D03*
%TO.P,R1,1*%
%TO.N,USB_+*%
X45911000Y-81788000D03*
%TD*%
D24*
%TO.P,Q2,3,C*%
%TO.N,GPIO0*%
X68444150Y-83503062D03*
%TO.P,Q2,2,B*%
%TO.N,Net-(Q2-Pad2)*%
X66444150Y-84453062D03*
%TO.P,Q2,1,E*%
%TO.N,/CTS*%
X66444150Y-82553062D03*
%TD*%
%TO.P,Q1,3,C*%
%TO.N,RST*%
X64754000Y-81788000D03*
%TO.P,Q1,2,B*%
%TO.N,Net-(Q1-Pad2)*%
X62754000Y-82738000D03*
%TO.P,Q1,1,E*%
%TO.N,/RTS*%
X62754000Y-80838000D03*
%TD*%
D25*
%TO.P,P1,S1,SHIELD*%
%TO.N,GND*%
X85005000Y-74615000D03*
X85005000Y-83265000D03*
D26*
X81625000Y-74615000D03*
X81625000Y-83265000D03*
D27*
%TO.P,P1,B6*%
%TO.N,N/C*%
X81995000Y-78515000D03*
%TO.P,P1,B1,GND*%
%TO.N,GND*%
X81995000Y-75965000D03*
%TO.P,P1,B4,VBUS*%
%TO.N,+5V*%
X81995000Y-76815000D03*
%TO.P,P1,B5,VCONN*%
%TO.N,Net-(P1-PadB5)*%
X81995000Y-77665000D03*
%TO.P,P1,B12,GND*%
%TO.N,GND*%
X81995000Y-81915000D03*
%TO.P,P1,B8*%
%TO.N,N/C*%
X81995000Y-80215000D03*
%TO.P,P1,B7*%
X81995000Y-79365000D03*
%TO.P,P1,B9,VBUS*%
%TO.N,+5V*%
X81995000Y-81065000D03*
%TO.P,P1,A12,GND*%
%TO.N,GND*%
X80645000Y-75965000D03*
%TO.P,P1,A9,VBUS*%
%TO.N,+5V*%
X80645000Y-76815000D03*
%TO.P,P1,A8*%
%TO.N,N/C*%
X80645000Y-77665000D03*
%TO.P,P1,A7,D-*%
%TO.N,USB_-*%
X80645000Y-78515000D03*
%TO.P,P1,A6,D+*%
%TO.N,USB_+*%
X80645000Y-79365000D03*
%TO.P,P1,A5,CC*%
%TO.N,Net-(P1-PadA5)*%
X80645000Y-80215000D03*
%TO.P,P1,A4,VBUS*%
%TO.N,+5V*%
X80645000Y-81065000D03*
%TO.P,P1,A1,GND*%
%TO.N,GND*%
X80645000Y-81915000D03*
%TD*%
D28*
%TO.P,J4,8,Pin_8*%
%TO.N,+5V*%
X40894000Y-81534000D03*
%TO.P,J4,7,Pin_7*%
%TO.N,GPIO10*%
X40894000Y-78994000D03*
%TO.P,J4,6,Pin_6*%
%TO.N,GPIO9*%
X40894000Y-76454000D03*
%TO.P,J4,5,Pin_5*%
%TO.N,GPIO13*%
X40894000Y-73914000D03*
%TO.P,J4,4,Pin_4*%
%TO.N,GPIO12*%
X40894000Y-71374000D03*
%TO.P,J4,3,Pin_3*%
%TO.N,GPIO14*%
X40894000Y-68834000D03*
%TO.P,J4,2,Pin_2*%
%TO.N,ADC*%
X40894000Y-66294000D03*
D29*
%TO.P,J4,1,Pin_1*%
%TO.N,+3V3*%
X40894000Y-63754000D03*
%TD*%
D28*
%TO.P,J3,8,Pin_8*%
%TO.N,GND*%
X76962000Y-81534000D03*
%TO.P,J3,7,Pin_7*%
%TO.N,RST*%
X76962000Y-78994000D03*
%TO.P,J3,6,Pin_6*%
%TO.N,GPIO15*%
X76962000Y-76454000D03*
%TO.P,J3,5,Pin_5*%
%TO.N,GPIO2*%
X76962000Y-73914000D03*
%TO.P,J3,4,Pin_4*%
%TO.N,SDA*%
X76962000Y-71374000D03*
%TO.P,J3,3,Pin_3*%
%TO.N,SCL*%
X76962000Y-68834000D03*
%TO.P,J3,2,Pin_2*%
%TO.N,GPIO0*%
X76962000Y-66294000D03*
D29*
%TO.P,J3,1,Pin_1*%
%TO.N,GND*%
X76962000Y-63754000D03*
%TD*%
D30*
%TO.P,J2,2,Pin_2*%
%TO.N,Net-(D1-Pad1)*%
X73152000Y-56388000D03*
D31*
%TO.P,J2,1,Pin_1*%
%TO.N,GND*%
X78232000Y-56388000D03*
%TD*%
D28*
%TO.P,J1,7,Pin_7*%
%TO.N,GND*%
X64008000Y-88392000D03*
%TO.P,J1,6,Pin_6*%
%TO.N,/CTS*%
X61468000Y-88392000D03*
%TO.P,J1,5,Pin_5*%
%TO.N,/RTS*%
X58928000Y-88392000D03*
%TO.P,J1,4,Pin_4*%
%TO.N,UART_RX*%
X56388000Y-88392000D03*
%TO.P,J1,3,Pin_3*%
%TO.N,UART_TX*%
X53848000Y-88392000D03*
%TO.P,J1,2,Pin_2*%
%TO.N,+3V3*%
X51308000Y-88392000D03*
D29*
%TO.P,J1,1,Pin_1*%
%TO.N,+5V*%
X48768000Y-88392000D03*
%TD*%
D28*
%TO.P,D2,4,SDA*%
%TO.N,SDA*%
X83566000Y-71367691D03*
%TO.P,D2,3,SCK*%
%TO.N,SCL*%
X83566000Y-68827691D03*
%TO.P,D2,2,V+*%
%TO.N,+3V3*%
X83566000Y-66287691D03*
D29*
%TO.P,D2,1,GND*%
%TO.N,GND*%
X83566000Y-63747691D03*
%TD*%
D32*
%TO.P,C8,2*%
%TO.N,GND*%
X77737000Y-85344000D03*
%TO.P,C8,1*%
%TO.N,+3V3*%
X76187000Y-85344000D03*
%TD*%
D33*
%TO.P,C7,2*%
%TO.N,GND*%
X80772000Y-63995000D03*
%TO.P,C7,1*%
%TO.N,+3V3*%
X80772000Y-65545000D03*
%TD*%
D34*
%TO.P,C6,2*%
%TO.N,GND*%
X48768000Y-78753000D03*
%TO.P,C6,1*%
%TO.N,+3V3*%
X48768000Y-77203000D03*
%TD*%
%TO.P,C5,2*%
%TO.N,GND*%
X43688000Y-64275000D03*
%TO.P,C5,1*%
%TO.N,RST*%
X43688000Y-62725000D03*
%TD*%
D32*
%TO.P,C4,2*%
%TO.N,+3V3*%
X45733000Y-76539999D03*
%TO.P,C4,1*%
%TO.N,GND*%
X44183000Y-76539999D03*
%TD*%
D35*
%TO.P,C3,2*%
%TO.N,GND*%
X44183000Y-78317999D03*
%TO.P,C3,1*%
%TO.N,+5V*%
X45733000Y-78317999D03*
%TD*%
%TO.P,C2,2*%
%TO.N,GND*%
X45961000Y-84836000D03*
%TO.P,C2,1*%
%TO.N,+3V3*%
X47511000Y-84836000D03*
%TD*%
%TO.P,C1,2*%
%TO.N,GND*%
X45961000Y-86360000D03*
%TO.P,C1,1*%
%TO.N,+5V*%
X47511000Y-86360000D03*
%TD*%
D36*
%TO.N,GND*%
X84836000Y-81788000D03*
X84582000Y-80264000D03*
X84836000Y-78486000D03*
X84836000Y-76454000D03*
X80772000Y-67310000D03*
X81534000Y-62230000D03*
X85344000Y-61722000D03*
X64262000Y-65532000D03*
X61976000Y-63500000D03*
X60960000Y-62484000D03*
X69596000Y-60960000D03*
X42418000Y-62230000D03*
X77724000Y-83820000D03*
X51562000Y-83566000D03*
X44914762Y-84836000D03*
%TO.N,+3V3*%
X42672000Y-75692000D03*
X74422000Y-65786000D03*
X49784000Y-69088000D03*
X49022000Y-86106000D03*
X50292000Y-75692000D03*
X46482000Y-75438000D03*
%TO.N,USB_-*%
X78169726Y-75182945D03*
%TO.N,USB_+*%
X74930000Y-77199000D03*
%TO.N,USB_-*%
X74930000Y-78249000D03*
%TO.N,USB_+*%
X44411764Y-82025000D03*
%TO.N,USB_-*%
X44411764Y-83075000D03*
%TO.N,GPIO0*%
X74925347Y-71632653D03*
%TO.N,SD_SCL*%
X58420000Y-68580000D03*
X64516000Y-72136000D03*
X58420000Y-71628000D03*
%TO.N,SD_MOSI*%
X60706000Y-68834000D03*
X62738000Y-73152000D03*
X60706000Y-72898000D03*
%TO.N,SD_MISO*%
X56388000Y-68834000D03*
%TO.N,SD_CS*%
X61722000Y-68834000D03*
X61722000Y-74168000D03*
X55372000Y-74676000D03*
%TO.N,DHT*%
X73660000Y-76708000D03*
X55118000Y-75692000D03*
%TO.N,RST*%
X53848000Y-62738000D03*
X58928000Y-62738000D03*
X64008000Y-81534000D03*
X59436000Y-81026000D03*
%TO.N,Net-(R11-Pad1)*%
X60706000Y-82296000D03*
%TO.N,ADC*%
X49784000Y-64008000D03*
X42418000Y-65786000D03*
%TO.N,UART_RX*%
X57532358Y-79432740D03*
X52872385Y-79088990D03*
%TO.N,UART_TX*%
X50546000Y-80010000D03*
X56388000Y-80264000D03*
%TO.N,GPIO10*%
X60706000Y-76708000D03*
%TO.N,GPIO9*%
X58420000Y-76708000D03*
%TO.N,GPIO13*%
X50292000Y-73914000D03*
%TO.N,GPIO12*%
X50292000Y-71628000D03*
%TO.N,GPIO14*%
X50292000Y-70358000D03*
%TO.N,UART_TX*%
X56642000Y-84328000D03*
%TO.N,/CTS*%
X55118000Y-86614000D03*
X64008000Y-86614000D03*
%TO.N,/RTS*%
X55880000Y-84836000D03*
X60960000Y-85090000D03*
%TO.N,UART_TX*%
X70866000Y-84074000D03*
%TO.N,GPIO0*%
X71628000Y-83058000D03*
X69850000Y-83312000D03*
%TO.N,Net-(R11-Pad1)*%
X70177999Y-80772000D03*
%TO.N,GPIO0*%
X71628000Y-70358000D03*
%TO.N,+5V*%
X78994000Y-90170000D03*
X78994000Y-81026000D03*
X78994000Y-76708000D03*
%TO.N,GPIO15*%
X74168000Y-73660000D03*
%TO.N,GPIO2*%
X72644000Y-72390000D03*
%TO.N,GPIO15*%
X69342000Y-74422000D03*
%TO.N,GPIO0*%
X69342000Y-70612000D03*
%TO.N,GPIO2*%
X69342000Y-72644000D03*
%TO.N,SDA*%
X69342000Y-68580000D03*
%TO.N,SCL*%
X69342000Y-66548000D03*
%TO.N,+5V*%
X46990000Y-78740000D03*
%TD*%
D37*
%TO.N,/RTS*%
X58928000Y-88392000D02*
X58928000Y-87884000D01*
X58928000Y-87884000D02*
X60960000Y-85852000D01*
X60960000Y-85852000D02*
X60960000Y-85090000D01*
X60960000Y-85090000D02*
X61722000Y-84328000D01*
X61722000Y-84328000D02*
X61722000Y-81534000D01*
X61722000Y-81534000D02*
X62418000Y-80838000D01*
X62418000Y-80838000D02*
X62754000Y-80838000D01*
X52062000Y-81116000D02*
X52062000Y-80526000D01*
X52111990Y-80476010D02*
X52111991Y-80347599D01*
X52062000Y-80526000D02*
X52111990Y-80476010D01*
X52111991Y-80347599D02*
X52645600Y-79813990D01*
X52645600Y-79813990D02*
X54796400Y-79813990D01*
X54796400Y-79813990D02*
X55372000Y-80389590D01*
X55372000Y-84328000D02*
X55880000Y-84836000D01*
X55372000Y-80389590D02*
X55372000Y-84328000D01*
D38*
%TO.N,GND*%
X65366001Y-71208001D02*
X65366001Y-75857999D01*
X64262000Y-70104000D02*
X65366001Y-71208001D01*
X64262000Y-65532000D02*
X64262000Y-70104000D01*
X65366001Y-75857999D02*
X66048002Y-76540000D01*
X66048002Y-76540000D02*
X67290000Y-76540000D01*
X62230000Y-63500000D02*
X64262000Y-65532000D01*
X61976000Y-63500000D02*
X62230000Y-63500000D01*
X42418000Y-63005000D02*
X42418000Y-62230000D01*
X43688000Y-64275000D02*
X42418000Y-63005000D01*
X77737000Y-83833000D02*
X77724000Y-83820000D01*
X77737000Y-85344000D02*
X77737000Y-83833000D01*
X44182000Y-73847999D02*
X44182000Y-76538999D01*
X44182000Y-76538999D02*
X44183000Y-76539999D01*
D37*
X49112000Y-83066000D02*
X51062000Y-83066000D01*
X51062000Y-83066000D02*
X51562000Y-83566000D01*
D38*
X43434000Y-82550000D02*
X43434000Y-79066999D01*
X43434000Y-79066999D02*
X44183000Y-78317999D01*
X45961000Y-84836000D02*
X44914762Y-84836000D01*
X43434000Y-83355238D02*
X43434000Y-82550000D01*
X44914762Y-84836000D02*
X43434000Y-83355238D01*
%TO.N,+3V3*%
X49784000Y-89916000D02*
X46482000Y-89916000D01*
X42418000Y-83566000D02*
X42418000Y-75946000D01*
X46482000Y-89916000D02*
X44958000Y-88392000D01*
X44958000Y-88392000D02*
X44958000Y-86106000D01*
X44958000Y-86106000D02*
X42418000Y-83566000D01*
X42418000Y-75946000D02*
X42672000Y-75692000D01*
X76200000Y-87376000D02*
X73660000Y-89916000D01*
X73660000Y-89916000D02*
X49784000Y-89916000D01*
X80772000Y-65545000D02*
X82823309Y-65545000D01*
X82823309Y-65545000D02*
X83566000Y-66287691D01*
X46482000Y-67547999D02*
X48243999Y-67547999D01*
X48243999Y-67547999D02*
X49784000Y-69088000D01*
X43354969Y-65371577D02*
X44035577Y-65371577D01*
X44035577Y-65371577D02*
X47801474Y-65371577D01*
X46482000Y-67547999D02*
X44305578Y-65371577D01*
X44305578Y-65371577D02*
X44035577Y-65371577D01*
X40894000Y-63754000D02*
X41737392Y-63754000D01*
X41737392Y-63754000D02*
X43354969Y-65371577D01*
D37*
%TO.N,ADC*%
X42418000Y-65786000D02*
X42418000Y-66040000D01*
X42418000Y-66040000D02*
X42164000Y-66294000D01*
X42164000Y-66294000D02*
X40894000Y-66294000D01*
D38*
%TO.N,+3V3*%
X51308000Y-88392000D02*
X49784000Y-89916000D01*
X49112000Y-86016000D02*
X49022000Y-86106000D01*
X49112000Y-85066000D02*
X49112000Y-86016000D01*
X48514000Y-84836000D02*
X48917010Y-84836000D01*
X47511000Y-84836000D02*
X48514000Y-84836000D01*
X48514000Y-84836000D02*
X48882000Y-84836000D01*
X48882000Y-84836000D02*
X49112000Y-85066000D01*
X48917010Y-84836000D02*
X49112000Y-84641010D01*
X50292000Y-75692000D02*
X50292000Y-75946000D01*
X50292000Y-75946000D02*
X50800000Y-76454000D01*
X50800000Y-76454000D02*
X52004000Y-76454000D01*
X52004000Y-76454000D02*
X52090000Y-76540000D01*
X45733000Y-76539999D02*
X45733000Y-76187000D01*
X45733000Y-76187000D02*
X46482000Y-75438000D01*
X46482000Y-75438000D02*
X46482000Y-73847999D01*
D39*
%TO.N,USB_-*%
X78169726Y-76948276D02*
X78169726Y-75182945D01*
X75900686Y-77843999D02*
X77274003Y-77843999D01*
X77274003Y-77843999D02*
X78169726Y-76948276D01*
X75495685Y-78249000D02*
X75900686Y-77843999D01*
X74930000Y-78249000D02*
X75495685Y-78249000D01*
%TO.N,USB_+*%
X45911000Y-81788000D02*
X45374000Y-82325000D01*
X45374000Y-82325000D02*
X44711764Y-82325000D01*
X44711764Y-82325000D02*
X44411764Y-82025000D01*
%TO.N,USB_-*%
X45911000Y-83312000D02*
X45374000Y-82775000D01*
X45374000Y-82775000D02*
X44711764Y-82775000D01*
X44711764Y-82775000D02*
X44411764Y-83075000D01*
%TO.N,/USB_F_+*%
X49112000Y-83566000D02*
X48451410Y-83566000D01*
X48451410Y-83566000D02*
X48311010Y-83425600D01*
X48311010Y-83425600D02*
X48311010Y-82538010D01*
X48311010Y-82538010D02*
X47561000Y-81788000D01*
%TO.N,/USB_F_-*%
X49112000Y-84066000D02*
X48315000Y-84066000D01*
X48315000Y-84066000D02*
X47561000Y-83312000D01*
D37*
%TO.N,RST*%
X45466000Y-62675000D02*
X51955000Y-62675000D01*
X51955000Y-62675000D02*
X52090000Y-62540000D01*
X43688000Y-62725000D02*
X45416000Y-62725000D01*
X45416000Y-62725000D02*
X45466000Y-62675000D01*
%TO.N,GPIO0*%
X74925347Y-70362653D02*
X75692000Y-69596000D01*
X74925347Y-71632653D02*
X74925347Y-70362653D01*
X75692000Y-69596000D02*
X75692000Y-67564000D01*
X75692000Y-67564000D02*
X76962000Y-66294000D01*
%TO.N,SD_SCL*%
X58420000Y-71628000D02*
X58420000Y-68580000D01*
X64516000Y-77866000D02*
X64516000Y-72136000D01*
X64690000Y-78040000D02*
X64516000Y-77866000D01*
%TO.N,SD_MOSI*%
X62690000Y-73200000D02*
X62738000Y-73152000D01*
X62690000Y-78040000D02*
X62690000Y-73200000D01*
X60706000Y-72898000D02*
X60706000Y-68834000D01*
%TO.N,SD_MISO*%
X56690000Y-69136000D02*
X56388000Y-68834000D01*
X56690000Y-78040000D02*
X56690000Y-69136000D01*
%TO.N,SD_CS*%
X61722000Y-74168000D02*
X61722000Y-68834000D01*
X54690000Y-78040000D02*
X55880000Y-76850000D01*
X55880000Y-76850000D02*
X55880000Y-75380998D01*
X55880000Y-75380998D02*
X55372000Y-74872998D01*
X55372000Y-74872998D02*
X55372000Y-74676000D01*
%TO.N,DHT*%
X54102000Y-70216998D02*
X54102000Y-74930000D01*
X52090000Y-68540000D02*
X52384000Y-68834000D01*
X54864000Y-75692000D02*
X55118000Y-75692000D01*
X52384000Y-68834000D02*
X52719002Y-68834000D01*
X52719002Y-68834000D02*
X54102000Y-70216998D01*
X54102000Y-74930000D02*
X54864000Y-75692000D01*
X73660000Y-76708000D02*
X73660000Y-87376000D01*
%TO.N,RST*%
X59436000Y-81026000D02*
X59436000Y-79265001D01*
X59436000Y-79265001D02*
X59450001Y-79265001D01*
X59450001Y-79265001D02*
X59515001Y-79200001D01*
X59515001Y-76879999D02*
X59450001Y-76814999D01*
X59515001Y-79200001D02*
X59515001Y-76879999D01*
X59436000Y-62992000D02*
X59182000Y-62738000D01*
X59182000Y-62738000D02*
X58928000Y-62738000D01*
X59450001Y-76814999D02*
X59436000Y-76814999D01*
X59436000Y-76814999D02*
X59436000Y-62992000D01*
X53848000Y-62738000D02*
X52288000Y-62738000D01*
X52288000Y-62738000D02*
X52090000Y-62540000D01*
X64262000Y-81788000D02*
X64008000Y-81534000D01*
X64754000Y-81788000D02*
X64262000Y-81788000D01*
%TO.N,Net-(R11-Pad1)*%
X60261000Y-83312000D02*
X60261000Y-82741000D01*
X60261000Y-82741000D02*
X60706000Y-82296000D01*
%TO.N,ADC*%
X52090000Y-64540000D02*
X50316000Y-64540000D01*
X50316000Y-64540000D02*
X49784000Y-64008000D01*
X52090000Y-64540000D02*
X52066000Y-64516000D01*
%TO.N,Net-(R6-Pad2)*%
X49451474Y-65371577D02*
X49451474Y-65707474D01*
X49451474Y-65707474D02*
X50284000Y-66540000D01*
X50284000Y-66540000D02*
X52090000Y-66540000D01*
%TO.N,UART_RX*%
X57532358Y-87247642D02*
X57532358Y-83186358D01*
X57532358Y-83186358D02*
X57532358Y-79432740D01*
X58611000Y-83312000D02*
X57658000Y-83312000D01*
X57658000Y-83312000D02*
X57532358Y-83186358D01*
X56388000Y-88392000D02*
X57532358Y-87247642D01*
X51562000Y-81116000D02*
X51562000Y-80261180D01*
X51562000Y-80261180D02*
X52734190Y-79088990D01*
X52734190Y-79088990D02*
X52872385Y-79088990D01*
%TO.N,UART_TX*%
X56642000Y-84328000D02*
X56642000Y-80518000D01*
X56642000Y-80518000D02*
X56388000Y-80264000D01*
X50546000Y-80010000D02*
X51062000Y-80526000D01*
X51062000Y-80526000D02*
X51062000Y-81116000D01*
%TO.N,GPIO10*%
X60706000Y-76708000D02*
X60706000Y-78024000D01*
X60706000Y-78024000D02*
X60690000Y-78040000D01*
%TO.N,GPIO9*%
X58420000Y-77770000D02*
X58690000Y-78040000D01*
X58420000Y-76708000D02*
X58420000Y-77770000D01*
%TO.N,GPIO13*%
X50918000Y-74540000D02*
X50292000Y-73914000D01*
X52090000Y-74540000D02*
X50918000Y-74540000D01*
D38*
%TO.N,+5V*%
X46990000Y-78740000D02*
X46990000Y-76708000D01*
X46990000Y-76708000D02*
X48782000Y-74916000D01*
X48782000Y-74916000D02*
X48782000Y-73847999D01*
D37*
%TO.N,GPIO12*%
X50292000Y-71628000D02*
X50292000Y-72136000D01*
X50696000Y-72540000D02*
X52090000Y-72540000D01*
X50292000Y-72136000D02*
X50696000Y-72540000D01*
%TO.N,GPIO14*%
X52090000Y-70540000D02*
X50474000Y-70540000D01*
X50474000Y-70540000D02*
X50292000Y-70358000D01*
%TO.N,/CTS*%
X61468000Y-88392000D02*
X63246000Y-86614000D01*
X63246000Y-86614000D02*
X64008000Y-86614000D01*
%TO.N,UART_TX*%
X53848000Y-88392000D02*
X54413002Y-88392000D01*
X54413002Y-88392000D02*
X56642000Y-86163002D01*
X56642000Y-86163002D02*
X56642000Y-84328000D01*
%TO.N,/CTS*%
X52562000Y-81116000D02*
X52562000Y-80534000D01*
X52562000Y-80534000D02*
X52832000Y-80264000D01*
X52832000Y-80264000D02*
X54610000Y-80264000D01*
X54610000Y-80264000D02*
X54864000Y-80518000D01*
X54864000Y-80518000D02*
X54864000Y-86360000D01*
X54864000Y-86360000D02*
X55118000Y-86614000D01*
%TO.N,UART_TX*%
X67290000Y-62540000D02*
X70556000Y-62540000D01*
X70556000Y-62540000D02*
X70902999Y-62886999D01*
X70902999Y-62886999D02*
X70902999Y-84110999D01*
%TO.N,GPIO0*%
X68444150Y-83503062D02*
X69658938Y-83503062D01*
X69658938Y-83503062D02*
X69850000Y-83312000D01*
X71628000Y-83058000D02*
X71628000Y-70358000D01*
%TO.N,Net-(R11-Pad1)*%
X70177999Y-64589999D02*
X70104000Y-64516000D01*
X70177999Y-80772000D02*
X70177999Y-64589999D01*
X67314000Y-64516000D02*
X70104000Y-64516000D01*
X67290000Y-64540000D02*
X67314000Y-64516000D01*
%TO.N,GPIO0*%
X71628000Y-70358000D02*
X71628000Y-64770000D01*
X71628000Y-64770000D02*
X71973221Y-64424779D01*
X71973221Y-64424779D02*
X72644000Y-64424779D01*
%TO.N,Net-(P1-PadA5)*%
X80010000Y-84582000D02*
X79756000Y-84328000D01*
X79756000Y-84328000D02*
X79756000Y-80954998D01*
X80495998Y-80215000D02*
X80645000Y-80215000D01*
X79756000Y-80954998D02*
X80495998Y-80215000D01*
D38*
%TO.N,+5V*%
X78994000Y-76708000D02*
X79248000Y-61722000D01*
X79248000Y-61722000D02*
X78994000Y-61468000D01*
X78994000Y-61468000D02*
X75252000Y-61468000D01*
X75252000Y-61468000D02*
X75218000Y-61434000D01*
X78994000Y-90170000D02*
X78994000Y-81026000D01*
X78994000Y-81026000D02*
X78994000Y-76708000D01*
D37*
%TO.N,Net-(P1-PadA5)*%
X83150010Y-83981990D02*
X82550000Y-84582000D01*
X80518000Y-72707000D02*
X82613000Y-72707000D01*
X82613000Y-72707000D02*
X83150010Y-73244010D01*
X83150010Y-73244010D02*
X83150010Y-83981990D01*
X80772000Y-84582000D02*
X80010000Y-84582000D01*
X82550000Y-84582000D02*
X80772000Y-84582000D01*
D38*
%TO.N,Net-(D1-Pad1)*%
X73152000Y-56388000D02*
X73152000Y-61434000D01*
D37*
%TO.N,GPIO0*%
X76962000Y-66294000D02*
X77470000Y-66294000D01*
%TO.N,GPIO15*%
X74168000Y-73660000D02*
X74168000Y-75946000D01*
X74168000Y-75946000D02*
X74676000Y-76454000D01*
X74676000Y-76454000D02*
X76962000Y-76454000D01*
%TO.N,GPIO2*%
X72644000Y-72390000D02*
X72644000Y-69151000D01*
%TO.N,GPIO15*%
X69224000Y-74540000D02*
X69342000Y-74422000D01*
X67290000Y-74540000D02*
X69224000Y-74540000D01*
%TO.N,GPIO0*%
X69270000Y-70540000D02*
X69342000Y-70612000D01*
X67290000Y-70540000D02*
X69270000Y-70540000D01*
%TO.N,GPIO2*%
X67290000Y-72540000D02*
X69238000Y-72540000D01*
X69238000Y-72540000D02*
X69342000Y-72644000D01*
%TO.N,SDA*%
X67290000Y-68540000D02*
X69302000Y-68540000D01*
X69302000Y-68540000D02*
X69342000Y-68580000D01*
%TO.N,SCL*%
X67290000Y-66540000D02*
X69334000Y-66540000D01*
X69334000Y-66540000D02*
X69342000Y-66548000D01*
%TO.N,GPIO15*%
X74168000Y-73660000D02*
X74168000Y-69151000D01*
%TO.N,/RTS*%
X66428239Y-80772000D02*
X62820000Y-80772000D01*
X62820000Y-80772000D02*
X62754000Y-80838000D01*
%TO.N,Net-(Q2-Pad2)*%
X67564000Y-83333212D02*
X67564000Y-82296000D01*
X66444150Y-84453062D02*
X67564000Y-83333212D01*
X67564000Y-82296000D02*
X68078239Y-81781761D01*
X68078239Y-81781761D02*
X68078239Y-80772000D01*
%TO.N,/CTS*%
X64368925Y-84349884D02*
X66165747Y-82553062D01*
X66165747Y-82553062D02*
X66444150Y-82553062D01*
%TO.N,Net-(Q1-Pad2)*%
X62754000Y-82738000D02*
X62754000Y-84314809D01*
X62754000Y-84314809D02*
X62718925Y-84349884D01*
%TO.N,/CTS*%
X64368925Y-86253075D02*
X64368925Y-84349884D01*
X64008000Y-86614000D02*
X64368925Y-86253075D01*
%TO.N,+5V*%
X48768000Y-87122000D02*
X48006000Y-87122000D01*
X49530000Y-87122000D02*
X48768000Y-87122000D01*
X48768000Y-87122000D02*
X48768000Y-88392000D01*
X50062000Y-86016000D02*
X50062000Y-86590000D01*
X50062000Y-86590000D02*
X49530000Y-87122000D01*
X48006000Y-87122000D02*
X47511000Y-86627000D01*
X47511000Y-86627000D02*
X47511000Y-86360000D01*
X45733000Y-78317999D02*
X46567999Y-78317999D01*
X46567999Y-78317999D02*
X46990000Y-78740000D01*
D38*
X48768000Y-73833999D02*
X48782000Y-73847999D01*
%TD*%
%TA.AperFunction,Conductor*%
%TO.N,+3V3*%
G36*
X48463115Y-63774002D02*
G01*
X48509608Y-63827658D01*
X48520789Y-63872812D01*
X48549158Y-64369265D01*
X48533075Y-64438416D01*
X48482159Y-64487894D01*
X48412576Y-64501990D01*
X48364404Y-64487807D01*
X48263704Y-64434489D01*
X48249624Y-64429084D01*
X48096434Y-64390605D01*
X48085074Y-64388836D01*
X48082947Y-64388703D01*
X48078956Y-64388577D01*
X48073589Y-64388577D01*
X48058350Y-64393052D01*
X48057145Y-64394442D01*
X48055474Y-64402125D01*
X48055474Y-65499577D01*
X48035472Y-65567698D01*
X47981816Y-65614191D01*
X47929474Y-65625577D01*
X46911589Y-65625577D01*
X46896350Y-65630052D01*
X46895145Y-65631442D01*
X46893474Y-65639125D01*
X46893474Y-65684106D01*
X46893930Y-65691661D01*
X46908143Y-65809111D01*
X46911739Y-65823754D01*
X46927121Y-65864461D01*
X46932489Y-65935254D01*
X46898731Y-65997712D01*
X46836566Y-66032004D01*
X46809255Y-66034999D01*
X46754115Y-66034999D01*
X46738876Y-66039474D01*
X46737671Y-66040864D01*
X46736000Y-66048547D01*
X46735999Y-67293997D01*
X46736000Y-67294003D01*
X46735999Y-69042884D01*
X46740474Y-69058123D01*
X46741864Y-69059328D01*
X46749547Y-69060999D01*
X48379743Y-69060999D01*
X48384250Y-69060838D01*
X48448269Y-69056259D01*
X48461491Y-69053873D01*
X48586458Y-69017180D01*
X48602692Y-69009766D01*
X48625233Y-68995280D01*
X48693353Y-68975278D01*
X48761474Y-68995280D01*
X48807967Y-69048936D01*
X48819148Y-69094090D01*
X48996703Y-72201311D01*
X48980620Y-72270462D01*
X48929704Y-72319940D01*
X48870908Y-72334499D01*
X48032000Y-72334499D01*
X47958921Y-72339726D01*
X47891502Y-72359522D01*
X47827330Y-72378364D01*
X47827328Y-72378365D01*
X47818684Y-72380903D01*
X47696880Y-72459182D01*
X47628761Y-72479184D01*
X47560640Y-72459182D01*
X47546248Y-72448409D01*
X47516160Y-72422337D01*
X47501152Y-72412692D01*
X47384725Y-72359522D01*
X47367612Y-72354497D01*
X47236446Y-72335638D01*
X47227505Y-72334999D01*
X46754115Y-72334999D01*
X46738876Y-72339474D01*
X46737671Y-72340864D01*
X46736000Y-72348547D01*
X46735999Y-73593997D01*
X46736000Y-73594003D01*
X46735999Y-75342884D01*
X46740474Y-75358123D01*
X46741864Y-75359328D01*
X46749547Y-75360999D01*
X46960131Y-75360999D01*
X47028252Y-75381001D01*
X47074745Y-75434657D01*
X47084849Y-75504931D01*
X47055355Y-75569511D01*
X47049226Y-75576094D01*
X46746381Y-75878939D01*
X46684069Y-75912965D01*
X46613254Y-75907900D01*
X46556418Y-75865353D01*
X46551914Y-75858929D01*
X46528180Y-75822728D01*
X46518856Y-75811577D01*
X46405393Y-75704093D01*
X46393748Y-75695382D01*
X46258607Y-75616886D01*
X46245269Y-75611086D01*
X46212927Y-75601291D01*
X46153528Y-75562402D01*
X46124585Y-75497573D01*
X46135285Y-75427388D01*
X46182232Y-75374129D01*
X46213951Y-75359805D01*
X46225124Y-75356524D01*
X46226329Y-75355134D01*
X46228000Y-75347451D01*
X46228001Y-74102001D01*
X46228000Y-74101995D01*
X46228001Y-72353114D01*
X46223526Y-72337875D01*
X46222136Y-72336670D01*
X46214453Y-72334999D01*
X45734257Y-72334999D01*
X45729750Y-72335160D01*
X45665731Y-72339739D01*
X45652509Y-72342125D01*
X45527542Y-72378818D01*
X45511308Y-72386232D01*
X45397703Y-72459241D01*
X45329583Y-72479243D01*
X45261462Y-72459241D01*
X45247063Y-72448461D01*
X45244461Y-72446206D01*
X45218340Y-72403167D01*
X45211654Y-72396744D01*
X45212000Y-72390000D01*
X45180063Y-72390000D01*
X45127720Y-72378613D01*
X45084867Y-72359042D01*
X45084864Y-72359041D01*
X45076670Y-72355299D01*
X45056947Y-72352463D01*
X44936448Y-72335138D01*
X44936441Y-72335137D01*
X44932000Y-72334499D01*
X44068000Y-72334499D01*
X43999879Y-72314497D01*
X43953386Y-72260841D01*
X43942000Y-72208499D01*
X43942000Y-68920472D01*
X43962002Y-68852351D01*
X44015658Y-68805858D01*
X44085932Y-68795754D01*
X44150512Y-68825248D01*
X44173998Y-68852352D01*
X44189426Y-68876359D01*
X44201112Y-68889846D01*
X44297840Y-68973661D01*
X44312848Y-68983306D01*
X44429275Y-69036476D01*
X44446388Y-69041501D01*
X44577554Y-69060360D01*
X44586495Y-69060999D01*
X46209885Y-69060999D01*
X46225124Y-69056524D01*
X46226329Y-69055134D01*
X46228000Y-69047451D01*
X46228001Y-67802001D01*
X46228000Y-67801995D01*
X46228001Y-66053114D01*
X46223526Y-66037875D01*
X46222136Y-66036670D01*
X46214453Y-66034999D01*
X44584257Y-66034999D01*
X44579750Y-66035160D01*
X44515731Y-66039739D01*
X44502509Y-66042125D01*
X44377542Y-66078818D01*
X44361308Y-66086232D01*
X44253640Y-66155425D01*
X44240150Y-66167114D01*
X44227060Y-66182221D01*
X44167335Y-66220606D01*
X44096338Y-66220606D01*
X44036611Y-66182223D01*
X44007118Y-66117643D01*
X44011149Y-66063504D01*
X44272193Y-65193357D01*
X44310926Y-65133857D01*
X44323790Y-65124194D01*
X44411710Y-65066551D01*
X44467979Y-65007152D01*
X44476128Y-64998550D01*
X44537497Y-64962852D01*
X44608424Y-64966000D01*
X44655396Y-64997385D01*
X44656171Y-64996515D01*
X44778409Y-65105426D01*
X44790795Y-65114034D01*
X44928770Y-65187088D01*
X44942850Y-65192493D01*
X45096040Y-65230972D01*
X45107400Y-65232741D01*
X45109527Y-65232874D01*
X45113518Y-65233000D01*
X45193885Y-65233000D01*
X45209124Y-65228525D01*
X45210329Y-65227135D01*
X45212000Y-65219452D01*
X45212000Y-65214885D01*
X45719999Y-65214885D01*
X45724474Y-65230124D01*
X45725864Y-65231329D01*
X45733547Y-65233000D01*
X45778528Y-65233000D01*
X45786083Y-65232544D01*
X45903533Y-65218331D01*
X45918176Y-65214735D01*
X46064227Y-65159547D01*
X46077588Y-65152562D01*
X46206256Y-65064131D01*
X46217568Y-65054158D01*
X46248808Y-65019095D01*
X46893474Y-65019095D01*
X46893474Y-65099462D01*
X46897949Y-65114701D01*
X46899339Y-65115906D01*
X46907022Y-65117577D01*
X47529359Y-65117577D01*
X47544598Y-65113102D01*
X47545803Y-65111712D01*
X47547474Y-65104029D01*
X47547474Y-64408227D01*
X47543369Y-64394245D01*
X47530203Y-64392202D01*
X47438940Y-64403246D01*
X47424297Y-64406842D01*
X47278247Y-64462030D01*
X47264886Y-64469015D01*
X47136218Y-64557446D01*
X47124906Y-64567419D01*
X47021048Y-64683986D01*
X47012440Y-64696372D01*
X46939386Y-64834347D01*
X46933981Y-64848427D01*
X46895502Y-65001617D01*
X46893733Y-65012977D01*
X46893600Y-65015104D01*
X46893474Y-65019095D01*
X46248808Y-65019095D01*
X46321426Y-64937591D01*
X46330034Y-64925205D01*
X46403088Y-64787230D01*
X46408493Y-64773150D01*
X46446972Y-64619960D01*
X46448741Y-64608600D01*
X46448874Y-64606473D01*
X46449000Y-64602482D01*
X46449000Y-64597115D01*
X46444525Y-64581876D01*
X46443135Y-64580671D01*
X46435452Y-64579000D01*
X45738115Y-64578999D01*
X45722876Y-64583474D01*
X45721671Y-64584864D01*
X45720000Y-64592547D01*
X45719999Y-65214885D01*
X45212000Y-65214885D01*
X45212001Y-64579000D01*
X45212000Y-64578996D01*
X45212001Y-64197000D01*
X45232003Y-64128879D01*
X45285659Y-64082386D01*
X45338001Y-64071000D01*
X46429350Y-64071001D01*
X46443332Y-64066896D01*
X46445375Y-64053730D01*
X46434331Y-63962467D01*
X46430735Y-63947824D01*
X46421936Y-63924538D01*
X46416568Y-63853744D01*
X46450326Y-63791287D01*
X46512492Y-63756995D01*
X46539802Y-63754000D01*
X48394994Y-63754000D01*
X48463115Y-63774002D01*
G37*
%TD.AperFunction*%
%TD*%
%TA.AperFunction,Conductor*%
%TO.N,+3V3*%
G36*
X74496951Y-65272128D02*
G01*
X75059078Y-65276932D01*
X75127024Y-65297515D01*
X75173057Y-65351566D01*
X75184000Y-65402927D01*
X75184000Y-66732160D01*
X75163998Y-66800281D01*
X75110342Y-66846774D01*
X75040068Y-66856878D01*
X74974181Y-66826236D01*
X74855591Y-66720575D01*
X74843205Y-66711967D01*
X74705230Y-66638913D01*
X74691150Y-66633508D01*
X74537960Y-66595029D01*
X74526600Y-66593260D01*
X74524473Y-66593127D01*
X74520482Y-66593001D01*
X74440115Y-66593001D01*
X74424876Y-66597476D01*
X74423671Y-66598866D01*
X74422000Y-66606549D01*
X74421999Y-67246998D01*
X74422000Y-67247004D01*
X74421999Y-67629000D01*
X74401997Y-67697121D01*
X74348341Y-67743614D01*
X74295999Y-67755000D01*
X73667003Y-67754999D01*
X73666997Y-67755000D01*
X72898002Y-67754999D01*
X72897996Y-67755000D01*
X72516000Y-67754999D01*
X72447879Y-67734997D01*
X72401386Y-67681341D01*
X72390000Y-67628999D01*
X72390001Y-67022782D01*
X72390000Y-67022776D01*
X72390000Y-66552996D01*
X72897999Y-66552996D01*
X72898000Y-66553002D01*
X72897999Y-67228885D01*
X72902474Y-67244124D01*
X72903864Y-67245329D01*
X72911547Y-67247000D01*
X73144996Y-67247001D01*
X73145002Y-67247000D01*
X73895885Y-67247001D01*
X73911124Y-67242526D01*
X73912329Y-67241136D01*
X73914000Y-67233453D01*
X73914001Y-66611115D01*
X73909526Y-66595876D01*
X73908136Y-66594671D01*
X73900453Y-66593000D01*
X73855472Y-66593000D01*
X73847917Y-66593456D01*
X73742031Y-66606269D01*
X73672001Y-66594596D01*
X73619399Y-66546914D01*
X73600926Y-66478363D01*
X73604690Y-66450487D01*
X73624972Y-66369742D01*
X73626741Y-66358379D01*
X73626874Y-66356252D01*
X73627000Y-66352261D01*
X73627000Y-66346894D01*
X73622525Y-66331655D01*
X73621135Y-66330450D01*
X73613452Y-66328779D01*
X72916115Y-66328778D01*
X72900876Y-66333253D01*
X72899671Y-66334643D01*
X72898000Y-66342326D01*
X72897999Y-66552996D01*
X72390000Y-66552996D01*
X72390001Y-66328779D01*
X72390000Y-66328775D01*
X72390001Y-65946779D01*
X72410003Y-65878658D01*
X72463659Y-65832165D01*
X72516001Y-65820779D01*
X73607350Y-65820780D01*
X73621332Y-65816675D01*
X73623375Y-65803509D01*
X73612331Y-65712246D01*
X73608735Y-65697603D01*
X73553547Y-65551552D01*
X73546562Y-65538191D01*
X73494071Y-65461816D01*
X73471971Y-65394347D01*
X73489857Y-65325640D01*
X73542048Y-65277509D01*
X73598988Y-65264454D01*
X74496951Y-65272128D01*
G37*
%TD.AperFunction*%
%TD*%
%TA.AperFunction,Conductor*%
%TO.N,+3V3*%
G36*
X76383121Y-85110002D02*
G01*
X76429614Y-85163658D01*
X76441000Y-85216000D01*
X76441000Y-86059885D01*
X76448896Y-86086776D01*
X76454000Y-86122274D01*
X76453999Y-87504000D01*
X76433997Y-87572121D01*
X76380341Y-87618614D01*
X76327999Y-87630000D01*
X76072000Y-87629999D01*
X76003879Y-87609997D01*
X75957386Y-87556341D01*
X75946000Y-87503999D01*
X75946001Y-86385115D01*
X75938104Y-86358220D01*
X75933000Y-86322722D01*
X75933000Y-85216000D01*
X75953002Y-85147879D01*
X76006658Y-85101386D01*
X76059000Y-85090000D01*
X76315000Y-85090000D01*
X76383121Y-85110002D01*
G37*
%TD.AperFunction*%
%TD*%
%TA.AperFunction,Conductor*%
%TO.N,+3V3*%
G36*
X50254174Y-76167618D02*
G01*
X50307490Y-76214500D01*
X50318231Y-76251578D01*
X50321896Y-76250502D01*
X50331475Y-76283124D01*
X50332865Y-76284329D01*
X50340548Y-76286000D01*
X52218000Y-76286000D01*
X52286121Y-76306002D01*
X52332614Y-76359658D01*
X52344000Y-76412000D01*
X52344000Y-76668000D01*
X52323998Y-76736121D01*
X52270342Y-76782614D01*
X52218000Y-76794000D01*
X50345115Y-76794000D01*
X50329876Y-76798475D01*
X50328671Y-76799865D01*
X50327000Y-76807548D01*
X50327000Y-77037743D01*
X50327161Y-77042250D01*
X50331740Y-77106269D01*
X50334126Y-77119491D01*
X50370819Y-77244458D01*
X50378233Y-77260692D01*
X50447426Y-77368360D01*
X50459112Y-77381847D01*
X50555840Y-77465662D01*
X50570848Y-77475307D01*
X50588540Y-77483386D01*
X50642196Y-77529879D01*
X50662198Y-77598000D01*
X50642196Y-77666120D01*
X50588541Y-77712613D01*
X50536198Y-77724000D01*
X49864081Y-77724000D01*
X49795960Y-77703998D01*
X49749467Y-77650342D01*
X49739363Y-77580068D01*
X49741323Y-77571238D01*
X49741230Y-77571220D01*
X49744910Y-77552246D01*
X49750751Y-77486811D01*
X49751000Y-77481221D01*
X49751000Y-77475115D01*
X49746525Y-77459876D01*
X49745135Y-77458671D01*
X49737452Y-77457000D01*
X48640000Y-77456999D01*
X48571879Y-77436997D01*
X48525386Y-77383341D01*
X48514000Y-77330999D01*
X48514001Y-77075000D01*
X48534003Y-77006879D01*
X48587659Y-76960386D01*
X48640001Y-76949000D01*
X49732885Y-76949001D01*
X49748124Y-76944526D01*
X49749329Y-76943136D01*
X49750847Y-76936154D01*
X49750575Y-76931474D01*
X49737054Y-76815496D01*
X49733709Y-76801344D01*
X49680383Y-76654434D01*
X49673873Y-76641435D01*
X49588180Y-76510731D01*
X49578853Y-76499575D01*
X49529731Y-76453042D01*
X49494032Y-76391673D01*
X49497179Y-76320747D01*
X49538173Y-76262781D01*
X49599359Y-76236724D01*
X49865094Y-76200487D01*
X50183977Y-76157003D01*
X50254174Y-76167618D01*
G37*
%TD.AperFunction*%
%TD*%
%TA.AperFunction,Conductor*%
%TO.N,GND*%
G36*
X45020620Y-83846649D02*
G01*
X45070100Y-83897564D01*
X45075288Y-83909078D01*
X45076011Y-83910461D01*
X45078694Y-83917561D01*
X45082995Y-83923819D01*
X45140873Y-84008032D01*
X45162973Y-84075501D01*
X45145088Y-84144208D01*
X45143656Y-84146340D01*
X45062889Y-84285391D01*
X45057088Y-84298732D01*
X45011538Y-84449124D01*
X45009089Y-84461750D01*
X45003249Y-84527185D01*
X45003000Y-84532780D01*
X45003000Y-84563885D01*
X45007475Y-84579124D01*
X45008865Y-84580329D01*
X45016548Y-84582000D01*
X45706998Y-84582001D01*
X45707004Y-84582000D01*
X46089000Y-84582001D01*
X46157121Y-84602003D01*
X46203614Y-84655659D01*
X46215000Y-84708001D01*
X46214999Y-85336997D01*
X46215000Y-85337003D01*
X46214999Y-86488000D01*
X46194997Y-86556121D01*
X46141341Y-86602614D01*
X46088998Y-86614000D01*
X45842499Y-86613999D01*
X45774379Y-86593997D01*
X45727886Y-86540341D01*
X45716500Y-86487999D01*
X45716500Y-86171986D01*
X45717933Y-86153035D01*
X45719935Y-86139878D01*
X45719935Y-86139875D01*
X45721035Y-86132645D01*
X45716915Y-86081992D01*
X45716500Y-86071777D01*
X45716500Y-86063114D01*
X45713046Y-86033486D01*
X45712616Y-86029134D01*
X45707416Y-85965204D01*
X45707001Y-85954989D01*
X45707001Y-85859003D01*
X45707000Y-85858997D01*
X45707001Y-85108115D01*
X45702526Y-85092876D01*
X45701136Y-85091671D01*
X45693453Y-85090000D01*
X45066870Y-85089999D01*
X44998749Y-85069997D01*
X44977775Y-85053094D01*
X44098798Y-84174117D01*
X44064772Y-84111805D01*
X44069837Y-84040990D01*
X44112384Y-83984154D01*
X44178904Y-83959343D01*
X44214090Y-83961776D01*
X44309811Y-83982123D01*
X44309824Y-83982124D01*
X44316277Y-83983496D01*
X44507251Y-83983496D01*
X44513703Y-83982124D01*
X44513708Y-83982124D01*
X44609434Y-83961776D01*
X44694051Y-83943790D01*
X44738907Y-83923819D01*
X44862484Y-83868799D01*
X44862486Y-83868798D01*
X44868514Y-83866114D01*
X44884601Y-83854426D01*
X44951469Y-83830568D01*
X45020620Y-83846649D01*
G37*
%TD.AperFunction*%
%TA.AperFunction,Conductor*%
G36*
X44379121Y-76306001D02*
G01*
X44425614Y-76359657D01*
X44437000Y-76411999D01*
X44437000Y-77294999D01*
X44436999Y-78063997D01*
X44437000Y-78064003D01*
X44436999Y-79282884D01*
X44441474Y-79298123D01*
X44442864Y-79299328D01*
X44449846Y-79300846D01*
X44454526Y-79300574D01*
X44570504Y-79287053D01*
X44584656Y-79283708D01*
X44731566Y-79230382D01*
X44744565Y-79223872D01*
X44875269Y-79138179D01*
X44878469Y-79135504D01*
X44881092Y-79134361D01*
X44881389Y-79134167D01*
X44881422Y-79134218D01*
X44943561Y-79107155D01*
X45013645Y-79118497D01*
X45045942Y-79140696D01*
X45065621Y-79159338D01*
X45213524Y-79245247D01*
X45220526Y-79247368D01*
X45220529Y-79247369D01*
X45312258Y-79275151D01*
X45377223Y-79294827D01*
X45383659Y-79295401D01*
X45383662Y-79295402D01*
X45449185Y-79301250D01*
X45449191Y-79301250D01*
X45451978Y-79301499D01*
X46000886Y-79301499D01*
X46089509Y-79291167D01*
X46120619Y-79287540D01*
X46120621Y-79287540D01*
X46127891Y-79286692D01*
X46134769Y-79284195D01*
X46134775Y-79284194D01*
X46147453Y-79279592D01*
X46218311Y-79275151D01*
X46284079Y-79313721D01*
X46378749Y-79418863D01*
X46384091Y-79422744D01*
X46384093Y-79422746D01*
X46415095Y-79445270D01*
X46533250Y-79531114D01*
X46539278Y-79533798D01*
X46539280Y-79533799D01*
X46701682Y-79606105D01*
X46707713Y-79608790D01*
X46801113Y-79628643D01*
X46888056Y-79647124D01*
X46888061Y-79647124D01*
X46894513Y-79648496D01*
X47085487Y-79648496D01*
X47091939Y-79647124D01*
X47091944Y-79647124D01*
X47178887Y-79628643D01*
X47272287Y-79608790D01*
X47278318Y-79606105D01*
X47440720Y-79533799D01*
X47440722Y-79533798D01*
X47446750Y-79531114D01*
X47564905Y-79445270D01*
X47595907Y-79422746D01*
X47595909Y-79422744D01*
X47601251Y-79418863D01*
X47682396Y-79328742D01*
X47742842Y-79291503D01*
X47813826Y-79292855D01*
X47872810Y-79332369D01*
X47881404Y-79343968D01*
X47947820Y-79445270D01*
X47957144Y-79456421D01*
X48070607Y-79563905D01*
X48082252Y-79572616D01*
X48217393Y-79651112D01*
X48230731Y-79656912D01*
X48381118Y-79702459D01*
X48393754Y-79704910D01*
X48459189Y-79710751D01*
X48464779Y-79711000D01*
X48495885Y-79711000D01*
X48511124Y-79706525D01*
X48512329Y-79705135D01*
X48514000Y-79697452D01*
X48514001Y-78625000D01*
X48534003Y-78556879D01*
X48587659Y-78510386D01*
X48640001Y-78499000D01*
X48896000Y-78499001D01*
X48964121Y-78519003D01*
X49010614Y-78572659D01*
X49022000Y-78625001D01*
X49021999Y-79692885D01*
X49026474Y-79708124D01*
X49027864Y-79709329D01*
X49035547Y-79711000D01*
X49057222Y-79711000D01*
X49064526Y-79710575D01*
X49180504Y-79697054D01*
X49194656Y-79693709D01*
X49341561Y-79640385D01*
X49347579Y-79637371D01*
X49417446Y-79624752D01*
X49483043Y-79651910D01*
X49523545Y-79710220D01*
X49530000Y-79750033D01*
X49530000Y-80409503D01*
X49509998Y-80477624D01*
X49506363Y-80482794D01*
X49505698Y-80483947D01*
X49500669Y-80490500D01*
X49443127Y-80629420D01*
X49428500Y-80740522D01*
X49428500Y-81306500D01*
X49408498Y-81374621D01*
X49354842Y-81421114D01*
X49302500Y-81432500D01*
X48736522Y-81432500D01*
X48732436Y-81433038D01*
X48732435Y-81433038D01*
X48694933Y-81437975D01*
X48625420Y-81447127D01*
X48617790Y-81450287D01*
X48611902Y-81451865D01*
X48540926Y-81450175D01*
X48482130Y-81410380D01*
X48459261Y-81357075D01*
X48456628Y-81357722D01*
X48454816Y-81350346D01*
X48453904Y-81342806D01*
X48393306Y-81182438D01*
X48340631Y-81105796D01*
X48300506Y-81047413D01*
X48300505Y-81047411D01*
X48296204Y-81041154D01*
X48265744Y-81014015D01*
X48173877Y-80932164D01*
X48173875Y-80932162D01*
X48168204Y-80927110D01*
X48161495Y-80923558D01*
X48161491Y-80923555D01*
X48023411Y-80850445D01*
X48023408Y-80850444D01*
X48016696Y-80846890D01*
X47850425Y-80805126D01*
X47844662Y-80804763D01*
X47844659Y-80804763D01*
X47842470Y-80804625D01*
X47842454Y-80804624D01*
X47840475Y-80804500D01*
X47319683Y-80804500D01*
X47190806Y-80820096D01*
X47030438Y-80880694D01*
X46889154Y-80977796D01*
X46884102Y-80983466D01*
X46884101Y-80983467D01*
X46832924Y-81040907D01*
X46772674Y-81078463D01*
X46701684Y-81077483D01*
X46646782Y-81041996D01*
X46646204Y-81041154D01*
X46615744Y-81014015D01*
X46523877Y-80932164D01*
X46523875Y-80932162D01*
X46518204Y-80927110D01*
X46511495Y-80923558D01*
X46511491Y-80923555D01*
X46373411Y-80850445D01*
X46373408Y-80850444D01*
X46366696Y-80846890D01*
X46200425Y-80805126D01*
X46194662Y-80804763D01*
X46194659Y-80804763D01*
X46192470Y-80804625D01*
X46192454Y-80804624D01*
X46190475Y-80804500D01*
X45669683Y-80804500D01*
X45540806Y-80820096D01*
X45380438Y-80880694D01*
X45239154Y-80977796D01*
X45234102Y-80983466D01*
X45234101Y-80983467D01*
X45149463Y-81078463D01*
X45125110Y-81105796D01*
X45121558Y-81112505D01*
X45121555Y-81112509D01*
X45072789Y-81204612D01*
X45023236Y-81255455D01*
X44954062Y-81271436D01*
X44887376Y-81247590D01*
X44868514Y-81233886D01*
X44862486Y-81231202D01*
X44862484Y-81231201D01*
X44700082Y-81158895D01*
X44700081Y-81158895D01*
X44694051Y-81156210D01*
X44600651Y-81136357D01*
X44513708Y-81117876D01*
X44513703Y-81117876D01*
X44507251Y-81116504D01*
X44316277Y-81116504D01*
X44309825Y-81117876D01*
X44309820Y-81117876D01*
X44222877Y-81136357D01*
X44129477Y-81156210D01*
X44123447Y-81158895D01*
X44123446Y-81158895D01*
X43961044Y-81231201D01*
X43961042Y-81231202D01*
X43955014Y-81233886D01*
X43949673Y-81237766D01*
X43949672Y-81237767D01*
X43805857Y-81342254D01*
X43805855Y-81342256D01*
X43800513Y-81346137D01*
X43796092Y-81351047D01*
X43796091Y-81351048D01*
X43722752Y-81432500D01*
X43672727Y-81488058D01*
X43577240Y-81653446D01*
X43518226Y-81835073D01*
X43498264Y-82025000D01*
X43518226Y-82214927D01*
X43520266Y-82221205D01*
X43520266Y-82221206D01*
X43552721Y-82321093D01*
X43577240Y-82396554D01*
X43580543Y-82402276D01*
X43580544Y-82402277D01*
X43629459Y-82487000D01*
X43646197Y-82555995D01*
X43629459Y-82613000D01*
X43577240Y-82703446D01*
X43518226Y-82885073D01*
X43517536Y-82891636D01*
X43517536Y-82891637D01*
X43502385Y-83035794D01*
X43498264Y-83075000D01*
X43518226Y-83264927D01*
X43519300Y-83268232D01*
X43513985Y-83337866D01*
X43471168Y-83394498D01*
X43404530Y-83418991D01*
X43335229Y-83403569D01*
X43307046Y-83382366D01*
X43213405Y-83288725D01*
X43179379Y-83226413D01*
X43176500Y-83199630D01*
X43176500Y-79129657D01*
X43196502Y-79061536D01*
X43250158Y-79015043D01*
X43320432Y-79004939D01*
X43385012Y-79034433D01*
X43392031Y-79041577D01*
X43510607Y-79153904D01*
X43522252Y-79162615D01*
X43657391Y-79241110D01*
X43670732Y-79246911D01*
X43821124Y-79292461D01*
X43833750Y-79294910D01*
X43899185Y-79300750D01*
X43904780Y-79300999D01*
X43910885Y-79300999D01*
X43926124Y-79296524D01*
X43927329Y-79295134D01*
X43929000Y-79287451D01*
X43929001Y-78572001D01*
X43929000Y-78571995D01*
X43929001Y-77563002D01*
X43929000Y-77562996D01*
X43929000Y-76411999D01*
X43949002Y-76343878D01*
X44002658Y-76297385D01*
X44055000Y-76285999D01*
X44311000Y-76285999D01*
X44379121Y-76306001D01*
G37*
%TD.AperFunction*%
%TD*%
%TA.AperFunction,Conductor*%
%TO.N,GND*%
G36*
X85778446Y-61281000D02*
G01*
X85832059Y-61327541D01*
X85852000Y-61395566D01*
X85852000Y-73575025D01*
X85831998Y-73643146D01*
X85778342Y-73689639D01*
X85708068Y-73699743D01*
X85696193Y-73697025D01*
X85696182Y-73697077D01*
X85510406Y-73658266D01*
X85501138Y-73657063D01*
X85498747Y-73657000D01*
X85277115Y-73657000D01*
X85261876Y-73661475D01*
X85260671Y-73662865D01*
X85259000Y-73670548D01*
X85258999Y-74360998D01*
X85259000Y-74361004D01*
X85258999Y-75554885D01*
X85263474Y-75570124D01*
X85264864Y-75571329D01*
X85272547Y-75573000D01*
X85451028Y-75573000D01*
X85457403Y-75572677D01*
X85592289Y-75558976D01*
X85604729Y-75556422D01*
X85688321Y-75530226D01*
X85759306Y-75528942D01*
X85819716Y-75566239D01*
X85850373Y-75630275D01*
X85852000Y-75650460D01*
X85852000Y-82225025D01*
X85831998Y-82293146D01*
X85778342Y-82339639D01*
X85708068Y-82349743D01*
X85696193Y-82347025D01*
X85696182Y-82347077D01*
X85510406Y-82308266D01*
X85501138Y-82307063D01*
X85498747Y-82307000D01*
X85277115Y-82307000D01*
X85261876Y-82311475D01*
X85260671Y-82312865D01*
X85259000Y-82320548D01*
X85259000Y-82804000D01*
X84751001Y-82804000D01*
X84751001Y-82325115D01*
X84746526Y-82309876D01*
X84745136Y-82308671D01*
X84737453Y-82307000D01*
X84558972Y-82307000D01*
X84552597Y-82307323D01*
X84417711Y-82321024D01*
X84405271Y-82323578D01*
X84231733Y-82377962D01*
X84220045Y-82382971D01*
X84060987Y-82471138D01*
X84050560Y-82478385D01*
X83991507Y-82528999D01*
X83926768Y-82558142D01*
X83856550Y-82547659D01*
X83803146Y-82500877D01*
X83783510Y-82433330D01*
X83783510Y-75451418D01*
X83803512Y-75383297D01*
X83857168Y-75336804D01*
X83927442Y-75326700D01*
X83981781Y-75348205D01*
X84129962Y-75451962D01*
X84141050Y-75458159D01*
X84307962Y-75530389D01*
X84320065Y-75534228D01*
X84499594Y-75571734D01*
X84508862Y-75572937D01*
X84511253Y-75573000D01*
X84732885Y-75573000D01*
X84748124Y-75568525D01*
X84749329Y-75567135D01*
X84751000Y-75559452D01*
X84751001Y-74869002D01*
X84751000Y-74868996D01*
X84751001Y-73675115D01*
X84746526Y-73659876D01*
X84745136Y-73658671D01*
X84737453Y-73657000D01*
X84558972Y-73657000D01*
X84552597Y-73657323D01*
X84417711Y-73671024D01*
X84405271Y-73673578D01*
X84231733Y-73727962D01*
X84220045Y-73732971D01*
X84060987Y-73821138D01*
X84050560Y-73828385D01*
X83991507Y-73878999D01*
X83926768Y-73908142D01*
X83856550Y-73897659D01*
X83803146Y-73850877D01*
X83783510Y-73783330D01*
X83783510Y-73322393D01*
X83784024Y-73311489D01*
X83785676Y-73304098D01*
X83783572Y-73237156D01*
X83783510Y-73233199D01*
X83783510Y-73204432D01*
X83782970Y-73200158D01*
X83782036Y-73188306D01*
X83780897Y-73152053D01*
X83780648Y-73144127D01*
X83774996Y-73124671D01*
X83770991Y-73105331D01*
X83768450Y-73085222D01*
X83765531Y-73077850D01*
X83765530Y-73077845D01*
X83752174Y-73044111D01*
X83748329Y-73032882D01*
X83738207Y-72998041D01*
X83738207Y-72998040D01*
X83735996Y-72990431D01*
X83725686Y-72972998D01*
X83716992Y-72955251D01*
X83709532Y-72936410D01*
X83690508Y-72910226D01*
X83666650Y-72843359D01*
X83682730Y-72774207D01*
X83733643Y-72724727D01*
X83778284Y-72710964D01*
X83833173Y-72704759D01*
X83838288Y-72703278D01*
X83838292Y-72703277D01*
X83924900Y-72678197D01*
X84054635Y-72640628D01*
X84262125Y-72540100D01*
X84266463Y-72537000D01*
X84266468Y-72536997D01*
X84445370Y-72409150D01*
X84449711Y-72406048D01*
X84612030Y-72242308D01*
X84713014Y-72098356D01*
X84741375Y-72057927D01*
X84741376Y-72057925D01*
X84744439Y-72053559D01*
X84843153Y-71845199D01*
X84905349Y-71623185D01*
X84929249Y-71393867D01*
X84929500Y-71367691D01*
X84920456Y-71261099D01*
X84910458Y-71143267D01*
X84910457Y-71143263D01*
X84910007Y-71137956D01*
X84899043Y-71095711D01*
X84868620Y-70978500D01*
X84852084Y-70914789D01*
X84801727Y-70803000D01*
X84759578Y-70709434D01*
X84759577Y-70709432D01*
X84757388Y-70704573D01*
X84628627Y-70513317D01*
X84469482Y-70346490D01*
X84284504Y-70208862D01*
X84279743Y-70206442D01*
X84276425Y-70204384D01*
X84229071Y-70151487D01*
X84217832Y-70081386D01*
X84246277Y-70016336D01*
X84269564Y-69994784D01*
X84342466Y-69942687D01*
X84449711Y-69866048D01*
X84612030Y-69702308D01*
X84699043Y-69578271D01*
X84741375Y-69517927D01*
X84741376Y-69517925D01*
X84744439Y-69513559D01*
X84843153Y-69305199D01*
X84905349Y-69083185D01*
X84929249Y-68853867D01*
X84929500Y-68827691D01*
X84929250Y-68824743D01*
X84910458Y-68603267D01*
X84910457Y-68603263D01*
X84910007Y-68597956D01*
X84852084Y-68374789D01*
X84800731Y-68260789D01*
X84759578Y-68169434D01*
X84759577Y-68169432D01*
X84757388Y-68164573D01*
X84628627Y-67973317D01*
X84469482Y-67806490D01*
X84284504Y-67668862D01*
X84279743Y-67666442D01*
X84276425Y-67664384D01*
X84229071Y-67611487D01*
X84217832Y-67541386D01*
X84246277Y-67476336D01*
X84269564Y-67454784D01*
X84366006Y-67385865D01*
X84449711Y-67326048D01*
X84559652Y-67215145D01*
X84608277Y-67166094D01*
X84608278Y-67166093D01*
X84612030Y-67162308D01*
X84699043Y-67038271D01*
X84741375Y-66977927D01*
X84741376Y-66977925D01*
X84744439Y-66973559D01*
X84843153Y-66765199D01*
X84905349Y-66543185D01*
X84910121Y-66497403D01*
X84915348Y-66447249D01*
X84929249Y-66313867D01*
X84929500Y-66287691D01*
X84919148Y-66165683D01*
X84910458Y-66063267D01*
X84910457Y-66063263D01*
X84910007Y-66057956D01*
X84852084Y-65834789D01*
X84821606Y-65767129D01*
X84759578Y-65629434D01*
X84759577Y-65629432D01*
X84757388Y-65624573D01*
X84628627Y-65433317D01*
X84542865Y-65343415D01*
X84496484Y-65294795D01*
X84463937Y-65231698D01*
X84470669Y-65161021D01*
X84514543Y-65105204D01*
X84552156Y-65086927D01*
X84620458Y-65066872D01*
X84636692Y-65059458D01*
X84744360Y-64990265D01*
X84757847Y-64978579D01*
X84841662Y-64881851D01*
X84851307Y-64866843D01*
X84904477Y-64750416D01*
X84909502Y-64733303D01*
X84928361Y-64602137D01*
X84929000Y-64593194D01*
X84929000Y-64019806D01*
X84924525Y-64004567D01*
X84923135Y-64003362D01*
X84915452Y-64001691D01*
X82221115Y-64001691D01*
X82205876Y-64006166D01*
X82204671Y-64007556D01*
X82203000Y-64015239D01*
X82203000Y-64595434D01*
X82203161Y-64599939D01*
X82206850Y-64651510D01*
X82191759Y-64720884D01*
X82141558Y-64771087D01*
X82081171Y-64786500D01*
X81759570Y-64786500D01*
X81691449Y-64766498D01*
X81644956Y-64712842D01*
X81634852Y-64642568D01*
X81650616Y-64597215D01*
X81695113Y-64520607D01*
X81700913Y-64507269D01*
X81746461Y-64356880D01*
X81748911Y-64344248D01*
X81754751Y-64278815D01*
X81755000Y-64273220D01*
X81755000Y-64267115D01*
X81750525Y-64251876D01*
X81749135Y-64250671D01*
X81741452Y-64249000D01*
X81026002Y-64248999D01*
X81025996Y-64249000D01*
X80644000Y-64248999D01*
X80575879Y-64228997D01*
X80529386Y-64175341D01*
X80518000Y-64122999D01*
X80518000Y-63722885D01*
X81025999Y-63722885D01*
X81030474Y-63738124D01*
X81031864Y-63739329D01*
X81039547Y-63741000D01*
X81736885Y-63741001D01*
X81752124Y-63736526D01*
X81753329Y-63735136D01*
X81754847Y-63728154D01*
X81754575Y-63723474D01*
X81741054Y-63607496D01*
X81737709Y-63593343D01*
X81684383Y-63446433D01*
X81677873Y-63433434D01*
X81592180Y-63302730D01*
X81582856Y-63291578D01*
X81469393Y-63184094D01*
X81457748Y-63175383D01*
X81322607Y-63096887D01*
X81309269Y-63091087D01*
X81158880Y-63045539D01*
X81146248Y-63043089D01*
X81080815Y-63037249D01*
X81075220Y-63037000D01*
X81044115Y-63037000D01*
X81028876Y-63041475D01*
X81027671Y-63042865D01*
X81026000Y-63050548D01*
X81025999Y-63722885D01*
X80518000Y-63722885D01*
X80518001Y-63055115D01*
X80513526Y-63039876D01*
X80512136Y-63038671D01*
X80504453Y-63037000D01*
X80482778Y-63037000D01*
X80475474Y-63037425D01*
X80359496Y-63050946D01*
X80345343Y-63054291D01*
X80198433Y-63107617D01*
X80185434Y-63114127D01*
X80179840Y-63117794D01*
X80111904Y-63138417D01*
X80043604Y-63119037D01*
X79996624Y-63065808D01*
X79984773Y-63010287D01*
X79986605Y-62902186D01*
X82203000Y-62902186D01*
X82203000Y-63475576D01*
X82207475Y-63490815D01*
X82208865Y-63492020D01*
X82216548Y-63493691D01*
X83293885Y-63493691D01*
X83309124Y-63489216D01*
X83310329Y-63487826D01*
X83312000Y-63480143D01*
X83312000Y-62402806D01*
X83310659Y-62398239D01*
X83820000Y-62398239D01*
X83820000Y-63475576D01*
X83824475Y-63490815D01*
X83825865Y-63492020D01*
X83833548Y-63493691D01*
X84910885Y-63493691D01*
X84926124Y-63489216D01*
X84927329Y-63487826D01*
X84929000Y-63480143D01*
X84929000Y-62899948D01*
X84928839Y-62895441D01*
X84924260Y-62831422D01*
X84921874Y-62818200D01*
X84885181Y-62693233D01*
X84877767Y-62676999D01*
X84808574Y-62569331D01*
X84796888Y-62555844D01*
X84700160Y-62472029D01*
X84685152Y-62462384D01*
X84568725Y-62409214D01*
X84551612Y-62404189D01*
X84420446Y-62385330D01*
X84411505Y-62384691D01*
X83838115Y-62384691D01*
X83822876Y-62389166D01*
X83821671Y-62390556D01*
X83820000Y-62398239D01*
X83310659Y-62398239D01*
X83307525Y-62387567D01*
X83306135Y-62386362D01*
X83298452Y-62384691D01*
X82718257Y-62384691D01*
X82713750Y-62384852D01*
X82649731Y-62389431D01*
X82636509Y-62391817D01*
X82511542Y-62428510D01*
X82495308Y-62435924D01*
X82387640Y-62505117D01*
X82374153Y-62516803D01*
X82290338Y-62613531D01*
X82280693Y-62628539D01*
X82227523Y-62744966D01*
X82222498Y-62762079D01*
X82203639Y-62893245D01*
X82203000Y-62902186D01*
X79986605Y-62902186D01*
X79998615Y-62193631D01*
X80019769Y-62125859D01*
X80074205Y-62080282D01*
X80106778Y-62071032D01*
X85708181Y-61270832D01*
X85778446Y-61281000D01*
G37*
%TD.AperFunction*%
%TA.AperFunction,Conductor*%
G36*
X79989843Y-75015146D02*
G01*
X80012815Y-75042562D01*
X80108658Y-75197140D01*
X80113448Y-75203360D01*
X80125667Y-75210481D01*
X80139941Y-75209860D01*
X80185839Y-75197075D01*
X80253674Y-75218025D01*
X80273179Y-75233968D01*
X80777219Y-75738009D01*
X80811244Y-75800321D01*
X80806179Y-75871137D01*
X80763632Y-75927972D01*
X80697112Y-75952783D01*
X80693200Y-75952813D01*
X80693202Y-75952846D01*
X80506943Y-75962608D01*
X80402374Y-75991411D01*
X80331387Y-75990217D01*
X80279819Y-75959030D01*
X79897980Y-75577191D01*
X79862007Y-75557548D01*
X79839699Y-75552695D01*
X79789496Y-75502494D01*
X79774101Y-75439972D01*
X79774846Y-75395995D01*
X79779748Y-75106822D01*
X79800901Y-75039052D01*
X79855336Y-74993475D01*
X79925771Y-74984563D01*
X79989843Y-75015146D01*
G37*
%TD.AperFunction*%
%TA.AperFunction,Conductor*%
G36*
X82366526Y-73360502D02*
G01*
X82387501Y-73377405D01*
X82452000Y-73441905D01*
X82486025Y-73504218D01*
X82480959Y-73575033D01*
X82438412Y-73631869D01*
X82371892Y-73656679D01*
X82362904Y-73657000D01*
X81897115Y-73657000D01*
X81881876Y-73661475D01*
X81880671Y-73662865D01*
X81879000Y-73670548D01*
X81878999Y-74360998D01*
X81879000Y-74361004D01*
X81878999Y-75487000D01*
X81858997Y-75555121D01*
X81805341Y-75601614D01*
X81752999Y-75613000D01*
X81497000Y-75613000D01*
X81428879Y-75592998D01*
X81382386Y-75539342D01*
X81371000Y-75487000D01*
X81371001Y-74869002D01*
X81371000Y-74868996D01*
X81371001Y-73675115D01*
X81366526Y-73659876D01*
X81365136Y-73658671D01*
X81357453Y-73657000D01*
X81353277Y-73657000D01*
X81285156Y-73636998D01*
X81238663Y-73583342D01*
X81228559Y-73513068D01*
X81258053Y-73448488D01*
X81263078Y-73443419D01*
X81264846Y-73442204D01*
X81317879Y-73382681D01*
X81378129Y-73345125D01*
X81411955Y-73340500D01*
X82298405Y-73340500D01*
X82366526Y-73360502D01*
G37*
%TD.AperFunction*%
%TA.AperFunction,Conductor*%
G36*
X82153209Y-66323502D02*
G01*
X82199702Y-66377158D01*
X82209485Y-66409463D01*
X82224632Y-66503500D01*
X82243002Y-66617552D01*
X82317494Y-66835747D01*
X82320044Y-66840434D01*
X82320045Y-66840436D01*
X82372590Y-66937009D01*
X82427685Y-67038271D01*
X82570424Y-67219335D01*
X82623539Y-67267244D01*
X82737659Y-67370180D01*
X82737665Y-67370185D01*
X82741629Y-67373760D01*
X82746142Y-67376619D01*
X82746144Y-67376620D01*
X82864242Y-67451422D01*
X82911087Y-67504770D01*
X82921654Y-67574976D01*
X82892587Y-67639749D01*
X82862186Y-67665585D01*
X82767196Y-67723226D01*
X82767189Y-67723231D01*
X82762631Y-67725997D01*
X82758601Y-67729494D01*
X82665426Y-67810347D01*
X82588492Y-67877106D01*
X82585109Y-67881232D01*
X82585105Y-67881236D01*
X82512768Y-67969458D01*
X82442304Y-68055396D01*
X82439665Y-68060032D01*
X82439663Y-68060035D01*
X82382675Y-68160148D01*
X82328245Y-68255768D01*
X82249578Y-68472493D01*
X82248629Y-68477742D01*
X82248628Y-68477745D01*
X82209501Y-68694120D01*
X82208551Y-68699374D01*
X82208500Y-68704714D01*
X82207097Y-68850901D01*
X82206338Y-68929924D01*
X82243002Y-69157552D01*
X82317494Y-69375747D01*
X82427685Y-69578271D01*
X82570424Y-69759335D01*
X82574389Y-69762911D01*
X82737659Y-69910180D01*
X82737665Y-69910185D01*
X82741629Y-69913760D01*
X82746142Y-69916619D01*
X82746144Y-69916620D01*
X82864242Y-69991422D01*
X82911087Y-70044770D01*
X82921654Y-70114976D01*
X82892587Y-70179749D01*
X82862186Y-70205585D01*
X82767196Y-70263226D01*
X82767189Y-70263231D01*
X82762631Y-70265997D01*
X82758601Y-70269494D01*
X82665426Y-70350347D01*
X82588492Y-70417106D01*
X82585109Y-70421232D01*
X82585105Y-70421236D01*
X82512768Y-70509458D01*
X82442304Y-70595396D01*
X82439665Y-70600032D01*
X82439663Y-70600035D01*
X82388570Y-70689792D01*
X82328245Y-70795768D01*
X82249578Y-71012493D01*
X82248629Y-71017742D01*
X82248628Y-71017745D01*
X82218384Y-71184999D01*
X82208551Y-71239374D01*
X82207836Y-71313876D01*
X82207097Y-71390901D01*
X82206338Y-71469924D01*
X82243002Y-71697552D01*
X82244727Y-71702604D01*
X82314436Y-71906791D01*
X82317516Y-71977721D01*
X82281760Y-72039055D01*
X82218519Y-72071322D01*
X82195194Y-72073500D01*
X81417685Y-72073500D01*
X81349564Y-72053498D01*
X81328207Y-72035151D01*
X81328204Y-72035154D01*
X81328043Y-72035010D01*
X81328026Y-72034995D01*
X81264717Y-71978589D01*
X81227161Y-71918339D01*
X81228141Y-71847349D01*
X81265209Y-71790001D01*
X81269567Y-71786159D01*
X81373426Y-71669591D01*
X81382034Y-71657205D01*
X81455088Y-71519230D01*
X81460493Y-71505150D01*
X81498972Y-71351960D01*
X81500741Y-71340600D01*
X81500874Y-71338473D01*
X81501000Y-71334482D01*
X81501000Y-71329115D01*
X81496525Y-71313876D01*
X81495135Y-71312671D01*
X81487452Y-71311000D01*
X80772002Y-71310999D01*
X80771996Y-71311000D01*
X80390000Y-71310999D01*
X80321879Y-71290997D01*
X80275386Y-71237341D01*
X80264000Y-71184999D01*
X80264000Y-70784885D01*
X80771999Y-70784885D01*
X80776474Y-70800124D01*
X80777864Y-70801329D01*
X80785547Y-70803000D01*
X81481350Y-70803001D01*
X81495332Y-70798896D01*
X81497375Y-70785730D01*
X81486331Y-70694467D01*
X81482735Y-70679824D01*
X81427547Y-70533773D01*
X81420562Y-70520412D01*
X81332131Y-70391744D01*
X81322158Y-70380432D01*
X81205591Y-70276574D01*
X81193205Y-70267966D01*
X81055230Y-70194912D01*
X81041150Y-70189507D01*
X80887960Y-70151028D01*
X80876600Y-70149259D01*
X80874473Y-70149126D01*
X80870482Y-70149000D01*
X80790115Y-70149000D01*
X80774876Y-70153475D01*
X80773671Y-70154865D01*
X80772000Y-70162548D01*
X80771999Y-70784885D01*
X80264000Y-70784885D01*
X80264001Y-70167115D01*
X80259526Y-70151876D01*
X80258136Y-70150671D01*
X80250453Y-70149000D01*
X80205472Y-70149000D01*
X80197917Y-70149456D01*
X80080467Y-70163669D01*
X80065825Y-70167265D01*
X80035830Y-70178599D01*
X79965037Y-70183967D01*
X79902579Y-70150210D01*
X79868287Y-70088044D01*
X79865310Y-70058598D01*
X79865545Y-70044770D01*
X79895945Y-68251125D01*
X79925816Y-66488757D01*
X79946970Y-66420985D01*
X80001406Y-66375408D01*
X80071841Y-66366496D01*
X80115081Y-66381937D01*
X80227524Y-66447249D01*
X80391223Y-66496828D01*
X80397659Y-66497402D01*
X80397662Y-66497403D01*
X80463185Y-66503251D01*
X80463191Y-66503251D01*
X80465978Y-66503500D01*
X81064886Y-66503500D01*
X81153509Y-66493168D01*
X81184619Y-66489541D01*
X81184621Y-66489541D01*
X81191891Y-66488693D01*
X81198768Y-66486197D01*
X81198771Y-66486196D01*
X81345791Y-66432830D01*
X81352670Y-66430333D01*
X81495711Y-66336551D01*
X81499508Y-66332543D01*
X81563917Y-66304486D01*
X81579653Y-66303500D01*
X82085088Y-66303500D01*
X82153209Y-66323502D01*
G37*
%TD.AperFunction*%
%TD*%
M02*
