M48
; DRILL file {KiCad (5.99.0-7519-ga8269b6380)} date 01/03/21 22:27:38
; FORMAT={-:-/ absolute / inch / decimal}
; #@! TF.CreationDate,2021-01-03T22:27:38+01:00
; #@! TF.GenerationSoftware,Kicad,Pcbnew,(5.99.0-7519-ga8269b6380)
; #@! TF.FileFunction,Plated,1,2,PTH
FMAT,2
INCH
T1C0.0157
T2C0.0236
T3C0.0315
T4C0.0394
T5C0.0598
%
G90
G05
T1
X1.67Y-2.45
X1.67Y-2.59
X1.68Y-2.98
X1.7485Y-3.2293
X1.7485Y-3.2707
X1.7683Y-3.34
X1.83Y-2.97
X1.85Y-3.1
X1.93Y-3.39
X1.96Y-2.52
X1.96Y-2.72
X1.98Y-2.77
X1.98Y-2.82
X1.98Y-2.91
X1.98Y-2.98
X1.99Y-3.15
X2.03Y-3.29
X2.0816Y-3.1137
X2.12Y-2.47
X2.17Y-2.98
X2.17Y-3.41
X2.18Y-2.94
X2.2Y-3.34
X2.22Y-2.71
X2.22Y-3.16
X2.23Y-3.32
X2.2651Y-3.1273
X2.3Y-2.7
X2.3Y-2.82
X2.3Y-3.02
X2.32Y-2.47
X2.34Y-3.19
X2.39Y-2.71
X2.39Y-2.87
X2.39Y-3.02
X2.39Y-3.24
X2.4Y-2.46
X2.4Y-3.35
X2.43Y-2.71
X2.43Y-2.92
X2.44Y-2.5
X2.47Y-2.88
X2.52Y-3.21
X2.52Y-3.41
X2.53Y-2.58
X2.54Y-2.84
X2.73Y-2.62
X2.73Y-2.7
X2.73Y-2.78
X2.73Y-2.86
X2.73Y-2.93
X2.74Y-2.4
X2.75Y-3.28
X2.7629Y-3.18
X2.79Y-3.31
X2.82Y-2.77
X2.82Y-3.27
X2.86Y-2.85
X2.9Y-3.02
X2.92Y-2.9
X2.93Y-2.59
X2.9498Y-2.8202
X2.95Y-3.0393
X2.95Y-3.0807
X3.06Y-3.3
X3.0775Y-2.96
X3.11Y-3.02
X3.11Y-3.19
X3.11Y-3.55
X3.175Y-2.9907
X3.175Y-3.0242
X3.175Y-3.0577
X3.175Y-3.0911
X3.175Y-3.1246
X3.175Y-3.1581
X3.175Y-3.1915
X3.175Y-3.225
X3.18Y-2.65
X3.21Y-2.45
X3.2281Y-2.9907
X3.2281Y-3.0242
X3.2281Y-3.0577
X3.2281Y-3.0911
X3.2281Y-3.1246
X3.2281Y-3.1581
X3.2281Y-3.1915
X3.2281Y-3.225
X3.33Y-3.16
X3.34Y-3.01
X3.34Y-3.09
X3.34Y-3.22
X3.36Y-2.43
T3
X2.7Y-3.44
X2.8Y-3.44
X2.9Y-3.44
X3.0Y-3.44
T4
X1.61Y-2.51
X1.61Y-2.61
X1.61Y-2.71
X1.61Y-2.81
X1.61Y-2.91
X1.61Y-3.01
X1.61Y-3.11
X1.61Y-3.21
X1.92Y-3.48
X2.02Y-3.48
X2.12Y-3.48
X2.22Y-3.48
X2.32Y-3.48
X2.42Y-3.48
X2.52Y-3.48
X3.03Y-2.51
X3.03Y-2.61
X3.03Y-2.71
X3.03Y-2.81
X3.03Y-2.91
X3.03Y-3.01
X3.03Y-3.11
X3.03Y-3.21
X3.29Y-2.5098
X3.29Y-2.6098
X3.29Y-2.7098
X3.29Y-2.8098
T5
X2.88Y-2.22
X3.08Y-2.22
T2
G00X3.1841Y-2.9376
M15
G01X3.2431Y-2.9376
M16
G05
G00X3.1841Y-3.2781
M15
G01X3.2431Y-3.2781
M16
G05
G00X3.3309Y-2.9376
M15
G01X3.3624Y-2.9376
M16
G05
G00X3.3309Y-3.2781
M15
G01X3.3624Y-3.2781
M16
G05
T0
M30
