%TF.GenerationSoftware,KiCad,Pcbnew,(5.99.0-7519-ga8269b6380)*%
%TF.CreationDate,2021-01-03T22:28:01+01:00*%
%TF.ProjectId,l0ggi,6c306767-692e-46b6-9963-61645f706362,rev?*%
%TF.SameCoordinates,Original*%
%TF.FileFunction,Copper,L2,Bot*%
%TF.FilePolarity,Positive*%
%FSLAX46Y46*%
G04 Gerber Fmt 4.6, Leading zero omitted, Abs format (unit mm)*
G04 Created by KiCad (PCBNEW (5.99.0-7519-ga8269b6380)) date 2021-01-03 22:28:01*
%MOMM*%
%LPD*%
G01*
G04 APERTURE LIST*
%TA.AperFunction,ComponentPad*%
%ADD10C,1.500000*%
%TD*%
%TA.AperFunction,ComponentPad*%
%ADD11R,1.500000X1.500000*%
%TD*%
%TA.AperFunction,ComponentPad*%
%ADD12O,1.700000X0.900000*%
%TD*%
%TA.AperFunction,ComponentPad*%
%ADD13O,2.400000X0.900000*%
%TD*%
%TA.AperFunction,ComponentPad*%
%ADD14C,0.700000*%
%TD*%
%TA.AperFunction,SMDPad,CuDef*%
%ADD15R,0.800000X1.500000*%
%TD*%
%TA.AperFunction,SMDPad,CuDef*%
%ADD16R,1.450000X2.000000*%
%TD*%
%TA.AperFunction,ComponentPad*%
%ADD17O,1.700000X1.700000*%
%TD*%
%TA.AperFunction,ComponentPad*%
%ADD18R,1.700000X1.700000*%
%TD*%
%TA.AperFunction,ComponentPad*%
%ADD19C,3.000000*%
%TD*%
%TA.AperFunction,ComponentPad*%
%ADD20R,3.000000X3.000000*%
%TD*%
%TA.AperFunction,ViaPad*%
%ADD21C,0.800000*%
%TD*%
%TA.AperFunction,Conductor*%
%ADD22C,0.500000*%
%TD*%
%TA.AperFunction,Conductor*%
%ADD23C,0.250000*%
%TD*%
%TA.AperFunction,Conductor*%
%ADD24C,0.200000*%
%TD*%
G04 APERTURE END LIST*
D10*
%TO.P,U4,4,GND*%
%TO.N,GND*%
X68580000Y-87376000D03*
%TO.P,U4,3,NC*%
%TO.N,N/C*%
X71120000Y-87376000D03*
%TO.P,U4,2,IO*%
%TO.N,DHT*%
X73660000Y-87376000D03*
D11*
%TO.P,U4,1,VCC*%
%TO.N,+3V3*%
X76200000Y-87376000D03*
%TD*%
D12*
%TO.P,P1,S1,SHIELD*%
%TO.N,GND*%
X85005000Y-74615000D03*
X85005000Y-83265000D03*
D13*
X81625000Y-74615000D03*
X81625000Y-83265000D03*
D14*
%TO.P,P1,B6*%
%TO.N,N/C*%
X81995000Y-78515000D03*
%TO.P,P1,B1,GND*%
%TO.N,GND*%
X81995000Y-75965000D03*
%TO.P,P1,B4,VBUS*%
%TO.N,+5V*%
X81995000Y-76815000D03*
%TO.P,P1,B5,VCONN*%
%TO.N,Net-(P1-PadB5)*%
X81995000Y-77665000D03*
%TO.P,P1,B12,GND*%
%TO.N,GND*%
X81995000Y-81915000D03*
%TO.P,P1,B8*%
%TO.N,N/C*%
X81995000Y-80215000D03*
%TO.P,P1,B7*%
X81995000Y-79365000D03*
%TO.P,P1,B9,VBUS*%
%TO.N,+5V*%
X81995000Y-81065000D03*
%TO.P,P1,A12,GND*%
%TO.N,GND*%
X80645000Y-75965000D03*
%TO.P,P1,A9,VBUS*%
%TO.N,+5V*%
X80645000Y-76815000D03*
%TO.P,P1,A8*%
%TO.N,N/C*%
X80645000Y-77665000D03*
%TO.P,P1,A7,D-*%
%TO.N,USB_-*%
X80645000Y-78515000D03*
%TO.P,P1,A6,D+*%
%TO.N,USB_+*%
X80645000Y-79365000D03*
%TO.P,P1,A5,CC*%
%TO.N,Net-(P1-PadA5)*%
X80645000Y-80215000D03*
%TO.P,P1,A4,VBUS*%
%TO.N,+5V*%
X80645000Y-81065000D03*
%TO.P,P1,A1,GND*%
%TO.N,GND*%
X80645000Y-81915000D03*
%TD*%
D15*
%TO.P,J5,1,DAT2*%
%TO.N,N/C*%
X62890000Y-67370165D03*
%TO.P,J5,2,DAT3/CD*%
%TO.N,SD_CS*%
X61790000Y-67370165D03*
%TO.P,J5,3,CMD*%
%TO.N,SD_MOSI*%
X60690000Y-67370165D03*
%TO.P,J5,4,VDD*%
%TO.N,+3V3*%
X59590000Y-67370165D03*
%TO.P,J5,5,CLK*%
%TO.N,SD_SCL*%
X58490000Y-67370165D03*
%TO.P,J5,6,VSS*%
%TO.N,GND*%
X57390000Y-67370165D03*
%TO.P,J5,7,DAT0*%
%TO.N,SD_MISO*%
X56290000Y-67370165D03*
%TO.P,J5,8,DAT1*%
%TO.N,N/C*%
X55190000Y-67370165D03*
D16*
%TO.P,J5,9,SHIELD*%
%TO.N,GND*%
X52815000Y-73070165D03*
X66565000Y-73070165D03*
X66565000Y-64770165D03*
X52815000Y-64770165D03*
%TD*%
D17*
%TO.P,J4,8,Pin_8*%
%TO.N,+5V*%
X40894000Y-81534000D03*
%TO.P,J4,7,Pin_7*%
%TO.N,GPIO10*%
X40894000Y-78994000D03*
%TO.P,J4,6,Pin_6*%
%TO.N,GPIO9*%
X40894000Y-76454000D03*
%TO.P,J4,5,Pin_5*%
%TO.N,GPIO13*%
X40894000Y-73914000D03*
%TO.P,J4,4,Pin_4*%
%TO.N,GPIO12*%
X40894000Y-71374000D03*
%TO.P,J4,3,Pin_3*%
%TO.N,GPIO14*%
X40894000Y-68834000D03*
%TO.P,J4,2,Pin_2*%
%TO.N,ADC*%
X40894000Y-66294000D03*
D18*
%TO.P,J4,1,Pin_1*%
%TO.N,+3V3*%
X40894000Y-63754000D03*
%TD*%
D17*
%TO.P,J3,8,Pin_8*%
%TO.N,GND*%
X76962000Y-81534000D03*
%TO.P,J3,7,Pin_7*%
%TO.N,RST*%
X76962000Y-78994000D03*
%TO.P,J3,6,Pin_6*%
%TO.N,GPIO15*%
X76962000Y-76454000D03*
%TO.P,J3,5,Pin_5*%
%TO.N,GPIO2*%
X76962000Y-73914000D03*
%TO.P,J3,4,Pin_4*%
%TO.N,SDA*%
X76962000Y-71374000D03*
%TO.P,J3,3,Pin_3*%
%TO.N,SCL*%
X76962000Y-68834000D03*
%TO.P,J3,2,Pin_2*%
%TO.N,GPIO0*%
X76962000Y-66294000D03*
D18*
%TO.P,J3,1,Pin_1*%
%TO.N,GND*%
X76962000Y-63754000D03*
%TD*%
D19*
%TO.P,J2,2,Pin_2*%
%TO.N,Net-(D1-Pad1)*%
X73152000Y-56388000D03*
D20*
%TO.P,J2,1,Pin_1*%
%TO.N,GND*%
X78232000Y-56388000D03*
%TD*%
D17*
%TO.P,J1,7,Pin_7*%
%TO.N,GND*%
X64008000Y-88392000D03*
%TO.P,J1,6,Pin_6*%
%TO.N,/CTS*%
X61468000Y-88392000D03*
%TO.P,J1,5,Pin_5*%
%TO.N,/RTS*%
X58928000Y-88392000D03*
%TO.P,J1,4,Pin_4*%
%TO.N,UART_RX*%
X56388000Y-88392000D03*
%TO.P,J1,3,Pin_3*%
%TO.N,UART_TX*%
X53848000Y-88392000D03*
%TO.P,J1,2,Pin_2*%
%TO.N,+3V3*%
X51308000Y-88392000D03*
D18*
%TO.P,J1,1,Pin_1*%
%TO.N,+5V*%
X48768000Y-88392000D03*
%TD*%
D17*
%TO.P,D2,4,SDA*%
%TO.N,SDA*%
X83566000Y-71367691D03*
%TO.P,D2,3,SCK*%
%TO.N,SCL*%
X83566000Y-68827691D03*
%TO.P,D2,2,V+*%
%TO.N,+3V3*%
X83566000Y-66287691D03*
D18*
%TO.P,D2,1,GND*%
%TO.N,GND*%
X83566000Y-63747691D03*
%TD*%
D21*
%TO.N,GND*%
X84836000Y-81788000D03*
X84582000Y-80264000D03*
X84836000Y-78486000D03*
X84836000Y-76454000D03*
X80772000Y-67310000D03*
X81534000Y-62230000D03*
X85344000Y-61722000D03*
X64262000Y-65532000D03*
X61976000Y-63500000D03*
X60960000Y-62484000D03*
X69596000Y-60960000D03*
X42418000Y-62230000D03*
X77724000Y-83820000D03*
X51562000Y-83566000D03*
X44914762Y-84836000D03*
%TO.N,+3V3*%
X42672000Y-75692000D03*
X74422000Y-65786000D03*
X49784000Y-69088000D03*
X49022000Y-86106000D03*
X50292000Y-75692000D03*
X46482000Y-75438000D03*
%TO.N,USB_-*%
X78169726Y-75182945D03*
%TO.N,USB_+*%
X74930000Y-77199000D03*
%TO.N,USB_-*%
X74930000Y-78249000D03*
%TO.N,USB_+*%
X44411764Y-82025000D03*
%TO.N,USB_-*%
X44411764Y-83075000D03*
%TO.N,GPIO0*%
X74925347Y-71632653D03*
%TO.N,SD_SCL*%
X58420000Y-68580000D03*
X64516000Y-72136000D03*
X58420000Y-71628000D03*
%TO.N,SD_MOSI*%
X60706000Y-68834000D03*
X62738000Y-73152000D03*
X60706000Y-72898000D03*
%TO.N,SD_MISO*%
X56388000Y-68834000D03*
%TO.N,SD_CS*%
X61722000Y-68834000D03*
X61722000Y-74168000D03*
X55372000Y-74676000D03*
%TO.N,DHT*%
X73660000Y-76708000D03*
X55118000Y-75692000D03*
%TO.N,RST*%
X53848000Y-62738000D03*
X58928000Y-62738000D03*
X64008000Y-81534000D03*
X59436000Y-81026000D03*
%TO.N,Net-(R11-Pad1)*%
X60706000Y-82296000D03*
%TO.N,ADC*%
X49784000Y-64008000D03*
X42418000Y-65786000D03*
%TO.N,UART_RX*%
X57532358Y-79432740D03*
X52872385Y-79088990D03*
%TO.N,UART_TX*%
X50546000Y-80010000D03*
X56388000Y-80264000D03*
%TO.N,GPIO10*%
X60706000Y-76708000D03*
%TO.N,GPIO9*%
X58420000Y-76708000D03*
%TO.N,GPIO13*%
X50292000Y-73914000D03*
%TO.N,GPIO12*%
X50292000Y-71628000D03*
%TO.N,GPIO14*%
X50292000Y-70358000D03*
%TO.N,UART_TX*%
X56642000Y-84328000D03*
%TO.N,/CTS*%
X55118000Y-86614000D03*
X64008000Y-86614000D03*
%TO.N,/RTS*%
X55880000Y-84836000D03*
X60960000Y-85090000D03*
%TO.N,UART_TX*%
X70866000Y-84074000D03*
%TO.N,GPIO0*%
X71628000Y-83058000D03*
X69850000Y-83312000D03*
%TO.N,Net-(R11-Pad1)*%
X70177999Y-80772000D03*
%TO.N,GPIO0*%
X71628000Y-70358000D03*
%TO.N,+5V*%
X78994000Y-90170000D03*
X78994000Y-81026000D03*
X78994000Y-76708000D03*
%TO.N,GPIO15*%
X74168000Y-73660000D03*
%TO.N,GPIO2*%
X72644000Y-72390000D03*
%TO.N,GPIO15*%
X69342000Y-74422000D03*
%TO.N,GPIO0*%
X69342000Y-70612000D03*
%TO.N,GPIO2*%
X69342000Y-72644000D03*
%TO.N,SDA*%
X69342000Y-68580000D03*
%TO.N,SCL*%
X69342000Y-66548000D03*
%TO.N,+5V*%
X46990000Y-78740000D03*
%TD*%
D22*
%TO.N,GND*%
X80645000Y-75965000D02*
X80645000Y-75595000D01*
X80645000Y-75595000D02*
X81625000Y-74615000D01*
X81995000Y-75965000D02*
X81995000Y-74985000D01*
X81995000Y-74985000D02*
X81625000Y-74615000D01*
X80645000Y-75965000D02*
X81995000Y-75965000D01*
X80645000Y-81915000D02*
X81995000Y-81915000D01*
X81995000Y-81915000D02*
X81995000Y-82895000D01*
X81995000Y-82895000D02*
X81625000Y-83265000D01*
X80645000Y-81915000D02*
X80645000Y-82285000D01*
X80645000Y-82285000D02*
X81625000Y-83265000D01*
X63423997Y-85940001D02*
X63765998Y-85598000D01*
X60297999Y-85686001D02*
X60551999Y-85940001D01*
X53682001Y-85686001D02*
X60297999Y-85686001D01*
X60551999Y-85940001D02*
X63423997Y-85940001D01*
X51562000Y-83566000D02*
X53682001Y-85686001D01*
X63765998Y-85598000D02*
X66802000Y-85598000D01*
X66802000Y-85598000D02*
X68580000Y-87376000D01*
D23*
%TO.N,/RTS*%
X55880000Y-84836000D02*
X56134000Y-85090000D01*
X56134000Y-85090000D02*
X60960000Y-85090000D01*
D22*
%TO.N,GND*%
X60960000Y-62484000D02*
X61976000Y-63500000D01*
X68264010Y-62291990D02*
X61152010Y-62291990D01*
X61152010Y-62291990D02*
X60960000Y-62484000D01*
X69596000Y-60960000D02*
X68264010Y-62291990D01*
X57404000Y-67384165D02*
X57404000Y-68834000D01*
X57390000Y-67370165D02*
X57404000Y-67384165D01*
X77724000Y-82296000D02*
X76962000Y-81534000D01*
X77724000Y-83820000D02*
X77724000Y-82296000D01*
X44914762Y-84836000D02*
X50292000Y-84836000D01*
X50292000Y-84836000D02*
X51562000Y-83566000D01*
%TO.N,+3V3*%
X42672000Y-75692000D02*
X46228000Y-75692000D01*
X46228000Y-75692000D02*
X46482000Y-75438000D01*
X74422000Y-65024000D02*
X74422000Y-65786000D01*
X74422000Y-63783998D02*
X75751999Y-62453999D01*
X74422000Y-63754000D02*
X74422000Y-65024000D01*
X74422000Y-65024000D02*
X74422000Y-63783998D01*
X75751999Y-62453999D02*
X79732308Y-62453999D01*
X79732308Y-62453999D02*
X83566000Y-66287691D01*
X54160577Y-65786000D02*
X59690000Y-65786000D01*
X59690000Y-65786000D02*
X61468000Y-65786000D01*
X59590000Y-67370165D02*
X59590000Y-65886000D01*
X59590000Y-65886000D02*
X59690000Y-65786000D01*
X73660000Y-62992000D02*
X74422000Y-63754000D01*
X64262000Y-62992000D02*
X72898000Y-62992000D01*
X61468000Y-65786000D02*
X64262000Y-62992000D01*
X72898000Y-62992000D02*
X73660000Y-62992000D01*
X49784000Y-69088000D02*
X50858577Y-69088000D01*
X50858577Y-69088000D02*
X54160577Y-65786000D01*
D23*
%TO.N,ADC*%
X49784000Y-64008000D02*
X42672000Y-64008000D01*
X42672000Y-64008000D02*
X42418000Y-64262000D01*
X42418000Y-64262000D02*
X42418000Y-65786000D01*
D22*
%TO.N,+3V3*%
X49022000Y-86106000D02*
X51308000Y-88392000D01*
X50038000Y-75438000D02*
X50292000Y-75692000D01*
X46482000Y-75438000D02*
X50038000Y-75438000D01*
D24*
%TO.N,USB_+*%
X44411764Y-82025000D02*
X44711764Y-82325000D01*
X44711764Y-82325000D02*
X56040800Y-82325000D01*
X56040800Y-82325000D02*
X60866800Y-77499000D01*
%TO.N,USB_-*%
X44411764Y-83075000D02*
X44711764Y-82775000D01*
X61053200Y-77949000D02*
X74630000Y-77949000D01*
%TO.N,USB_+*%
X60866800Y-77499000D02*
X74630000Y-77499000D01*
X74630000Y-77499000D02*
X74923921Y-77205079D01*
X74923921Y-77205079D02*
X74930000Y-77199000D01*
%TO.N,USB_-*%
X44711764Y-82775000D02*
X56227200Y-82775000D01*
X56227200Y-82775000D02*
X61053200Y-77949000D01*
X74630000Y-77949000D02*
X74930000Y-78249000D01*
X78169726Y-75182945D02*
X78169726Y-76919728D01*
X78169726Y-76919728D02*
X79764998Y-78515000D01*
X79764998Y-78515000D02*
X80645000Y-78515000D01*
%TO.N,USB_+*%
X74930000Y-77199000D02*
X75495685Y-77199000D01*
X75495685Y-77199000D02*
X76140684Y-77843999D01*
X76140684Y-77843999D02*
X77589999Y-77843999D01*
X77589999Y-77843999D02*
X79111000Y-79365000D01*
X79111000Y-79365000D02*
X80645000Y-79365000D01*
D23*
%TO.N,GPIO0*%
X71628000Y-70358000D02*
X73650694Y-70358000D01*
X73650694Y-70358000D02*
X74925347Y-71632653D01*
%TO.N,SD_SCL*%
X58420000Y-67440165D02*
X58490000Y-67370165D01*
X64516000Y-72136000D02*
X58928000Y-72136000D01*
X58928000Y-72136000D02*
X58420000Y-71628000D01*
X58420000Y-68580000D02*
X58420000Y-67440165D01*
%TO.N,SD_MOSI*%
X60706000Y-68834000D02*
X60706000Y-67386165D01*
X60960000Y-73152000D02*
X60706000Y-72898000D01*
X62738000Y-73152000D02*
X60960000Y-73152000D01*
X60706000Y-67386165D02*
X60690000Y-67370165D01*
%TO.N,SD_MISO*%
X56388000Y-68834000D02*
X56388000Y-67468165D01*
X56388000Y-67468165D02*
X56290000Y-67370165D01*
%TO.N,SD_CS*%
X61722000Y-68834000D02*
X61722000Y-67438165D01*
X61722000Y-67438165D02*
X61790000Y-67370165D01*
X61214000Y-74676000D02*
X61722000Y-74168000D01*
X55372000Y-74676000D02*
X61214000Y-74676000D01*
%TO.N,DHT*%
X55118000Y-75692000D02*
X72644000Y-75692000D01*
X72644000Y-75692000D02*
X73660000Y-76708000D01*
%TO.N,RST*%
X68072000Y-81534000D02*
X69850000Y-79756000D01*
X64008000Y-81534000D02*
X68072000Y-81534000D01*
X69850000Y-79756000D02*
X76200000Y-79756000D01*
X76200000Y-79756000D02*
X76962000Y-78994000D01*
X58928000Y-62738000D02*
X53848000Y-62738000D01*
X59944000Y-81534000D02*
X59436000Y-81026000D01*
X64008000Y-81534000D02*
X59944000Y-81534000D01*
%TO.N,Net-(R11-Pad1)*%
X60706000Y-82296000D02*
X69342000Y-82296000D01*
X69342000Y-82296000D02*
X70177999Y-81460001D01*
X70177999Y-81460001D02*
X70177999Y-80772000D01*
%TO.N,UART_RX*%
X57188608Y-79088990D02*
X57532358Y-79432740D01*
X52872385Y-79088990D02*
X57188608Y-79088990D01*
%TO.N,UART_TX*%
X50546000Y-80010000D02*
X56134000Y-80010000D01*
X56134000Y-80010000D02*
X56388000Y-80264000D01*
%TO.N,GPIO10*%
X40894000Y-78994000D02*
X42454999Y-77433001D01*
X42454999Y-77433001D02*
X59980999Y-77433001D01*
X59980999Y-77433001D02*
X60706000Y-76708000D01*
%TO.N,GPIO9*%
X58166000Y-76454000D02*
X58420000Y-76708000D01*
X40894000Y-76454000D02*
X58166000Y-76454000D01*
%TO.N,GPIO13*%
X50292000Y-73914000D02*
X40894000Y-73914000D01*
%TO.N,GPIO12*%
X40894000Y-71374000D02*
X50038000Y-71374000D01*
X50038000Y-71374000D02*
X50292000Y-71628000D01*
%TO.N,GPIO14*%
X50292000Y-70358000D02*
X43942000Y-70358000D01*
X42418000Y-68834000D02*
X40894000Y-68834000D01*
X43942000Y-70358000D02*
X42418000Y-68834000D01*
%TO.N,UART_TX*%
X70612000Y-84328000D02*
X56642000Y-84328000D01*
%TO.N,/CTS*%
X55118000Y-86614000D02*
X64008000Y-86614000D01*
%TO.N,UART_TX*%
X70866000Y-84074000D02*
X70612000Y-84328000D01*
%TO.N,GPIO0*%
X71374000Y-83312000D02*
X71628000Y-83058000D01*
X69850000Y-83312000D02*
X71374000Y-83312000D01*
X70612000Y-70612000D02*
X71374000Y-70612000D01*
X71374000Y-70612000D02*
X71628000Y-70358000D01*
D22*
%TO.N,+5V*%
X78994000Y-90170000D02*
X49530000Y-90170000D01*
X49530000Y-90170000D02*
X48768000Y-89408000D01*
X48768000Y-89408000D02*
X48768000Y-88392000D01*
X78994000Y-81026000D02*
X79971000Y-81065000D01*
X79971000Y-81065000D02*
X80645000Y-81065000D01*
X80645000Y-76815000D02*
X78994000Y-76708000D01*
D23*
%TO.N,GPIO2*%
X72644000Y-72390000D02*
X75438000Y-72390000D01*
X75438000Y-72390000D02*
X76962000Y-73914000D01*
%TO.N,GPIO15*%
X74168000Y-73660000D02*
X73406000Y-74422000D01*
X73406000Y-74422000D02*
X69342000Y-74422000D01*
%TO.N,GPIO2*%
X72390000Y-72644000D02*
X72644000Y-72390000D01*
X69342000Y-72644000D02*
X72390000Y-72644000D01*
%TO.N,GPIO0*%
X69342000Y-70612000D02*
X70612000Y-70612000D01*
%TO.N,SDA*%
X76962000Y-71374000D02*
X76968309Y-71367691D01*
X76968309Y-71367691D02*
X83566000Y-71367691D01*
%TO.N,SCL*%
X76962000Y-68834000D02*
X83559691Y-68834000D01*
X83559691Y-68834000D02*
X83566000Y-68827691D01*
%TO.N,SDA*%
X75184000Y-68580000D02*
X75438000Y-68834000D01*
X75692000Y-71374000D02*
X76962000Y-71374000D01*
X69342000Y-68580000D02*
X75184000Y-68580000D01*
X75438000Y-68834000D02*
X75438000Y-71120000D01*
X75438000Y-71120000D02*
X75692000Y-71374000D01*
%TO.N,SCL*%
X75438000Y-66802000D02*
X75438000Y-68072000D01*
X69342000Y-66548000D02*
X75184000Y-66548000D01*
X75184000Y-66548000D02*
X75438000Y-66802000D01*
X76200000Y-68834000D02*
X76962000Y-68834000D01*
X75438000Y-68072000D02*
X76200000Y-68834000D01*
D22*
%TO.N,+5V*%
X46482000Y-79248000D02*
X46990000Y-78740000D01*
X40894000Y-81534000D02*
X42418000Y-81534000D01*
X42418000Y-81534000D02*
X44704000Y-79248000D01*
X44704000Y-79248000D02*
X46482000Y-79248000D01*
X45212000Y-86360000D02*
X45212000Y-87884000D01*
X40894000Y-81534000D02*
X40894000Y-82042000D01*
X40894000Y-82042000D02*
X45212000Y-86360000D01*
X45212000Y-87884000D02*
X45720000Y-88392000D01*
X45720000Y-88392000D02*
X48768000Y-88392000D01*
X83058000Y-77470000D02*
X83058000Y-80151002D01*
X83058000Y-77470000D02*
X83058000Y-77216000D01*
X83058000Y-77216000D02*
X82657000Y-76815000D01*
X81995000Y-76815000D02*
X82657000Y-76815000D01*
X83058000Y-80151002D02*
X83058000Y-80518000D01*
X83058000Y-80518000D02*
X82511000Y-81065000D01*
X82511000Y-81065000D02*
X81995000Y-81065000D01*
X81995000Y-76815000D02*
X80645000Y-76815000D01*
X81995000Y-81065000D02*
X80645000Y-81065000D01*
%TD*%
%TA.AperFunction,Conductor*%
%TO.N,GND*%
G36*
X80046056Y-53868002D02*
G01*
X80092549Y-53921658D01*
X80103935Y-53974000D01*
X80103935Y-54303573D01*
X80083933Y-54371694D01*
X80030277Y-54418187D01*
X79960003Y-54428291D01*
X79925592Y-54418186D01*
X79884728Y-54399524D01*
X79867612Y-54394498D01*
X79736446Y-54375639D01*
X79727505Y-54375000D01*
X78504115Y-54375000D01*
X78488876Y-54379475D01*
X78487671Y-54380865D01*
X78486000Y-54388548D01*
X78485999Y-56133998D01*
X78486000Y-56134004D01*
X78485999Y-58382885D01*
X78490474Y-58398124D01*
X78491864Y-58399329D01*
X78499547Y-58401000D01*
X79729743Y-58401000D01*
X79734250Y-58400839D01*
X79798269Y-58396260D01*
X79811491Y-58393874D01*
X79942437Y-58355425D01*
X80013433Y-58355425D01*
X80073159Y-58393808D01*
X80102652Y-58458389D01*
X80103935Y-58476321D01*
X80103935Y-59434498D01*
X85726034Y-59435904D01*
X85794147Y-59455923D01*
X85840627Y-59509590D01*
X85852000Y-59561904D01*
X85852000Y-73575025D01*
X85831998Y-73643146D01*
X85778342Y-73689639D01*
X85708068Y-73699743D01*
X85696193Y-73697025D01*
X85696182Y-73697077D01*
X85510406Y-73658266D01*
X85501138Y-73657063D01*
X85498747Y-73657000D01*
X85277115Y-73657000D01*
X85261876Y-73661475D01*
X85260671Y-73662865D01*
X85259000Y-73670548D01*
X85258999Y-74360998D01*
X85259000Y-74361004D01*
X85258999Y-75554885D01*
X85263474Y-75570124D01*
X85264864Y-75571329D01*
X85272547Y-75573000D01*
X85451028Y-75573000D01*
X85457403Y-75572677D01*
X85592289Y-75558976D01*
X85604729Y-75556422D01*
X85688321Y-75530226D01*
X85759306Y-75528942D01*
X85819716Y-75566239D01*
X85850373Y-75630275D01*
X85852000Y-75650460D01*
X85852000Y-82225025D01*
X85831998Y-82293146D01*
X85778342Y-82339639D01*
X85708068Y-82349743D01*
X85696193Y-82347025D01*
X85696182Y-82347077D01*
X85510406Y-82308266D01*
X85501138Y-82307063D01*
X85498747Y-82307000D01*
X85277115Y-82307000D01*
X85261876Y-82311475D01*
X85260671Y-82312865D01*
X85259000Y-82320548D01*
X85258999Y-83010998D01*
X85259000Y-83011004D01*
X85258999Y-84204885D01*
X85263474Y-84220124D01*
X85264864Y-84221329D01*
X85272547Y-84223000D01*
X85451028Y-84223000D01*
X85457403Y-84222677D01*
X85592289Y-84208976D01*
X85604729Y-84206422D01*
X85688321Y-84180226D01*
X85759306Y-84178942D01*
X85819716Y-84216239D01*
X85850373Y-84280275D01*
X85852000Y-84300460D01*
X85852000Y-84456000D01*
X85831998Y-84524121D01*
X85778342Y-84570614D01*
X85726000Y-84582000D01*
X80264000Y-84582000D01*
X80264000Y-90044000D01*
X80243998Y-90112121D01*
X80190342Y-90158614D01*
X80138000Y-90170000D01*
X80020951Y-90170000D01*
X79952830Y-90149998D01*
X79906337Y-90096342D01*
X79895641Y-90057170D01*
X79888228Y-89986638D01*
X79887538Y-89980073D01*
X79879361Y-89954905D01*
X79852492Y-89872211D01*
X79828524Y-89798446D01*
X79733037Y-89633058D01*
X79706934Y-89604067D01*
X79609673Y-89496048D01*
X79609672Y-89496047D01*
X79605251Y-89491137D01*
X79599909Y-89487256D01*
X79599907Y-89487254D01*
X79456092Y-89382767D01*
X79456091Y-89382766D01*
X79450750Y-89378886D01*
X79444722Y-89376202D01*
X79444720Y-89376201D01*
X79282318Y-89303895D01*
X79282317Y-89303895D01*
X79276287Y-89301210D01*
X79182887Y-89281357D01*
X79095944Y-89262876D01*
X79095939Y-89262876D01*
X79089487Y-89261504D01*
X78898513Y-89261504D01*
X78892061Y-89262876D01*
X78892056Y-89262876D01*
X78805113Y-89281357D01*
X78711713Y-89301210D01*
X78705683Y-89303895D01*
X78705682Y-89303895D01*
X78543278Y-89376202D01*
X78537250Y-89378886D01*
X78531914Y-89382763D01*
X78531912Y-89382764D01*
X78525479Y-89387438D01*
X78451420Y-89411500D01*
X65194086Y-89411500D01*
X65125965Y-89391498D01*
X65079472Y-89337842D01*
X65069368Y-89267568D01*
X65090936Y-89213139D01*
X65182940Y-89081987D01*
X65188295Y-89072787D01*
X65282399Y-88874156D01*
X65286123Y-88864197D01*
X65343968Y-88657718D01*
X65342430Y-88649351D01*
X65330137Y-88646000D01*
X63880000Y-88645999D01*
X63811879Y-88625997D01*
X63765386Y-88572341D01*
X63754000Y-88519999D01*
X63754000Y-88427696D01*
X67893134Y-88427696D01*
X67898415Y-88434751D01*
X68037392Y-88515963D01*
X68047513Y-88520726D01*
X68247848Y-88594038D01*
X68258633Y-88596928D01*
X68468792Y-88633606D01*
X68479924Y-88634541D01*
X68693244Y-88633424D01*
X68704378Y-88632372D01*
X68914126Y-88593497D01*
X68924897Y-88590490D01*
X69124452Y-88515085D01*
X69134508Y-88510224D01*
X69256910Y-88436967D01*
X69266479Y-88426610D01*
X69262936Y-88418146D01*
X68592812Y-87748022D01*
X68578868Y-87740408D01*
X68577035Y-87740539D01*
X68570420Y-87744790D01*
X67899894Y-88415316D01*
X67893134Y-88427696D01*
X63754000Y-88427696D01*
X63754001Y-88264000D01*
X63774003Y-88195879D01*
X63827659Y-88149386D01*
X63880001Y-88138000D01*
X65327079Y-88138001D01*
X65340610Y-88134028D01*
X65341876Y-88125219D01*
X65294954Y-87944433D01*
X65291419Y-87934395D01*
X65201147Y-87733998D01*
X65195967Y-87724692D01*
X65073218Y-87542366D01*
X65066557Y-87534080D01*
X64986061Y-87449698D01*
X67319639Y-87449698D01*
X67320341Y-87460850D01*
X67352608Y-87671717D01*
X67355275Y-87682578D01*
X67424375Y-87884400D01*
X67428923Y-87894614D01*
X67517819Y-88054330D01*
X67527872Y-88064221D01*
X67535475Y-88061315D01*
X68207978Y-87388812D01*
X68214355Y-87377132D01*
X68944408Y-87377132D01*
X68944539Y-87378965D01*
X68948790Y-87385580D01*
X69621337Y-88058127D01*
X69633717Y-88064887D01*
X69639981Y-88060198D01*
X69739007Y-87877813D01*
X69789089Y-87827492D01*
X69858427Y-87812235D01*
X69925006Y-87836887D01*
X69964470Y-87886217D01*
X69965735Y-87889912D01*
X69968462Y-87894812D01*
X69968465Y-87894818D01*
X70068871Y-88075210D01*
X70074984Y-88086192D01*
X70078535Y-88090530D01*
X70078538Y-88090535D01*
X70169632Y-88201830D01*
X70217264Y-88260025D01*
X70221527Y-88263666D01*
X70221532Y-88263671D01*
X70350415Y-88373747D01*
X70388078Y-88405914D01*
X70423495Y-88426610D01*
X70577181Y-88516417D01*
X70577184Y-88516418D01*
X70582028Y-88519249D01*
X70587298Y-88521178D01*
X70587299Y-88521178D01*
X70787718Y-88594521D01*
X70787722Y-88594522D01*
X70792982Y-88596447D01*
X70798499Y-88597410D01*
X70798503Y-88597411D01*
X70979037Y-88628919D01*
X71014273Y-88635069D01*
X71019879Y-88635040D01*
X71019883Y-88635040D01*
X71122937Y-88634500D01*
X71238906Y-88633893D01*
X71247113Y-88632372D01*
X71440944Y-88596447D01*
X71459780Y-88592956D01*
X71466307Y-88590490D01*
X71567950Y-88552082D01*
X71669914Y-88513553D01*
X71675477Y-88510224D01*
X71813371Y-88427696D01*
X71862667Y-88398193D01*
X72031944Y-88250523D01*
X72172396Y-88075210D01*
X72179941Y-88061315D01*
X72243402Y-87944433D01*
X72279263Y-87878385D01*
X72329344Y-87828065D01*
X72398682Y-87812808D01*
X72465261Y-87837460D01*
X72504622Y-87886662D01*
X72505735Y-87889912D01*
X72508461Y-87894809D01*
X72508462Y-87894812D01*
X72602755Y-88064221D01*
X72614984Y-88086192D01*
X72618535Y-88090530D01*
X72618538Y-88090535D01*
X72709632Y-88201830D01*
X72757264Y-88260025D01*
X72761527Y-88263666D01*
X72761532Y-88263671D01*
X72890415Y-88373747D01*
X72928078Y-88405914D01*
X72963495Y-88426610D01*
X73117181Y-88516417D01*
X73117184Y-88516418D01*
X73122028Y-88519249D01*
X73127298Y-88521178D01*
X73127299Y-88521178D01*
X73327718Y-88594521D01*
X73327722Y-88594522D01*
X73332982Y-88596447D01*
X73338499Y-88597410D01*
X73338503Y-88597411D01*
X73519037Y-88628919D01*
X73554273Y-88635069D01*
X73559879Y-88635040D01*
X73559883Y-88635040D01*
X73662937Y-88634500D01*
X73778906Y-88633893D01*
X73787113Y-88632372D01*
X73980944Y-88596447D01*
X73999780Y-88592956D01*
X74006307Y-88590490D01*
X74107950Y-88552082D01*
X74209914Y-88513553D01*
X74215477Y-88510224D01*
X74353371Y-88427696D01*
X74402667Y-88398193D01*
X74571944Y-88250523D01*
X74712396Y-88075210D01*
X74713995Y-88076491D01*
X74761454Y-88036621D01*
X74831874Y-88027592D01*
X74895997Y-88058068D01*
X74933463Y-88118374D01*
X74937718Y-88143031D01*
X74941727Y-88199079D01*
X74982904Y-88339316D01*
X74987775Y-88346895D01*
X75057051Y-88454691D01*
X75057053Y-88454694D01*
X75061923Y-88462271D01*
X75068733Y-88468172D01*
X75165569Y-88552082D01*
X75165572Y-88552084D01*
X75172381Y-88557984D01*
X75180579Y-88561728D01*
X75252386Y-88594521D01*
X75305330Y-88618700D01*
X75314245Y-88619982D01*
X75314246Y-88619982D01*
X75445552Y-88638861D01*
X75445559Y-88638862D01*
X75450000Y-88639500D01*
X76950000Y-88639500D01*
X77023079Y-88634273D01*
X77101165Y-88611345D01*
X77154670Y-88595635D01*
X77154672Y-88595634D01*
X77163316Y-88593096D01*
X77227135Y-88552082D01*
X77278691Y-88518949D01*
X77278694Y-88518947D01*
X77286271Y-88514077D01*
X77326048Y-88468172D01*
X77376082Y-88410431D01*
X77376084Y-88410428D01*
X77381984Y-88403619D01*
X77442700Y-88270670D01*
X77443982Y-88261754D01*
X77462861Y-88130448D01*
X77462862Y-88130441D01*
X77463500Y-88126000D01*
X77463500Y-86626000D01*
X77458273Y-86552921D01*
X77425860Y-86442531D01*
X77419635Y-86421330D01*
X77419634Y-86421328D01*
X77417096Y-86412684D01*
X77371393Y-86341569D01*
X77342949Y-86297309D01*
X77342947Y-86297306D01*
X77338077Y-86289729D01*
X77290763Y-86248731D01*
X77234431Y-86199918D01*
X77234428Y-86199916D01*
X77227619Y-86194016D01*
X77199611Y-86181225D01*
X77102864Y-86137042D01*
X77102863Y-86137042D01*
X77094670Y-86133300D01*
X77085755Y-86132018D01*
X77085754Y-86132018D01*
X76954448Y-86113139D01*
X76954441Y-86113138D01*
X76950000Y-86112500D01*
X75450000Y-86112500D01*
X75376921Y-86117727D01*
X75323884Y-86133300D01*
X75245330Y-86156365D01*
X75245328Y-86156366D01*
X75236684Y-86158904D01*
X75206200Y-86178495D01*
X75121309Y-86233051D01*
X75121306Y-86233053D01*
X75113729Y-86237923D01*
X75107828Y-86244733D01*
X75023918Y-86341569D01*
X75023916Y-86341572D01*
X75018016Y-86348381D01*
X75014272Y-86356579D01*
X74967137Y-86459791D01*
X74957300Y-86481330D01*
X74936824Y-86623750D01*
X74936713Y-86624522D01*
X74907220Y-86689103D01*
X74847494Y-86727487D01*
X74776497Y-86727487D01*
X74716771Y-86689104D01*
X74709673Y-86680118D01*
X74682959Y-86642942D01*
X74616463Y-86550403D01*
X74479621Y-86417794D01*
X74459174Y-86397979D01*
X74459171Y-86397977D01*
X74455146Y-86394076D01*
X74268696Y-86268787D01*
X74254816Y-86262694D01*
X74068152Y-86180754D01*
X74068148Y-86180753D01*
X74063005Y-86178495D01*
X74057550Y-86177185D01*
X74057546Y-86177184D01*
X73850030Y-86127363D01*
X73850026Y-86127362D01*
X73844576Y-86126054D01*
X73799144Y-86123434D01*
X73625920Y-86113446D01*
X73625917Y-86113446D01*
X73620313Y-86113123D01*
X73397304Y-86140111D01*
X73391942Y-86141761D01*
X73391940Y-86141761D01*
X73344469Y-86156365D01*
X73182598Y-86206163D01*
X73177618Y-86208733D01*
X73177614Y-86208735D01*
X73021401Y-86289363D01*
X72982983Y-86309192D01*
X72978535Y-86312605D01*
X72921227Y-86356579D01*
X72804767Y-86445941D01*
X72653584Y-86612089D01*
X72650602Y-86616843D01*
X72542769Y-86788744D01*
X72534213Y-86802383D01*
X72512344Y-86856785D01*
X72507047Y-86869961D01*
X72463080Y-86925705D01*
X72395955Y-86948830D01*
X72326984Y-86931993D01*
X72276415Y-86877209D01*
X72207548Y-86732826D01*
X72176723Y-86689929D01*
X72079740Y-86554963D01*
X72079736Y-86554958D01*
X72076463Y-86550403D01*
X71939621Y-86417794D01*
X71919174Y-86397979D01*
X71919171Y-86397977D01*
X71915146Y-86394076D01*
X71728696Y-86268787D01*
X71714816Y-86262694D01*
X71528152Y-86180754D01*
X71528148Y-86180753D01*
X71523005Y-86178495D01*
X71517550Y-86177185D01*
X71517546Y-86177184D01*
X71310030Y-86127363D01*
X71310026Y-86127362D01*
X71304576Y-86126054D01*
X71259144Y-86123434D01*
X71085920Y-86113446D01*
X71085917Y-86113446D01*
X71080313Y-86113123D01*
X70857304Y-86140111D01*
X70851942Y-86141761D01*
X70851940Y-86141761D01*
X70804469Y-86156365D01*
X70642598Y-86206163D01*
X70637618Y-86208733D01*
X70637614Y-86208735D01*
X70481401Y-86289363D01*
X70442983Y-86309192D01*
X70438535Y-86312605D01*
X70381227Y-86356579D01*
X70264767Y-86445941D01*
X70113584Y-86612089D01*
X70110602Y-86616843D01*
X70002769Y-86788744D01*
X69994213Y-86802383D01*
X69966794Y-86870591D01*
X69922829Y-86926333D01*
X69855704Y-86949458D01*
X69786733Y-86932621D01*
X69736162Y-86877837D01*
X69669530Y-86738142D01*
X69663841Y-86728523D01*
X69642154Y-86698341D01*
X69631363Y-86689929D01*
X69618327Y-86696883D01*
X68952022Y-87363188D01*
X68944408Y-87377132D01*
X68214355Y-87377132D01*
X68215592Y-87374868D01*
X68215461Y-87373035D01*
X68211210Y-87366420D01*
X67541770Y-86696980D01*
X67529390Y-86690220D01*
X67521418Y-86696188D01*
X67457640Y-86797859D01*
X67452567Y-86807815D01*
X67372998Y-87005747D01*
X67369767Y-87016447D01*
X67326508Y-87225337D01*
X67325223Y-87236444D01*
X67319639Y-87449698D01*
X64986061Y-87449698D01*
X64914830Y-87375030D01*
X64906873Y-87367990D01*
X64797395Y-87286536D01*
X64754682Y-87229826D01*
X64749409Y-87159025D01*
X64763489Y-87122447D01*
X64839220Y-86991277D01*
X64839221Y-86991276D01*
X64842524Y-86985554D01*
X64880082Y-86869961D01*
X64899498Y-86810206D01*
X64899498Y-86810205D01*
X64901538Y-86803927D01*
X64909491Y-86728264D01*
X64920810Y-86620565D01*
X64921500Y-86614000D01*
X64915295Y-86554963D01*
X64902228Y-86430637D01*
X64902228Y-86430636D01*
X64901538Y-86424073D01*
X64899063Y-86416454D01*
X64868825Y-86323389D01*
X67891943Y-86323389D01*
X67898576Y-86335366D01*
X68567188Y-87003978D01*
X68581132Y-87011592D01*
X68582965Y-87011461D01*
X68589580Y-87007210D01*
X69258844Y-86337946D01*
X69265068Y-86326548D01*
X69255257Y-86314114D01*
X69193115Y-86272357D01*
X69183315Y-86266969D01*
X68987988Y-86181225D01*
X68977389Y-86177658D01*
X68769960Y-86127859D01*
X68758898Y-86126226D01*
X68545935Y-86113946D01*
X68534751Y-86114298D01*
X68322981Y-86139926D01*
X68312044Y-86142250D01*
X68108148Y-86204976D01*
X68097804Y-86209197D01*
X67908235Y-86307042D01*
X67900117Y-86312194D01*
X67891943Y-86323389D01*
X64868825Y-86323389D01*
X64844566Y-86248731D01*
X64842524Y-86242446D01*
X64747037Y-86077058D01*
X64693984Y-86018136D01*
X64623673Y-85940048D01*
X64623672Y-85940047D01*
X64619251Y-85935137D01*
X64613909Y-85931256D01*
X64613907Y-85931254D01*
X64470092Y-85826767D01*
X64470091Y-85826766D01*
X64464750Y-85822886D01*
X64458722Y-85820202D01*
X64458720Y-85820201D01*
X64296318Y-85747895D01*
X64296317Y-85747895D01*
X64290287Y-85745210D01*
X64196887Y-85725357D01*
X64109944Y-85706876D01*
X64109939Y-85706876D01*
X64103487Y-85705504D01*
X63912513Y-85705504D01*
X63906061Y-85706876D01*
X63906056Y-85706876D01*
X63819113Y-85725357D01*
X63725713Y-85745210D01*
X63719683Y-85747895D01*
X63719682Y-85747895D01*
X63557280Y-85820201D01*
X63557278Y-85820202D01*
X63551250Y-85822886D01*
X63545909Y-85826766D01*
X63545908Y-85826767D01*
X63402093Y-85931254D01*
X63402091Y-85931256D01*
X63396749Y-85935137D01*
X63392328Y-85940047D01*
X63387425Y-85944462D01*
X63386299Y-85943211D01*
X63333000Y-85976049D01*
X63299806Y-85980500D01*
X61663413Y-85980500D01*
X61595292Y-85960498D01*
X61548799Y-85906842D01*
X61538695Y-85836568D01*
X61568189Y-85771988D01*
X61571253Y-85768865D01*
X61571251Y-85768863D01*
X61694618Y-85631850D01*
X61694619Y-85631849D01*
X61699037Y-85626942D01*
X61794524Y-85461554D01*
X61853538Y-85279927D01*
X61873500Y-85090000D01*
X61873125Y-85086429D01*
X61892812Y-85019379D01*
X61946468Y-84972886D01*
X61998810Y-84961500D01*
X70533617Y-84961500D01*
X70544521Y-84962014D01*
X70551912Y-84963666D01*
X70559837Y-84963417D01*
X70559838Y-84963417D01*
X70618853Y-84961562D01*
X70622811Y-84961500D01*
X70651578Y-84961500D01*
X70651578Y-84961603D01*
X70683109Y-84963918D01*
X70764049Y-84981123D01*
X70764058Y-84981124D01*
X70770513Y-84982496D01*
X70961487Y-84982496D01*
X70967939Y-84981124D01*
X70967944Y-84981124D01*
X71060264Y-84961500D01*
X71148287Y-84942790D01*
X71154318Y-84940105D01*
X71316720Y-84867799D01*
X71316722Y-84867798D01*
X71322750Y-84865114D01*
X71371858Y-84829435D01*
X71471907Y-84756746D01*
X71471909Y-84756744D01*
X71477251Y-84752863D01*
X71605037Y-84610942D01*
X71694493Y-84456000D01*
X71697220Y-84451277D01*
X71697221Y-84451276D01*
X71700524Y-84445554D01*
X71745960Y-84305717D01*
X71757498Y-84270206D01*
X71757498Y-84270205D01*
X71759538Y-84263927D01*
X71779500Y-84074000D01*
X71778810Y-84067435D01*
X71778810Y-84060830D01*
X71780763Y-84060830D01*
X71791862Y-84000177D01*
X71840370Y-83948336D01*
X71878197Y-83933611D01*
X71903829Y-83928163D01*
X71903832Y-83928162D01*
X71910287Y-83926790D01*
X71916318Y-83924105D01*
X72078720Y-83851799D01*
X72078722Y-83851798D01*
X72084750Y-83849114D01*
X72090092Y-83845233D01*
X72233907Y-83740746D01*
X72233909Y-83740744D01*
X72239251Y-83736863D01*
X72307262Y-83661329D01*
X72362618Y-83599850D01*
X72362619Y-83599849D01*
X72367037Y-83594942D01*
X72405065Y-83529074D01*
X79951300Y-83529074D01*
X80007259Y-83681165D01*
X80012821Y-83692571D01*
X80108662Y-83847147D01*
X80116411Y-83857208D01*
X80241367Y-83989345D01*
X80250987Y-83997649D01*
X80399962Y-84101962D01*
X80411050Y-84108159D01*
X80577962Y-84180389D01*
X80590065Y-84184228D01*
X80769594Y-84221734D01*
X80778862Y-84222937D01*
X80781253Y-84223000D01*
X81352885Y-84223000D01*
X81368124Y-84218525D01*
X81369329Y-84217135D01*
X81371000Y-84209452D01*
X81371000Y-84204885D01*
X81878999Y-84204885D01*
X81883474Y-84220124D01*
X81884864Y-84221329D01*
X81892547Y-84223000D01*
X82421028Y-84223000D01*
X82427403Y-84222677D01*
X82562289Y-84208976D01*
X82574729Y-84206422D01*
X82748267Y-84152038D01*
X82759955Y-84147029D01*
X82919013Y-84058862D01*
X82929446Y-84051611D01*
X83067533Y-83933256D01*
X83076286Y-83924065D01*
X83187757Y-83780356D01*
X83194490Y-83769582D01*
X83274784Y-83606404D01*
X83279212Y-83594497D01*
X83294311Y-83536531D01*
X83294082Y-83529074D01*
X83681300Y-83529074D01*
X83737259Y-83681165D01*
X83742821Y-83692571D01*
X83838662Y-83847147D01*
X83846411Y-83857208D01*
X83971367Y-83989345D01*
X83980987Y-83997649D01*
X84129962Y-84101962D01*
X84141050Y-84108159D01*
X84307962Y-84180389D01*
X84320065Y-84184228D01*
X84499594Y-84221734D01*
X84508862Y-84222937D01*
X84511253Y-84223000D01*
X84732885Y-84223000D01*
X84748124Y-84218525D01*
X84749329Y-84217135D01*
X84751000Y-84209452D01*
X84751001Y-83537115D01*
X84746526Y-83521876D01*
X84745136Y-83520671D01*
X84737453Y-83519000D01*
X83695708Y-83518999D01*
X83682177Y-83522972D01*
X83681300Y-83529074D01*
X83294082Y-83529074D01*
X83293877Y-83522436D01*
X83285696Y-83519000D01*
X81897115Y-83518999D01*
X81881876Y-83523474D01*
X81880671Y-83524864D01*
X81879000Y-83532547D01*
X81878999Y-84204885D01*
X81371000Y-84204885D01*
X81371001Y-83537115D01*
X81366526Y-83521876D01*
X81365136Y-83520671D01*
X81357453Y-83519000D01*
X79965708Y-83518999D01*
X79952177Y-83522972D01*
X79951300Y-83529074D01*
X72405065Y-83529074D01*
X72462524Y-83429554D01*
X72498586Y-83318565D01*
X72519498Y-83254206D01*
X72519498Y-83254205D01*
X72521538Y-83247927D01*
X72541500Y-83058000D01*
X72531782Y-82965538D01*
X72522228Y-82874637D01*
X72522228Y-82874636D01*
X72521538Y-82868073D01*
X72508266Y-82827224D01*
X72481710Y-82745496D01*
X72462524Y-82686446D01*
X72459087Y-82680492D01*
X72387208Y-82555995D01*
X72367037Y-82521058D01*
X72313370Y-82461454D01*
X72243673Y-82384048D01*
X72243672Y-82384047D01*
X72239251Y-82379137D01*
X72233909Y-82375256D01*
X72233907Y-82375254D01*
X72090092Y-82270767D01*
X72090091Y-82270766D01*
X72084750Y-82266886D01*
X72078722Y-82264202D01*
X72078720Y-82264201D01*
X71916318Y-82191895D01*
X71916317Y-82191895D01*
X71910287Y-82189210D01*
X71816887Y-82169357D01*
X71729944Y-82150876D01*
X71729939Y-82150876D01*
X71723487Y-82149504D01*
X71532513Y-82149504D01*
X71526061Y-82150876D01*
X71526056Y-82150876D01*
X71439113Y-82169357D01*
X71345713Y-82189210D01*
X71339683Y-82191895D01*
X71339682Y-82191895D01*
X71177280Y-82264201D01*
X71177278Y-82264202D01*
X71171250Y-82266886D01*
X71165909Y-82270766D01*
X71165908Y-82270767D01*
X71022093Y-82375254D01*
X71022091Y-82375256D01*
X71016749Y-82379137D01*
X71012328Y-82384047D01*
X71012327Y-82384048D01*
X70942631Y-82461454D01*
X70888963Y-82521058D01*
X70868792Y-82555995D01*
X70834437Y-82615500D01*
X70783055Y-82664493D01*
X70725318Y-82678500D01*
X70558194Y-82678500D01*
X70490073Y-82658498D01*
X70470849Y-82642158D01*
X70470575Y-82642462D01*
X70465672Y-82638047D01*
X70461251Y-82633137D01*
X70455909Y-82629256D01*
X70455907Y-82629254D01*
X70312092Y-82524767D01*
X70312091Y-82524766D01*
X70306750Y-82520886D01*
X70300724Y-82518203D01*
X70300717Y-82518199D01*
X70270989Y-82504964D01*
X70216893Y-82458984D01*
X70196243Y-82391057D01*
X70215595Y-82322749D01*
X70233142Y-82300762D01*
X70570521Y-81963383D01*
X70578599Y-81956032D01*
X70584993Y-81951974D01*
X70602695Y-81933124D01*
X70630859Y-81903132D01*
X70633614Y-81900290D01*
X70653936Y-81879968D01*
X70656579Y-81876561D01*
X70664288Y-81867534D01*
X70672682Y-81858596D01*
X70694556Y-81835302D01*
X70698375Y-81828356D01*
X70698377Y-81828353D01*
X70704318Y-81817547D01*
X70711625Y-81806423D01*
X75630255Y-81806423D01*
X75638638Y-81858471D01*
X75641212Y-81868793D01*
X75712230Y-82076810D01*
X75716497Y-82086533D01*
X75821556Y-82279625D01*
X75827402Y-82288491D01*
X75963486Y-82461113D01*
X75970750Y-82468875D01*
X76133967Y-82616094D01*
X76142444Y-82622528D01*
X76328122Y-82740136D01*
X76337567Y-82745053D01*
X76540406Y-82829694D01*
X76550545Y-82832950D01*
X76690345Y-82865096D01*
X76704422Y-82864257D01*
X76708000Y-82854999D01*
X76708000Y-81806115D01*
X76703525Y-81790876D01*
X76702135Y-81789671D01*
X76694452Y-81788000D01*
X75645403Y-81788000D01*
X75632222Y-81791870D01*
X75630255Y-81806423D01*
X70711625Y-81806423D01*
X70715170Y-81801027D01*
X70718773Y-81796381D01*
X70727582Y-81785025D01*
X70745138Y-81744455D01*
X70750361Y-81733793D01*
X70767842Y-81701996D01*
X70767842Y-81701995D01*
X70771661Y-81695049D01*
X70774599Y-81683608D01*
X70776701Y-81675424D01*
X70783102Y-81656726D01*
X70783391Y-81656058D01*
X70791146Y-81638137D01*
X70798062Y-81594473D01*
X70800469Y-81582852D01*
X70809986Y-81545783D01*
X70809986Y-81545782D01*
X70811464Y-81540026D01*
X70811499Y-81539470D01*
X70811499Y-81519548D01*
X70813050Y-81499837D01*
X70814943Y-81487885D01*
X70816183Y-81480057D01*
X70815437Y-81472163D01*
X70815629Y-81466045D01*
X70837760Y-81398586D01*
X70847931Y-81385691D01*
X70912617Y-81313850D01*
X70912618Y-81313849D01*
X70917036Y-81308942D01*
X70994832Y-81174196D01*
X71009219Y-81149277D01*
X71009220Y-81149276D01*
X71012523Y-81143554D01*
X71050520Y-81026612D01*
X71069497Y-80968206D01*
X71069497Y-80968205D01*
X71071537Y-80961927D01*
X71080096Y-80880498D01*
X71090809Y-80778565D01*
X71091499Y-80772000D01*
X71082396Y-80685386D01*
X71072227Y-80588637D01*
X71072227Y-80588636D01*
X71071537Y-80582073D01*
X71062557Y-80554435D01*
X71060529Y-80483469D01*
X71097191Y-80422671D01*
X71160903Y-80391346D01*
X71182390Y-80389500D01*
X75877883Y-80389500D01*
X75946004Y-80409502D01*
X75992497Y-80463158D01*
X76002601Y-80533432D01*
X75975317Y-80595391D01*
X75842100Y-80757860D01*
X75836075Y-80766627D01*
X75727342Y-80957644D01*
X75722877Y-80967308D01*
X75647882Y-81173916D01*
X75645111Y-81184184D01*
X75631008Y-81262174D01*
X75632427Y-81275414D01*
X75647062Y-81280000D01*
X77090000Y-81280000D01*
X77158121Y-81300002D01*
X77204614Y-81353658D01*
X77216000Y-81406000D01*
X77216000Y-82853941D01*
X77220151Y-82868079D01*
X77230798Y-82869774D01*
X77234192Y-82869096D01*
X77445333Y-82807954D01*
X77455259Y-82804143D01*
X77653065Y-82708307D01*
X77662212Y-82702876D01*
X77841041Y-82575083D01*
X77849149Y-82568182D01*
X78003893Y-82412082D01*
X78010706Y-82403933D01*
X78136940Y-82223988D01*
X78142295Y-82214787D01*
X78236399Y-82016156D01*
X78240123Y-82006197D01*
X78285526Y-81844131D01*
X78323163Y-81783931D01*
X78387372Y-81753636D01*
X78457766Y-81762865D01*
X78480915Y-81776184D01*
X78491577Y-81783931D01*
X78526871Y-81809573D01*
X78537250Y-81817114D01*
X78543278Y-81819798D01*
X78543280Y-81819799D01*
X78705682Y-81892105D01*
X78711713Y-81894790D01*
X78804675Y-81914550D01*
X78892056Y-81933124D01*
X78892061Y-81933124D01*
X78898513Y-81934496D01*
X79089487Y-81934496D01*
X79095939Y-81933124D01*
X79095944Y-81933124D01*
X79183325Y-81914550D01*
X79276287Y-81894790D01*
X79286824Y-81890099D01*
X79450750Y-81817114D01*
X79451834Y-81819549D01*
X79508219Y-81805630D01*
X79662274Y-81811780D01*
X79665988Y-81811928D01*
X79733257Y-81834632D01*
X79777572Y-81890099D01*
X79786961Y-81938267D01*
X79786752Y-81998378D01*
X79788171Y-82011884D01*
X79824677Y-82180731D01*
X79828961Y-82193610D01*
X79877390Y-82299387D01*
X79886635Y-82310036D01*
X79892474Y-82308315D01*
X80279886Y-81920903D01*
X80342198Y-81886877D01*
X80403287Y-81888759D01*
X80500995Y-81916408D01*
X80507801Y-81916812D01*
X80507805Y-81916813D01*
X80588531Y-81921608D01*
X80683032Y-81927222D01*
X80683034Y-81927223D01*
X80687182Y-81927469D01*
X80687138Y-81928213D01*
X80751056Y-81943638D01*
X80800111Y-81994962D01*
X80813631Y-82064660D01*
X80787323Y-82130602D01*
X80777282Y-82141929D01*
X80271049Y-82648161D01*
X80208737Y-82682186D01*
X80137921Y-82677121D01*
X80127154Y-82672203D01*
X80115881Y-82680492D01*
X80062245Y-82749641D01*
X80055510Y-82760419D01*
X79975216Y-82923596D01*
X79970788Y-82935503D01*
X79955689Y-82993469D01*
X79956123Y-83007564D01*
X79964304Y-83011000D01*
X81352885Y-83011001D01*
X81368124Y-83006526D01*
X81369329Y-83005136D01*
X81371000Y-82997453D01*
X81371001Y-82393000D01*
X81391003Y-82324879D01*
X81444659Y-82278386D01*
X81497001Y-82267000D01*
X81753000Y-82267000D01*
X81821121Y-82287002D01*
X81867614Y-82340658D01*
X81879000Y-82393000D01*
X81878999Y-82992885D01*
X81883474Y-83008124D01*
X81884864Y-83009329D01*
X81892547Y-83011000D01*
X83284292Y-83011001D01*
X83297823Y-83007028D01*
X83298700Y-83000926D01*
X83295957Y-82993469D01*
X83685689Y-82993469D01*
X83686123Y-83007564D01*
X83694304Y-83011000D01*
X84732885Y-83011001D01*
X84748124Y-83006526D01*
X84749329Y-83005136D01*
X84751000Y-82997453D01*
X84751001Y-82325115D01*
X84746526Y-82309876D01*
X84745136Y-82308671D01*
X84737453Y-82307000D01*
X84558972Y-82307000D01*
X84552597Y-82307323D01*
X84417711Y-82321024D01*
X84405271Y-82323578D01*
X84231733Y-82377962D01*
X84220045Y-82382971D01*
X84060987Y-82471138D01*
X84050554Y-82478389D01*
X83912467Y-82596744D01*
X83903714Y-82605935D01*
X83792243Y-82749644D01*
X83785510Y-82760418D01*
X83705216Y-82923596D01*
X83700788Y-82935503D01*
X83685689Y-82993469D01*
X83295957Y-82993469D01*
X83242741Y-82848835D01*
X83237179Y-82837429D01*
X83141338Y-82682853D01*
X83133589Y-82672792D01*
X83008633Y-82540655D01*
X82999013Y-82532351D01*
X82850035Y-82428035D01*
X82837760Y-82421175D01*
X82788054Y-82370482D01*
X82773646Y-82300963D01*
X82780095Y-82270166D01*
X82834332Y-82112648D01*
X82837338Y-82099420D01*
X82857575Y-81924515D01*
X82857961Y-81918012D01*
X82857621Y-81911507D01*
X82849022Y-81832354D01*
X82861550Y-81762471D01*
X82905195Y-81713377D01*
X82913939Y-81707645D01*
X82917627Y-81705318D01*
X82975211Y-81670375D01*
X82975213Y-81670373D01*
X82980006Y-81667465D01*
X82989292Y-81659264D01*
X82991873Y-81657046D01*
X82994625Y-81654744D01*
X83000747Y-81650731D01*
X83049875Y-81598871D01*
X83052252Y-81596429D01*
X83547677Y-81101004D01*
X83562090Y-81088617D01*
X83572807Y-81080730D01*
X83578706Y-81076389D01*
X83611618Y-81037649D01*
X83618548Y-81030133D01*
X83624665Y-81024016D01*
X83626938Y-81021143D01*
X83626946Y-81021134D01*
X83643146Y-81000657D01*
X83645937Y-80997253D01*
X83688455Y-80947206D01*
X83688456Y-80947204D01*
X83693197Y-80941624D01*
X83696527Y-80935103D01*
X83699879Y-80930077D01*
X83703052Y-80924939D01*
X83707594Y-80919198D01*
X83738518Y-80853033D01*
X83740422Y-80849138D01*
X83773615Y-80784135D01*
X83775355Y-80777023D01*
X83777460Y-80771364D01*
X83779367Y-80765632D01*
X83782467Y-80758999D01*
X83797332Y-80687531D01*
X83798303Y-80683242D01*
X83814310Y-80617824D01*
X83815645Y-80612369D01*
X83816414Y-80599968D01*
X83816671Y-80596572D01*
X83816986Y-80593037D01*
X83818477Y-80585871D01*
X83816546Y-80514499D01*
X83816500Y-80511091D01*
X83816500Y-77281987D01*
X83817933Y-77263036D01*
X83819935Y-77249879D01*
X83819935Y-77249876D01*
X83821035Y-77242646D01*
X83816915Y-77191993D01*
X83816500Y-77181778D01*
X83816500Y-77173115D01*
X83813049Y-77143512D01*
X83812616Y-77139137D01*
X83807292Y-77073687D01*
X83806699Y-77066395D01*
X83804446Y-77059441D01*
X83803267Y-77053536D01*
X83801870Y-77047627D01*
X83801022Y-77040358D01*
X83776111Y-76971729D01*
X83774699Y-76967614D01*
X83754459Y-76905135D01*
X83754458Y-76905133D01*
X83752202Y-76898169D01*
X83748404Y-76891910D01*
X83745893Y-76886426D01*
X83743185Y-76881018D01*
X83740687Y-76874136D01*
X83721545Y-76844939D01*
X83700658Y-76813081D01*
X83698313Y-76809364D01*
X83663377Y-76751794D01*
X83660465Y-76746995D01*
X83652255Y-76737698D01*
X83650039Y-76735119D01*
X83647745Y-76732376D01*
X83643731Y-76726253D01*
X83591849Y-76677105D01*
X83589407Y-76674727D01*
X83240006Y-76325326D01*
X83227619Y-76310912D01*
X83219734Y-76300197D01*
X83219730Y-76300192D01*
X83215389Y-76294294D01*
X83176642Y-76261376D01*
X83169126Y-76254446D01*
X83163015Y-76248335D01*
X83139675Y-76229868D01*
X83136279Y-76227084D01*
X83086207Y-76184545D01*
X83086201Y-76184541D01*
X83080624Y-76179803D01*
X83074106Y-76176475D01*
X83069113Y-76173145D01*
X83063942Y-76169951D01*
X83058197Y-76165406D01*
X83013860Y-76144684D01*
X82992111Y-76134519D01*
X82988161Y-76132588D01*
X82925511Y-76100598D01*
X82873938Y-76051806D01*
X82856931Y-75982876D01*
X82857510Y-75975606D01*
X82857961Y-75968012D01*
X82857621Y-75961507D01*
X82838605Y-75786468D01*
X82835691Y-75773216D01*
X82778934Y-75604565D01*
X82776164Y-75533623D01*
X82812187Y-75472444D01*
X82837268Y-75454173D01*
X82919017Y-75408860D01*
X82929446Y-75401611D01*
X83067533Y-75283256D01*
X83076286Y-75274065D01*
X83187757Y-75130356D01*
X83194490Y-75119582D01*
X83274784Y-74956404D01*
X83279212Y-74944497D01*
X83294311Y-74886531D01*
X83294082Y-74879074D01*
X83681300Y-74879074D01*
X83737259Y-75031165D01*
X83742821Y-75042571D01*
X83838662Y-75197147D01*
X83846411Y-75207208D01*
X83971367Y-75339345D01*
X83980987Y-75347649D01*
X84129962Y-75451962D01*
X84141050Y-75458159D01*
X84307962Y-75530389D01*
X84320065Y-75534228D01*
X84499594Y-75571734D01*
X84508862Y-75572937D01*
X84511253Y-75573000D01*
X84732885Y-75573000D01*
X84748124Y-75568525D01*
X84749329Y-75567135D01*
X84751000Y-75559452D01*
X84751001Y-74887115D01*
X84746526Y-74871876D01*
X84745136Y-74870671D01*
X84737453Y-74869000D01*
X83695708Y-74868999D01*
X83682177Y-74872972D01*
X83681300Y-74879074D01*
X83294082Y-74879074D01*
X83293877Y-74872436D01*
X83285696Y-74869000D01*
X81897115Y-74868999D01*
X81881876Y-74873474D01*
X81880671Y-74874864D01*
X81879000Y-74882547D01*
X81878999Y-75487000D01*
X81858997Y-75555121D01*
X81805341Y-75601614D01*
X81752999Y-75613000D01*
X81497000Y-75613000D01*
X81428879Y-75592998D01*
X81382386Y-75539342D01*
X81371000Y-75487000D01*
X81371001Y-74887115D01*
X81366526Y-74871876D01*
X81365136Y-74870671D01*
X81357453Y-74869000D01*
X79965708Y-74868999D01*
X79952177Y-74872972D01*
X79951300Y-74879074D01*
X80007259Y-75031165D01*
X80012821Y-75042571D01*
X80108660Y-75197142D01*
X80113448Y-75203360D01*
X80125667Y-75210481D01*
X80139941Y-75209860D01*
X80185839Y-75197075D01*
X80253674Y-75218025D01*
X80273179Y-75233968D01*
X80777219Y-75738009D01*
X80811244Y-75800321D01*
X80806179Y-75871137D01*
X80763632Y-75927972D01*
X80697112Y-75952783D01*
X80693200Y-75952813D01*
X80693202Y-75952846D01*
X80506943Y-75962608D01*
X80402374Y-75991411D01*
X80331387Y-75990217D01*
X80279819Y-75959030D01*
X79897980Y-75577191D01*
X79885600Y-75570431D01*
X79880601Y-75574173D01*
X79830924Y-75680704D01*
X79826554Y-75693543D01*
X79788868Y-75862137D01*
X79786980Y-75878967D01*
X79759509Y-75944434D01*
X79701005Y-75984656D01*
X79653616Y-75990658D01*
X79578767Y-75985807D01*
X79512856Y-75962008D01*
X79456089Y-75920765D01*
X79450750Y-75916886D01*
X79444722Y-75914202D01*
X79282318Y-75841895D01*
X79282317Y-75841895D01*
X79276287Y-75839210D01*
X79165466Y-75815654D01*
X79095944Y-75800876D01*
X79095939Y-75800876D01*
X79089487Y-75799504D01*
X79081034Y-75799504D01*
X79080003Y-75799201D01*
X79076318Y-75798814D01*
X79076389Y-75798140D01*
X79012913Y-75779502D01*
X78966420Y-75725846D01*
X78956316Y-75655572D01*
X78971913Y-75610507D01*
X79004250Y-75554499D01*
X79063264Y-75372872D01*
X79083226Y-75182945D01*
X79069676Y-75054026D01*
X79063954Y-74999582D01*
X79063954Y-74999581D01*
X79063264Y-74993018D01*
X79060608Y-74984842D01*
X79015776Y-74846865D01*
X79004250Y-74811391D01*
X78999406Y-74803000D01*
X78942891Y-74705114D01*
X78908763Y-74646003D01*
X78839619Y-74569210D01*
X78785399Y-74508993D01*
X78785398Y-74508992D01*
X78780977Y-74504082D01*
X78775635Y-74500201D01*
X78775633Y-74500199D01*
X78631818Y-74395712D01*
X78631817Y-74395711D01*
X78626476Y-74391831D01*
X78620448Y-74389147D01*
X78620446Y-74389146D01*
X78517854Y-74343469D01*
X79955689Y-74343469D01*
X79956123Y-74357564D01*
X79964304Y-74361000D01*
X81352885Y-74361001D01*
X81368124Y-74356526D01*
X81369329Y-74355136D01*
X81371000Y-74347453D01*
X81371000Y-74342885D01*
X81878999Y-74342885D01*
X81883474Y-74358124D01*
X81884864Y-74359329D01*
X81892547Y-74361000D01*
X83284292Y-74361001D01*
X83297823Y-74357028D01*
X83298700Y-74350926D01*
X83295957Y-74343469D01*
X83685689Y-74343469D01*
X83686123Y-74357564D01*
X83694304Y-74361000D01*
X84732885Y-74361001D01*
X84748124Y-74356526D01*
X84749329Y-74355136D01*
X84751000Y-74347453D01*
X84751001Y-73675115D01*
X84746526Y-73659876D01*
X84745136Y-73658671D01*
X84737453Y-73657000D01*
X84558972Y-73657000D01*
X84552597Y-73657323D01*
X84417711Y-73671024D01*
X84405271Y-73673578D01*
X84231733Y-73727962D01*
X84220045Y-73732971D01*
X84060987Y-73821138D01*
X84050554Y-73828389D01*
X83912467Y-73946744D01*
X83903714Y-73955935D01*
X83792243Y-74099644D01*
X83785510Y-74110418D01*
X83705216Y-74273596D01*
X83700788Y-74285503D01*
X83685689Y-74343469D01*
X83295957Y-74343469D01*
X83242741Y-74198835D01*
X83237179Y-74187429D01*
X83141338Y-74032853D01*
X83133589Y-74022792D01*
X83008633Y-73890655D01*
X82999013Y-73882351D01*
X82850038Y-73778038D01*
X82838950Y-73771841D01*
X82672038Y-73699611D01*
X82659935Y-73695772D01*
X82480406Y-73658266D01*
X82471138Y-73657063D01*
X82468747Y-73657000D01*
X81897115Y-73657000D01*
X81881876Y-73661475D01*
X81880671Y-73662865D01*
X81879000Y-73670548D01*
X81878999Y-74342885D01*
X81371000Y-74342885D01*
X81371001Y-73675115D01*
X81366526Y-73659876D01*
X81365136Y-73658671D01*
X81357453Y-73657000D01*
X80828972Y-73657000D01*
X80822597Y-73657323D01*
X80687711Y-73671024D01*
X80675271Y-73673578D01*
X80501733Y-73727962D01*
X80490045Y-73732971D01*
X80330987Y-73821138D01*
X80320554Y-73828389D01*
X80182467Y-73946744D01*
X80173714Y-73955935D01*
X80062243Y-74099644D01*
X80055510Y-74110418D01*
X79975216Y-74273596D01*
X79970788Y-74285503D01*
X79955689Y-74343469D01*
X78517854Y-74343469D01*
X78458044Y-74316840D01*
X78458043Y-74316840D01*
X78452013Y-74314155D01*
X78400738Y-74303256D01*
X78338264Y-74269527D01*
X78303943Y-74207378D01*
X78301614Y-74166948D01*
X78325249Y-73940176D01*
X78325500Y-73914000D01*
X78324943Y-73907435D01*
X78306458Y-73689576D01*
X78306457Y-73689572D01*
X78306007Y-73684265D01*
X78302571Y-73671024D01*
X78249426Y-73466269D01*
X78248084Y-73461098D01*
X78238513Y-73439850D01*
X78155578Y-73255743D01*
X78155577Y-73255741D01*
X78153388Y-73250882D01*
X78024627Y-73059626D01*
X78009246Y-73043502D01*
X77925579Y-72955797D01*
X77865482Y-72892799D01*
X77680504Y-72755171D01*
X77675743Y-72752751D01*
X77672425Y-72750693D01*
X77625071Y-72697796D01*
X77613832Y-72627695D01*
X77642277Y-72562645D01*
X77665564Y-72541093D01*
X77712497Y-72507554D01*
X77845711Y-72412357D01*
X77947953Y-72309220D01*
X78004277Y-72252403D01*
X78004278Y-72252402D01*
X78008030Y-72248617D01*
X78096529Y-72122462D01*
X78137375Y-72064236D01*
X78137376Y-72064234D01*
X78140439Y-72059868D01*
X78141213Y-72060411D01*
X78189173Y-72014998D01*
X78246521Y-72001191D01*
X82289096Y-72001191D01*
X82357217Y-72021193D01*
X82399773Y-72066971D01*
X82427685Y-72118271D01*
X82570424Y-72299335D01*
X82574389Y-72302911D01*
X82737659Y-72450180D01*
X82737665Y-72450185D01*
X82741629Y-72453760D01*
X82746142Y-72456619D01*
X82746144Y-72456620D01*
X82752486Y-72460637D01*
X82936406Y-72577130D01*
X83149184Y-72665919D01*
X83154387Y-72667116D01*
X83154392Y-72667117D01*
X83368678Y-72716392D01*
X83368683Y-72716393D01*
X83373881Y-72717588D01*
X83379209Y-72717891D01*
X83379212Y-72717891D01*
X83519275Y-72725844D01*
X83604071Y-72730659D01*
X83609378Y-72730059D01*
X83609380Y-72730059D01*
X83730272Y-72716392D01*
X83833173Y-72704759D01*
X83838288Y-72703278D01*
X83838292Y-72703277D01*
X83967298Y-72665919D01*
X84054635Y-72640628D01*
X84262125Y-72540100D01*
X84266463Y-72537000D01*
X84266468Y-72536997D01*
X84445370Y-72409150D01*
X84449711Y-72406048D01*
X84612030Y-72242308D01*
X84710352Y-72102150D01*
X84741375Y-72057927D01*
X84741376Y-72057925D01*
X84744439Y-72053559D01*
X84843153Y-71845199D01*
X84905349Y-71623185D01*
X84907882Y-71598886D01*
X84919972Y-71482876D01*
X84929249Y-71393867D01*
X84929500Y-71367691D01*
X84922981Y-71290863D01*
X84910458Y-71143267D01*
X84910457Y-71143263D01*
X84910007Y-71137956D01*
X84852084Y-70914789D01*
X84845355Y-70899850D01*
X84759578Y-70709434D01*
X84759577Y-70709432D01*
X84757388Y-70704573D01*
X84628627Y-70513317D01*
X84469482Y-70346490D01*
X84284504Y-70208862D01*
X84279743Y-70206442D01*
X84276425Y-70204384D01*
X84229071Y-70151487D01*
X84217832Y-70081386D01*
X84246277Y-70016336D01*
X84269564Y-69994784D01*
X84320341Y-69958498D01*
X84449711Y-69866048D01*
X84569854Y-69744853D01*
X84608277Y-69706094D01*
X84608278Y-69706093D01*
X84612030Y-69702308D01*
X84744439Y-69513559D01*
X84843153Y-69305199D01*
X84905349Y-69083185D01*
X84929249Y-68853867D01*
X84929500Y-68827691D01*
X84929250Y-68824743D01*
X84910458Y-68603267D01*
X84910457Y-68603263D01*
X84910007Y-68597956D01*
X84907051Y-68586565D01*
X84856051Y-68390073D01*
X84852084Y-68374789D01*
X84843361Y-68355423D01*
X84759578Y-68169434D01*
X84759577Y-68169432D01*
X84757388Y-68164573D01*
X84628627Y-67973317D01*
X84469482Y-67806490D01*
X84445822Y-67788886D01*
X84345030Y-67713895D01*
X84284504Y-67668862D01*
X84279743Y-67666442D01*
X84276425Y-67664384D01*
X84229071Y-67611487D01*
X84217832Y-67541386D01*
X84246277Y-67476336D01*
X84269564Y-67454784D01*
X84370114Y-67382929D01*
X84449711Y-67326048D01*
X84612030Y-67162308D01*
X84699262Y-67037959D01*
X84741375Y-66977927D01*
X84741376Y-66977925D01*
X84744439Y-66973559D01*
X84843153Y-66765199D01*
X84905349Y-66543185D01*
X84929249Y-66313867D01*
X84929500Y-66287691D01*
X84928511Y-66276039D01*
X84910458Y-66063267D01*
X84910457Y-66063263D01*
X84910007Y-66057956D01*
X84906013Y-66042565D01*
X84867581Y-65894498D01*
X84852084Y-65834789D01*
X84833064Y-65792565D01*
X84759578Y-65629434D01*
X84759577Y-65629432D01*
X84757388Y-65624573D01*
X84628627Y-65433317D01*
X84610625Y-65414446D01*
X84496484Y-65294795D01*
X84463937Y-65231698D01*
X84470669Y-65161021D01*
X84514543Y-65105204D01*
X84552156Y-65086927D01*
X84620458Y-65066872D01*
X84636692Y-65059458D01*
X84744360Y-64990265D01*
X84757847Y-64978579D01*
X84841662Y-64881851D01*
X84851307Y-64866843D01*
X84904477Y-64750416D01*
X84909502Y-64733303D01*
X84928361Y-64602137D01*
X84929000Y-64593196D01*
X84929000Y-64019806D01*
X84924525Y-64004567D01*
X84923135Y-64003362D01*
X84915452Y-64001691D01*
X83438000Y-64001691D01*
X83369879Y-63981689D01*
X83323386Y-63928033D01*
X83312000Y-63875691D01*
X83312000Y-62402806D01*
X83310659Y-62398239D01*
X83820000Y-62398239D01*
X83820000Y-63475576D01*
X83824475Y-63490815D01*
X83825865Y-63492020D01*
X83833548Y-63493691D01*
X84910885Y-63493691D01*
X84926124Y-63489216D01*
X84927329Y-63487826D01*
X84929000Y-63480143D01*
X84929000Y-62899948D01*
X84928839Y-62895441D01*
X84924260Y-62831422D01*
X84921874Y-62818200D01*
X84885181Y-62693233D01*
X84877767Y-62676999D01*
X84808574Y-62569331D01*
X84796888Y-62555844D01*
X84700160Y-62472029D01*
X84685152Y-62462384D01*
X84568725Y-62409214D01*
X84551612Y-62404189D01*
X84420446Y-62385330D01*
X84411505Y-62384691D01*
X83838115Y-62384691D01*
X83822876Y-62389166D01*
X83821671Y-62390556D01*
X83820000Y-62398239D01*
X83310659Y-62398239D01*
X83307525Y-62387567D01*
X83306135Y-62386362D01*
X83298452Y-62384691D01*
X82718257Y-62384691D01*
X82713750Y-62384852D01*
X82649731Y-62389431D01*
X82636509Y-62391817D01*
X82511542Y-62428510D01*
X82495308Y-62435924D01*
X82387640Y-62505117D01*
X82374153Y-62516803D01*
X82290338Y-62613531D01*
X82280693Y-62628539D01*
X82227523Y-62744966D01*
X82222498Y-62762079D01*
X82203639Y-62893245D01*
X82203000Y-62902186D01*
X82203000Y-63547820D01*
X82182998Y-63615941D01*
X82129342Y-63662434D01*
X82059068Y-63672538D01*
X81994488Y-63643044D01*
X81987905Y-63636915D01*
X80315314Y-61964325D01*
X80302927Y-61949911D01*
X80295042Y-61939196D01*
X80295038Y-61939191D01*
X80290697Y-61933293D01*
X80251950Y-61900375D01*
X80244434Y-61893445D01*
X80238323Y-61887334D01*
X80214983Y-61868867D01*
X80211587Y-61866083D01*
X80161515Y-61823544D01*
X80161509Y-61823540D01*
X80155932Y-61818802D01*
X80149414Y-61815474D01*
X80144421Y-61812144D01*
X80139250Y-61808950D01*
X80133505Y-61804405D01*
X80071283Y-61775324D01*
X80067419Y-61773518D01*
X80063469Y-61771587D01*
X80004963Y-61741713D01*
X80004961Y-61741712D01*
X79998443Y-61738384D01*
X79991334Y-61736644D01*
X79985719Y-61734556D01*
X79979941Y-61732634D01*
X79973306Y-61729533D01*
X79901853Y-61714671D01*
X79897587Y-61713705D01*
X79826678Y-61696354D01*
X79821078Y-61696007D01*
X79821074Y-61696006D01*
X79814269Y-61695584D01*
X79810878Y-61695327D01*
X79807337Y-61695011D01*
X79800178Y-61693522D01*
X79733471Y-61695327D01*
X79728814Y-61695453D01*
X79725406Y-61695499D01*
X75817986Y-61695499D01*
X75799035Y-61694066D01*
X75785878Y-61692064D01*
X75785875Y-61692064D01*
X75778645Y-61690964D01*
X75771353Y-61691557D01*
X75771350Y-61691557D01*
X75727992Y-61695084D01*
X75717777Y-61695499D01*
X75709113Y-61695499D01*
X75705479Y-61695923D01*
X75705473Y-61695923D01*
X75695532Y-61697082D01*
X75679484Y-61698953D01*
X75675157Y-61699381D01*
X75645993Y-61701753D01*
X75609691Y-61704706D01*
X75609687Y-61704707D01*
X75602394Y-61705300D01*
X75595433Y-61707555D01*
X75589502Y-61708740D01*
X75583626Y-61710129D01*
X75576356Y-61710977D01*
X75507721Y-61735890D01*
X75503617Y-61737298D01*
X75489990Y-61741713D01*
X75441133Y-61757540D01*
X75441128Y-61757542D01*
X75434168Y-61759797D01*
X75427910Y-61763594D01*
X75422425Y-61766106D01*
X75417019Y-61768813D01*
X75410135Y-61771312D01*
X75349066Y-61811350D01*
X75345384Y-61813673D01*
X75282993Y-61851534D01*
X75278785Y-61855250D01*
X75278781Y-61855253D01*
X75273678Y-61859759D01*
X75271099Y-61861976D01*
X75268375Y-61864254D01*
X75262252Y-61868268D01*
X75257217Y-61873583D01*
X75213139Y-61920113D01*
X75210761Y-61922555D01*
X74526093Y-62607223D01*
X74463781Y-62641249D01*
X74392966Y-62636184D01*
X74347903Y-62607223D01*
X74243006Y-62502326D01*
X74230619Y-62487912D01*
X74222734Y-62477197D01*
X74222730Y-62477192D01*
X74218389Y-62471294D01*
X74179642Y-62438376D01*
X74172126Y-62431446D01*
X74166015Y-62425335D01*
X74142675Y-62406868D01*
X74139279Y-62404084D01*
X74089207Y-62361545D01*
X74089201Y-62361541D01*
X74083624Y-62356803D01*
X74077106Y-62353475D01*
X74072113Y-62350145D01*
X74066942Y-62346951D01*
X74061197Y-62342406D01*
X74016860Y-62321684D01*
X73995111Y-62311519D01*
X73991161Y-62309588D01*
X73932655Y-62279714D01*
X73932653Y-62279713D01*
X73926135Y-62276385D01*
X73919026Y-62274645D01*
X73913411Y-62272557D01*
X73907633Y-62270635D01*
X73900998Y-62267534D01*
X73829545Y-62252672D01*
X73825279Y-62251706D01*
X73754370Y-62234355D01*
X73748770Y-62234008D01*
X73748766Y-62234007D01*
X73741961Y-62233585D01*
X73738570Y-62233328D01*
X73735029Y-62233012D01*
X73727870Y-62231523D01*
X73661163Y-62233328D01*
X73656506Y-62233454D01*
X73653098Y-62233500D01*
X67733317Y-62233500D01*
X67665196Y-62213498D01*
X67618703Y-62159842D01*
X67608599Y-62089568D01*
X67638093Y-62024988D01*
X67690223Y-61989099D01*
X67703771Y-61984168D01*
X67706671Y-61983309D01*
X67710307Y-61983000D01*
X67718677Y-61979762D01*
X67720990Y-61979228D01*
X67749330Y-61976000D01*
X69088000Y-61976000D01*
X69088000Y-56247545D01*
X71143405Y-56247545D01*
X71143405Y-56528455D01*
X71182500Y-56806630D01*
X71259929Y-57076658D01*
X71261715Y-57080670D01*
X71261716Y-57080672D01*
X71283922Y-57130547D01*
X71374185Y-57333281D01*
X71523044Y-57571506D01*
X71525868Y-57574872D01*
X71525872Y-57574877D01*
X71612982Y-57678690D01*
X71703609Y-57786695D01*
X71912366Y-57974660D01*
X71916012Y-57977119D01*
X72141605Y-58129284D01*
X72141611Y-58129287D01*
X72145250Y-58131742D01*
X72276008Y-58195517D01*
X72393772Y-58252955D01*
X72393777Y-58252957D01*
X72397730Y-58254885D01*
X72664890Y-58341690D01*
X72790224Y-58363790D01*
X72937203Y-58389707D01*
X72937208Y-58389707D01*
X72941532Y-58390470D01*
X72945922Y-58390623D01*
X72945929Y-58390624D01*
X73217876Y-58400120D01*
X73217882Y-58400120D01*
X73222270Y-58400273D01*
X73226636Y-58399814D01*
X73226639Y-58399814D01*
X73497268Y-58371370D01*
X73497273Y-58371369D01*
X73501641Y-58370910D01*
X73637924Y-58336931D01*
X73769935Y-58304017D01*
X73769937Y-58304016D01*
X73774206Y-58302952D01*
X73889808Y-58256246D01*
X74030570Y-58199375D01*
X74030576Y-58199372D01*
X74034660Y-58197722D01*
X74038475Y-58195520D01*
X74038480Y-58195517D01*
X74216982Y-58092458D01*
X74277935Y-58057267D01*
X74409766Y-57954269D01*
X74495826Y-57887032D01*
X74495830Y-57887028D01*
X74499294Y-57884322D01*
X74508975Y-57874298D01*
X74691372Y-57685420D01*
X74691374Y-57685417D01*
X74694430Y-57682253D01*
X74697019Y-57678690D01*
X74856956Y-57458556D01*
X74856958Y-57458552D01*
X74859545Y-57454992D01*
X74861611Y-57451106D01*
X74861615Y-57451100D01*
X74989353Y-57210860D01*
X74989356Y-57210854D01*
X74991424Y-57206964D01*
X75019238Y-57130547D01*
X75085996Y-56947129D01*
X75085997Y-56947125D01*
X75087500Y-56942996D01*
X75145905Y-56668225D01*
X75146791Y-56655547D01*
X76219000Y-56655547D01*
X76219000Y-57885743D01*
X76219161Y-57890250D01*
X76223740Y-57954269D01*
X76226126Y-57967491D01*
X76262819Y-58092458D01*
X76270233Y-58108692D01*
X76339426Y-58216360D01*
X76351112Y-58229847D01*
X76447840Y-58313662D01*
X76462848Y-58323307D01*
X76579275Y-58376477D01*
X76596388Y-58381502D01*
X76727554Y-58400361D01*
X76736495Y-58401000D01*
X77959885Y-58401000D01*
X77975124Y-58396525D01*
X77976329Y-58395135D01*
X77978000Y-58387452D01*
X77978001Y-56660115D01*
X77973526Y-56644876D01*
X77972136Y-56643671D01*
X77964453Y-56642000D01*
X76237115Y-56641999D01*
X76221876Y-56646474D01*
X76220671Y-56647864D01*
X76219000Y-56655547D01*
X75146791Y-56655547D01*
X75165500Y-56388000D01*
X75146792Y-56120453D01*
X75146212Y-56112160D01*
X75146211Y-56112155D01*
X75145905Y-56107775D01*
X75087500Y-55833004D01*
X75040390Y-55703569D01*
X74992933Y-55573181D01*
X74992931Y-55573177D01*
X74991424Y-55569036D01*
X74989356Y-55565146D01*
X74989353Y-55565140D01*
X74861615Y-55324900D01*
X74861611Y-55324894D01*
X74859545Y-55321008D01*
X74784554Y-55217791D01*
X74697019Y-55097310D01*
X74697017Y-55097307D01*
X74694430Y-55093747D01*
X74691372Y-55090580D01*
X74502348Y-54894840D01*
X74502344Y-54894837D01*
X74500083Y-54892495D01*
X76219000Y-54892495D01*
X76219000Y-56115885D01*
X76223475Y-56131124D01*
X76224865Y-56132329D01*
X76232548Y-56134000D01*
X77959885Y-56134001D01*
X77975124Y-56129526D01*
X77976329Y-56128136D01*
X77978000Y-56120453D01*
X77978001Y-54393115D01*
X77973526Y-54377876D01*
X77972136Y-54376671D01*
X77964453Y-54375000D01*
X76734257Y-54375000D01*
X76729750Y-54375161D01*
X76665731Y-54379740D01*
X76652509Y-54382126D01*
X76527542Y-54418819D01*
X76511308Y-54426233D01*
X76403640Y-54495426D01*
X76390153Y-54507112D01*
X76306338Y-54603840D01*
X76296693Y-54618848D01*
X76243523Y-54735275D01*
X76238498Y-54752388D01*
X76219639Y-54883554D01*
X76219000Y-54892495D01*
X74500083Y-54892495D01*
X74499294Y-54891678D01*
X74495830Y-54888972D01*
X74495826Y-54888968D01*
X74281401Y-54721441D01*
X74281402Y-54721441D01*
X74277935Y-54718733D01*
X74136979Y-54637352D01*
X74038480Y-54580483D01*
X74038475Y-54580480D01*
X74034660Y-54578278D01*
X74030576Y-54576628D01*
X74030570Y-54576625D01*
X73778287Y-54474697D01*
X73774206Y-54473048D01*
X73501641Y-54405090D01*
X73497273Y-54404631D01*
X73497268Y-54404630D01*
X73226639Y-54376186D01*
X73226636Y-54376186D01*
X73222270Y-54375727D01*
X73217882Y-54375880D01*
X73217876Y-54375880D01*
X72945929Y-54385376D01*
X72945922Y-54385377D01*
X72941532Y-54385530D01*
X72937208Y-54386293D01*
X72937203Y-54386293D01*
X72824563Y-54406155D01*
X72664890Y-54434310D01*
X72397730Y-54521115D01*
X72393777Y-54523043D01*
X72393772Y-54523045D01*
X72326332Y-54555938D01*
X72145250Y-54644258D01*
X72141611Y-54646713D01*
X72141605Y-54646716D01*
X71984940Y-54752388D01*
X71912366Y-54801340D01*
X71703609Y-54989305D01*
X71700780Y-54992677D01*
X71525872Y-55201123D01*
X71525868Y-55201128D01*
X71523044Y-55204494D01*
X71374185Y-55442719D01*
X71259929Y-55699342D01*
X71182500Y-55969370D01*
X71143405Y-56247545D01*
X69088000Y-56247545D01*
X69088000Y-54109880D01*
X69108002Y-54041759D01*
X69133009Y-54013358D01*
X69153045Y-53996546D01*
X69171036Y-53983949D01*
X69266304Y-53928946D01*
X69286208Y-53919664D01*
X69312397Y-53910132D01*
X69389580Y-53882041D01*
X69410793Y-53876357D01*
X69520327Y-53857043D01*
X69531224Y-53855609D01*
X69544047Y-53854487D01*
X69552370Y-53854035D01*
X69637254Y-53852243D01*
X69637259Y-53852243D01*
X69641736Y-53852148D01*
X69656721Y-53849678D01*
X69677213Y-53848000D01*
X79977935Y-53848000D01*
X80046056Y-53868002D01*
G37*
%TD.AperFunction*%
%TA.AperFunction,Conductor*%
G36*
X56076700Y-83403502D02*
G01*
X56123193Y-83457158D01*
X56133297Y-83527432D01*
X56103803Y-83592012D01*
X56082640Y-83611436D01*
X56036093Y-83645254D01*
X56036091Y-83645256D01*
X56030749Y-83649137D01*
X55902963Y-83791058D01*
X55899664Y-83796771D01*
X55899661Y-83796776D01*
X55857785Y-83869308D01*
X55806402Y-83918301D01*
X55774863Y-83929555D01*
X55757452Y-83933256D01*
X55597713Y-83967210D01*
X55591683Y-83969895D01*
X55591682Y-83969895D01*
X55429280Y-84042201D01*
X55429278Y-84042202D01*
X55423250Y-84044886D01*
X55417909Y-84048766D01*
X55417908Y-84048767D01*
X55274093Y-84153254D01*
X55274091Y-84153256D01*
X55268749Y-84157137D01*
X55264328Y-84162047D01*
X55264327Y-84162048D01*
X55209503Y-84222937D01*
X55140963Y-84299058D01*
X55122706Y-84330680D01*
X55050930Y-84455000D01*
X55045476Y-84464446D01*
X55020957Y-84539907D01*
X54999735Y-84605224D01*
X54986462Y-84646073D01*
X54966500Y-84836000D01*
X54967190Y-84842565D01*
X54984569Y-85007912D01*
X54986462Y-85025927D01*
X54988502Y-85032205D01*
X54988502Y-85032206D01*
X55009414Y-85096565D01*
X55045476Y-85207554D01*
X55140963Y-85372942D01*
X55145381Y-85377849D01*
X55145382Y-85377850D01*
X55251039Y-85495194D01*
X55281757Y-85559201D01*
X55272992Y-85629655D01*
X55227529Y-85684186D01*
X55157403Y-85705504D01*
X55022513Y-85705504D01*
X55016061Y-85706876D01*
X55016056Y-85706876D01*
X54929113Y-85725357D01*
X54835713Y-85745210D01*
X54829683Y-85747895D01*
X54829682Y-85747895D01*
X54667280Y-85820201D01*
X54667278Y-85820202D01*
X54661250Y-85822886D01*
X54655909Y-85826766D01*
X54655908Y-85826767D01*
X54512093Y-85931254D01*
X54512091Y-85931256D01*
X54506749Y-85935137D01*
X54502328Y-85940047D01*
X54502327Y-85940048D01*
X54432017Y-86018136D01*
X54378963Y-86077058D01*
X54283476Y-86242446D01*
X54281434Y-86248731D01*
X54226938Y-86416454D01*
X54224462Y-86424073D01*
X54223772Y-86430636D01*
X54223772Y-86430637D01*
X54210705Y-86554963D01*
X54204500Y-86614000D01*
X54205190Y-86620565D01*
X54216510Y-86728264D01*
X54224462Y-86803927D01*
X54226502Y-86810205D01*
X54226502Y-86810206D01*
X54253509Y-86893326D01*
X54255536Y-86964294D01*
X54218874Y-87025092D01*
X54155161Y-87056417D01*
X54117123Y-87057170D01*
X54039693Y-87046908D01*
X53917515Y-87030714D01*
X53917510Y-87030714D01*
X53912230Y-87030014D01*
X53906900Y-87030214D01*
X53906899Y-87030214D01*
X53813320Y-87033727D01*
X53681831Y-87038663D01*
X53653946Y-87044514D01*
X53461411Y-87084912D01*
X53461408Y-87084913D01*
X53456184Y-87086009D01*
X53241740Y-87170697D01*
X53044631Y-87290306D01*
X53040601Y-87293803D01*
X52912326Y-87405114D01*
X52870492Y-87441415D01*
X52867109Y-87445541D01*
X52867105Y-87445545D01*
X52794773Y-87533761D01*
X52724304Y-87619705D01*
X52721667Y-87624338D01*
X52721666Y-87624339D01*
X52688116Y-87683278D01*
X52637033Y-87732584D01*
X52567402Y-87746445D01*
X52501332Y-87720461D01*
X52474094Y-87691312D01*
X52468686Y-87683278D01*
X52373818Y-87542366D01*
X52373607Y-87542052D01*
X52373605Y-87542050D01*
X52370627Y-87537626D01*
X52211482Y-87370799D01*
X52205597Y-87366420D01*
X52030786Y-87236357D01*
X52030787Y-87236357D01*
X52026504Y-87233171D01*
X52021753Y-87230755D01*
X52021749Y-87230753D01*
X51825740Y-87131097D01*
X51825739Y-87131097D01*
X51820982Y-87128678D01*
X51680033Y-87084912D01*
X51605895Y-87061891D01*
X51605889Y-87061890D01*
X51600792Y-87060307D01*
X51495798Y-87046391D01*
X51377515Y-87030714D01*
X51377510Y-87030714D01*
X51372230Y-87030014D01*
X51366900Y-87030214D01*
X51366899Y-87030214D01*
X51273320Y-87033727D01*
X51141831Y-87038663D01*
X51136614Y-87039758D01*
X51136611Y-87039758D01*
X51113944Y-87044514D01*
X51043167Y-87038926D01*
X50998975Y-87010294D01*
X49942119Y-85953438D01*
X49911381Y-85903279D01*
X49866514Y-85765192D01*
X49856524Y-85734446D01*
X49840607Y-85706876D01*
X49764338Y-85574776D01*
X49761037Y-85569058D01*
X49633251Y-85427137D01*
X49627909Y-85423256D01*
X49627907Y-85423254D01*
X49484092Y-85318767D01*
X49484091Y-85318766D01*
X49478750Y-85314886D01*
X49472722Y-85312202D01*
X49472720Y-85312201D01*
X49310318Y-85239895D01*
X49310317Y-85239895D01*
X49304287Y-85237210D01*
X49210887Y-85217357D01*
X49123944Y-85198876D01*
X49123939Y-85198876D01*
X49117487Y-85197504D01*
X48926513Y-85197504D01*
X48920061Y-85198876D01*
X48920056Y-85198876D01*
X48833113Y-85217357D01*
X48739713Y-85237210D01*
X48733683Y-85239895D01*
X48733682Y-85239895D01*
X48571280Y-85312201D01*
X48571278Y-85312202D01*
X48565250Y-85314886D01*
X48559909Y-85318766D01*
X48559908Y-85318767D01*
X48416093Y-85423254D01*
X48416091Y-85423256D01*
X48410749Y-85427137D01*
X48282963Y-85569058D01*
X48279662Y-85574776D01*
X48203394Y-85706876D01*
X48187476Y-85734446D01*
X48177486Y-85765192D01*
X48137977Y-85886790D01*
X48128462Y-85916073D01*
X48127772Y-85922636D01*
X48127772Y-85922637D01*
X48124150Y-85957097D01*
X48108500Y-86106000D01*
X48109190Y-86112565D01*
X48127348Y-86285324D01*
X48128462Y-86295927D01*
X48130502Y-86302205D01*
X48130502Y-86302206D01*
X48137385Y-86323389D01*
X48187476Y-86477554D01*
X48282963Y-86642942D01*
X48287381Y-86647849D01*
X48287382Y-86647850D01*
X48359787Y-86728264D01*
X48410749Y-86784863D01*
X48432360Y-86800564D01*
X48475713Y-86856785D01*
X48481790Y-86927521D01*
X48448658Y-86990313D01*
X48386839Y-87025225D01*
X48358299Y-87028500D01*
X47918000Y-87028500D01*
X47844921Y-87033727D01*
X47808184Y-87044514D01*
X47713330Y-87072365D01*
X47713328Y-87072366D01*
X47704684Y-87074904D01*
X47666528Y-87099426D01*
X47589309Y-87149051D01*
X47589306Y-87149053D01*
X47581729Y-87153923D01*
X47575828Y-87160733D01*
X47491918Y-87257569D01*
X47491916Y-87257572D01*
X47486016Y-87264381D01*
X47425300Y-87397330D01*
X47424018Y-87406245D01*
X47424018Y-87406246D01*
X47406882Y-87525432D01*
X47377389Y-87590012D01*
X47317662Y-87628396D01*
X47282164Y-87633500D01*
X46096500Y-87633500D01*
X46028379Y-87613498D01*
X45981886Y-87559842D01*
X45970500Y-87507500D01*
X45970500Y-86425986D01*
X45971933Y-86407035D01*
X45973935Y-86393878D01*
X45973935Y-86393875D01*
X45975035Y-86386645D01*
X45972590Y-86356579D01*
X45970915Y-86335993D01*
X45970500Y-86325778D01*
X45970500Y-86317114D01*
X45969927Y-86312194D01*
X45968030Y-86295927D01*
X45967045Y-86287480D01*
X45966616Y-86283140D01*
X45965704Y-86271919D01*
X45960699Y-86210395D01*
X45958445Y-86203436D01*
X45957262Y-86197516D01*
X45955870Y-86191627D01*
X45955022Y-86184357D01*
X45930108Y-86115721D01*
X45928682Y-86111566D01*
X45923070Y-86094241D01*
X45906201Y-86042169D01*
X45902404Y-86035911D01*
X45899881Y-86030400D01*
X45897184Y-86025016D01*
X45894687Y-86018136D01*
X45854662Y-85957087D01*
X45852321Y-85953377D01*
X45817375Y-85895788D01*
X45817373Y-85895786D01*
X45814465Y-85890993D01*
X45810759Y-85886797D01*
X45810754Y-85886790D01*
X45806253Y-85881695D01*
X45804027Y-85879106D01*
X45801749Y-85876381D01*
X45797731Y-85870253D01*
X45783429Y-85856704D01*
X45745894Y-85821148D01*
X45743451Y-85818770D01*
X44994905Y-85070224D01*
X44960879Y-85007912D01*
X44958000Y-84981129D01*
X44958000Y-84455000D01*
X44500738Y-84445060D01*
X44417411Y-84443248D01*
X44349741Y-84421770D01*
X44331054Y-84406373D01*
X44098798Y-84174117D01*
X44064772Y-84111805D01*
X44069837Y-84040990D01*
X44112384Y-83984154D01*
X44178904Y-83959343D01*
X44214090Y-83961776D01*
X44309811Y-83982123D01*
X44309824Y-83982124D01*
X44316277Y-83983496D01*
X44507251Y-83983496D01*
X44513703Y-83982124D01*
X44513708Y-83982124D01*
X44609434Y-83961776D01*
X44694051Y-83943790D01*
X44700082Y-83941105D01*
X44862484Y-83868799D01*
X44862486Y-83868798D01*
X44868514Y-83866114D01*
X44894620Y-83847147D01*
X45017671Y-83757746D01*
X45017673Y-83757744D01*
X45023015Y-83753863D01*
X45078128Y-83692654D01*
X45146382Y-83616850D01*
X45146383Y-83616849D01*
X45150801Y-83611942D01*
X45246288Y-83446554D01*
X45248970Y-83448102D01*
X45286235Y-83404201D01*
X45355431Y-83383500D01*
X56008579Y-83383500D01*
X56076700Y-83403502D01*
G37*
%TD.AperFunction*%
%TA.AperFunction,Conductor*%
G36*
X60319927Y-85743502D02*
G01*
X60339143Y-85759835D01*
X60339417Y-85759531D01*
X60340891Y-85760858D01*
X60341490Y-85761830D01*
X60345439Y-85765187D01*
X60348749Y-85768863D01*
X60348752Y-85768865D01*
X60346869Y-85770560D01*
X60378135Y-85821301D01*
X60376788Y-85892285D01*
X60337279Y-85951272D01*
X60272150Y-85979535D01*
X60256587Y-85980500D01*
X56063987Y-85980500D01*
X55995866Y-85960498D01*
X55949373Y-85906842D01*
X55939269Y-85836568D01*
X55968763Y-85771988D01*
X56028489Y-85733604D01*
X56037790Y-85731253D01*
X56055738Y-85727438D01*
X56101645Y-85726236D01*
X56113944Y-85728184D01*
X56121836Y-85727438D01*
X56157582Y-85724059D01*
X56169440Y-85723500D01*
X60251806Y-85723500D01*
X60319927Y-85743502D01*
G37*
%TD.AperFunction*%
%TA.AperFunction,Conductor*%
G36*
X51657707Y-61979201D02*
G01*
X51663534Y-61981538D01*
X51669598Y-61982127D01*
X51675722Y-61983982D01*
X51753731Y-62012375D01*
X51756499Y-62013579D01*
X51759486Y-62015682D01*
X51805464Y-62031379D01*
X51811960Y-62033597D01*
X51814341Y-62034437D01*
X51847790Y-62046611D01*
X51847799Y-62046614D01*
X51852004Y-62048144D01*
X51856388Y-62049064D01*
X51858639Y-62049706D01*
X51862633Y-62050957D01*
X51863358Y-62051143D01*
X51867961Y-62052715D01*
X51872750Y-62053559D01*
X51872752Y-62053560D01*
X51889169Y-62056455D01*
X51902481Y-62058802D01*
X51906455Y-62059569D01*
X51919453Y-62062296D01*
X51952444Y-62069219D01*
X51952447Y-62069219D01*
X51961225Y-62071061D01*
X51967296Y-62070589D01*
X51973654Y-62071352D01*
X52155789Y-62103468D01*
X52155803Y-62103470D01*
X52158395Y-62103927D01*
X52159764Y-62103971D01*
X52164081Y-62104737D01*
X52168950Y-62104840D01*
X52168952Y-62104840D01*
X52219450Y-62105906D01*
X52220857Y-62105944D01*
X52265043Y-62107371D01*
X52269936Y-62107529D01*
X52271698Y-62107075D01*
X52272697Y-62107030D01*
X52348074Y-62108622D01*
X52386678Y-62103923D01*
X52401902Y-62103000D01*
X52947339Y-62103000D01*
X53015460Y-62123002D01*
X53061953Y-62176658D01*
X53072057Y-62246932D01*
X53056460Y-62291996D01*
X53013476Y-62366446D01*
X53004768Y-62393247D01*
X52983686Y-62458132D01*
X52954462Y-62548073D01*
X52953772Y-62554636D01*
X52953772Y-62554637D01*
X52946005Y-62628539D01*
X52934500Y-62738000D01*
X52935190Y-62744565D01*
X52951757Y-62902186D01*
X52954462Y-62927927D01*
X53013476Y-63109554D01*
X53016779Y-63115276D01*
X53016780Y-63115277D01*
X53054912Y-63181324D01*
X53071650Y-63250320D01*
X53069000Y-63270451D01*
X53068999Y-64498050D01*
X53073474Y-64513289D01*
X53074864Y-64514494D01*
X53082547Y-64516165D01*
X54034885Y-64516166D01*
X54050124Y-64511691D01*
X54051329Y-64510301D01*
X54053000Y-64502618D01*
X54053000Y-63772422D01*
X54052839Y-63767917D01*
X54050319Y-63732686D01*
X54065410Y-63663312D01*
X54115612Y-63613109D01*
X54130256Y-63606797D01*
X54130287Y-63606790D01*
X54262736Y-63547820D01*
X54298720Y-63531799D01*
X54298722Y-63531798D01*
X54304750Y-63529114D01*
X54355806Y-63492020D01*
X54453907Y-63420746D01*
X54453909Y-63420744D01*
X54459251Y-63416863D01*
X54463673Y-63411952D01*
X54468575Y-63407538D01*
X54469701Y-63408789D01*
X54523000Y-63375951D01*
X54556194Y-63371500D01*
X58219806Y-63371500D01*
X58287927Y-63391502D01*
X58307151Y-63407842D01*
X58307425Y-63407538D01*
X58312327Y-63411952D01*
X58316749Y-63416863D01*
X58322091Y-63420744D01*
X58322093Y-63420746D01*
X58420194Y-63492020D01*
X58471250Y-63529114D01*
X58477278Y-63531798D01*
X58477280Y-63531799D01*
X58513264Y-63547820D01*
X58645713Y-63606790D01*
X58736088Y-63626000D01*
X58826056Y-63645124D01*
X58826061Y-63645124D01*
X58832513Y-63646496D01*
X59023487Y-63646496D01*
X59029939Y-63645124D01*
X59029944Y-63645124D01*
X59119912Y-63626000D01*
X59210287Y-63606790D01*
X59342736Y-63547820D01*
X59378720Y-63531799D01*
X59378722Y-63531798D01*
X59384750Y-63529114D01*
X59435806Y-63492020D01*
X59533907Y-63420746D01*
X59533909Y-63420744D01*
X59539251Y-63416863D01*
X59549179Y-63405837D01*
X59662618Y-63279850D01*
X59662619Y-63279849D01*
X59667037Y-63274942D01*
X59762524Y-63109554D01*
X59821538Y-62927927D01*
X59824244Y-62902186D01*
X59840810Y-62744565D01*
X59841500Y-62738000D01*
X59829995Y-62628539D01*
X59822228Y-62554637D01*
X59822228Y-62554636D01*
X59821538Y-62548073D01*
X59792315Y-62458132D01*
X59771232Y-62393247D01*
X59762524Y-62366446D01*
X59719541Y-62291998D01*
X59702804Y-62223005D01*
X59726024Y-62155913D01*
X59781831Y-62112026D01*
X59828661Y-62103000D01*
X63812828Y-62103000D01*
X63880949Y-62123002D01*
X63927442Y-62176658D01*
X63937546Y-62246932D01*
X63908052Y-62311512D01*
X63881912Y-62334373D01*
X63859089Y-62349336D01*
X63855372Y-62351681D01*
X63797788Y-62386625D01*
X63792993Y-62389535D01*
X63788790Y-62393247D01*
X63783690Y-62397751D01*
X63781108Y-62399969D01*
X63778369Y-62402259D01*
X63772253Y-62406269D01*
X63767223Y-62411579D01*
X63723123Y-62458132D01*
X63720745Y-62460574D01*
X62448634Y-63732686D01*
X61190725Y-64990595D01*
X61128413Y-65024620D01*
X61101630Y-65027500D01*
X59755986Y-65027500D01*
X59737035Y-65026067D01*
X59723878Y-65024065D01*
X59723875Y-65024065D01*
X59716645Y-65022965D01*
X59709353Y-65023558D01*
X59709350Y-65023558D01*
X59665993Y-65027085D01*
X59655778Y-65027500D01*
X54226563Y-65027500D01*
X54207612Y-65026067D01*
X54194455Y-65024065D01*
X54194452Y-65024065D01*
X54187222Y-65022965D01*
X54179930Y-65023558D01*
X54179927Y-65023558D01*
X54136570Y-65027085D01*
X54126355Y-65027500D01*
X54117691Y-65027500D01*
X54097586Y-65029844D01*
X54056219Y-65027812D01*
X54039453Y-65024165D01*
X53069002Y-65024164D01*
X53068996Y-65024165D01*
X51595115Y-65024164D01*
X51579876Y-65028639D01*
X51578671Y-65030029D01*
X51577000Y-65037712D01*
X51577000Y-65767908D01*
X51577161Y-65772415D01*
X51581740Y-65836434D01*
X51584126Y-65849656D01*
X51620819Y-65974623D01*
X51628233Y-65990857D01*
X51697426Y-66098525D01*
X51709112Y-66112012D01*
X51805840Y-66195827D01*
X51820848Y-66205472D01*
X51937275Y-66258642D01*
X51954388Y-66263667D01*
X52085554Y-66282526D01*
X52094495Y-66283165D01*
X52286541Y-66283165D01*
X52354662Y-66303167D01*
X52401155Y-66356823D01*
X52411259Y-66427097D01*
X52381765Y-66491677D01*
X52375636Y-66498260D01*
X50581302Y-68292595D01*
X50518990Y-68326620D01*
X50492207Y-68329500D01*
X50326580Y-68329500D01*
X50252521Y-68305438D01*
X50246088Y-68300764D01*
X50246086Y-68300763D01*
X50240750Y-68296886D01*
X50234722Y-68294202D01*
X50072318Y-68221895D01*
X50072317Y-68221895D01*
X50066287Y-68219210D01*
X49959738Y-68196562D01*
X49885944Y-68180876D01*
X49885939Y-68180876D01*
X49879487Y-68179504D01*
X49688513Y-68179504D01*
X49682061Y-68180876D01*
X49682056Y-68180876D01*
X49608262Y-68196562D01*
X49501713Y-68219210D01*
X49495683Y-68221895D01*
X49495682Y-68221895D01*
X49333280Y-68294201D01*
X49333278Y-68294202D01*
X49327250Y-68296886D01*
X49321909Y-68300766D01*
X49321908Y-68300767D01*
X49178093Y-68405254D01*
X49178091Y-68405256D01*
X49172749Y-68409137D01*
X49168328Y-68414047D01*
X49168327Y-68414048D01*
X49083515Y-68508242D01*
X49044963Y-68551058D01*
X48949476Y-68716446D01*
X48947434Y-68722731D01*
X48903867Y-68856818D01*
X48890462Y-68898073D01*
X48889772Y-68904636D01*
X48889772Y-68904637D01*
X48885501Y-68945270D01*
X48870500Y-69088000D01*
X48890462Y-69277927D01*
X48949476Y-69459554D01*
X48993325Y-69535502D01*
X49010062Y-69604495D01*
X48986842Y-69671587D01*
X48931035Y-69715474D01*
X48884205Y-69724500D01*
X44256594Y-69724500D01*
X44188473Y-69704498D01*
X44167499Y-69687595D01*
X42921391Y-68441487D01*
X42914031Y-68433399D01*
X42909973Y-68427005D01*
X42861121Y-68381130D01*
X42858280Y-68378376D01*
X42837966Y-68358062D01*
X42834555Y-68355417D01*
X42825533Y-68347711D01*
X42818451Y-68341060D01*
X42793301Y-68317443D01*
X42786357Y-68313626D01*
X42786355Y-68313624D01*
X42775547Y-68307682D01*
X42759023Y-68296828D01*
X42749286Y-68289275D01*
X42749285Y-68289275D01*
X42743023Y-68284417D01*
X42735750Y-68281270D01*
X42735747Y-68281268D01*
X42715335Y-68272435D01*
X42702458Y-68266863D01*
X42691800Y-68261642D01*
X42659994Y-68244156D01*
X42659990Y-68244154D01*
X42653048Y-68240338D01*
X42645373Y-68238368D01*
X42645372Y-68238367D01*
X42633426Y-68235300D01*
X42614719Y-68228895D01*
X42603410Y-68224001D01*
X42603408Y-68224001D01*
X42596135Y-68220853D01*
X42588307Y-68219613D01*
X42588306Y-68219613D01*
X42552473Y-68213938D01*
X42540848Y-68211530D01*
X42503782Y-68202013D01*
X42503780Y-68202013D01*
X42498025Y-68200535D01*
X42497469Y-68200500D01*
X42477546Y-68200500D01*
X42457837Y-68198949D01*
X42438055Y-68195816D01*
X42396682Y-68199727D01*
X42394418Y-68199941D01*
X42382560Y-68200500D01*
X42172394Y-68200500D01*
X42104273Y-68180498D01*
X42067874Y-68144867D01*
X41999332Y-68043058D01*
X41956627Y-67979626D01*
X41925027Y-67946500D01*
X41878048Y-67897254D01*
X41797482Y-67812799D01*
X41789003Y-67806490D01*
X41616790Y-67678360D01*
X41612504Y-67675171D01*
X41607743Y-67672751D01*
X41604425Y-67670693D01*
X41557071Y-67617796D01*
X41545832Y-67547695D01*
X41574277Y-67482645D01*
X41597564Y-67461093D01*
X41626027Y-67440753D01*
X41777711Y-67332357D01*
X41879953Y-67229220D01*
X41936277Y-67172403D01*
X41936278Y-67172402D01*
X41940030Y-67168617D01*
X42028529Y-67042462D01*
X42069375Y-66984236D01*
X42069376Y-66984234D01*
X42072439Y-66979868D01*
X42096590Y-66928892D01*
X42168870Y-66776328D01*
X42168872Y-66776322D01*
X42171153Y-66771508D01*
X42171339Y-66770844D01*
X42213095Y-66715157D01*
X42279635Y-66690400D01*
X42309483Y-66692475D01*
X42309488Y-66692432D01*
X42310711Y-66692561D01*
X42314716Y-66692839D01*
X42316044Y-66693121D01*
X42322513Y-66694496D01*
X42513487Y-66694496D01*
X42519939Y-66693124D01*
X42519944Y-66693124D01*
X42606887Y-66674643D01*
X42700287Y-66654790D01*
X42783925Y-66617552D01*
X42868720Y-66579799D01*
X42868722Y-66579798D01*
X42874750Y-66577114D01*
X42880092Y-66573233D01*
X43023907Y-66468746D01*
X43023909Y-66468744D01*
X43029251Y-66464863D01*
X43125405Y-66358073D01*
X43152618Y-66327850D01*
X43152619Y-66327849D01*
X43157037Y-66322942D01*
X43215311Y-66222008D01*
X43249220Y-66163277D01*
X43249221Y-66163276D01*
X43252524Y-66157554D01*
X43298223Y-66016907D01*
X43309498Y-65982206D01*
X43309498Y-65982205D01*
X43311538Y-65975927D01*
X43317879Y-65915601D01*
X43330810Y-65792565D01*
X43331500Y-65786000D01*
X43325309Y-65727098D01*
X43312228Y-65602637D01*
X43312228Y-65602636D01*
X43311538Y-65596073D01*
X43287375Y-65521705D01*
X43259452Y-65435767D01*
X43252524Y-65414446D01*
X43157037Y-65249058D01*
X43083864Y-65167791D01*
X43053146Y-65103784D01*
X43051500Y-65083481D01*
X43051500Y-64767500D01*
X43071502Y-64699379D01*
X43125158Y-64652886D01*
X43177500Y-64641500D01*
X49075806Y-64641500D01*
X49143927Y-64661502D01*
X49163151Y-64677842D01*
X49163425Y-64677538D01*
X49168327Y-64681952D01*
X49172749Y-64686863D01*
X49178091Y-64690744D01*
X49178093Y-64690746D01*
X49268906Y-64756725D01*
X49327250Y-64799114D01*
X49333278Y-64801798D01*
X49333280Y-64801799D01*
X49493542Y-64873152D01*
X49501713Y-64876790D01*
X49595113Y-64896643D01*
X49682056Y-64915124D01*
X49682061Y-64915124D01*
X49688513Y-64916496D01*
X49879487Y-64916496D01*
X49885939Y-64915124D01*
X49885944Y-64915124D01*
X49972887Y-64896643D01*
X50066287Y-64876790D01*
X50074458Y-64873152D01*
X50234720Y-64801799D01*
X50234722Y-64801798D01*
X50240750Y-64799114D01*
X50299094Y-64756725D01*
X50389907Y-64690746D01*
X50389909Y-64690744D01*
X50395251Y-64686863D01*
X50469861Y-64604000D01*
X50518618Y-64549850D01*
X50518619Y-64549849D01*
X50523037Y-64544942D01*
X50618524Y-64379554D01*
X50677538Y-64197927D01*
X50697500Y-64008000D01*
X50687027Y-63908359D01*
X50678228Y-63824637D01*
X50678228Y-63824636D01*
X50677538Y-63818073D01*
X50667574Y-63787405D01*
X50663433Y-63774660D01*
X51577000Y-63774660D01*
X51577000Y-64498050D01*
X51581475Y-64513289D01*
X51582865Y-64514494D01*
X51590548Y-64516165D01*
X52542885Y-64516166D01*
X52558124Y-64511691D01*
X52559329Y-64510301D01*
X52561000Y-64502618D01*
X52561001Y-63275280D01*
X52556526Y-63260041D01*
X52555136Y-63258836D01*
X52547453Y-63257165D01*
X52092257Y-63257165D01*
X52087750Y-63257326D01*
X52023731Y-63261905D01*
X52010509Y-63264291D01*
X51885542Y-63300984D01*
X51869308Y-63308398D01*
X51761640Y-63377591D01*
X51748153Y-63389277D01*
X51664338Y-63486005D01*
X51654693Y-63501013D01*
X51601523Y-63617440D01*
X51596498Y-63634553D01*
X51577639Y-63765719D01*
X51577000Y-63774660D01*
X50663433Y-63774660D01*
X50620566Y-63642731D01*
X50618524Y-63636446D01*
X50606686Y-63615941D01*
X50541760Y-63503487D01*
X50523037Y-63471058D01*
X50465844Y-63407538D01*
X50399673Y-63334048D01*
X50399672Y-63334047D01*
X50395251Y-63329137D01*
X50389909Y-63325256D01*
X50389907Y-63325254D01*
X50246092Y-63220767D01*
X50246091Y-63220766D01*
X50240750Y-63216886D01*
X50234722Y-63214202D01*
X50234720Y-63214201D01*
X50072318Y-63141895D01*
X50072317Y-63141895D01*
X50066287Y-63139210D01*
X49972887Y-63119357D01*
X49885944Y-63100876D01*
X49885939Y-63100876D01*
X49879487Y-63099504D01*
X49688513Y-63099504D01*
X49682061Y-63100876D01*
X49682056Y-63100876D01*
X49595113Y-63119357D01*
X49501713Y-63139210D01*
X49495683Y-63141895D01*
X49495682Y-63141895D01*
X49333280Y-63214201D01*
X49333278Y-63214202D01*
X49327250Y-63216886D01*
X49321909Y-63220766D01*
X49321908Y-63220767D01*
X49178093Y-63325254D01*
X49178091Y-63325256D01*
X49172749Y-63329137D01*
X49168328Y-63334047D01*
X49163425Y-63338462D01*
X49162299Y-63337211D01*
X49109000Y-63370049D01*
X49075806Y-63374500D01*
X42750383Y-63374500D01*
X42739479Y-63373986D01*
X42732088Y-63372334D01*
X42724163Y-63372583D01*
X42724162Y-63372583D01*
X42665147Y-63374438D01*
X42661189Y-63374500D01*
X42632422Y-63374500D01*
X42628137Y-63375041D01*
X42616303Y-63375973D01*
X42590286Y-63376791D01*
X42580036Y-63377113D01*
X42580035Y-63377113D01*
X42572116Y-63377362D01*
X42564508Y-63379572D01*
X42564503Y-63379573D01*
X42552661Y-63383013D01*
X42533307Y-63387021D01*
X42521079Y-63388566D01*
X42513212Y-63389560D01*
X42505844Y-63392477D01*
X42505837Y-63392479D01*
X42472099Y-63405837D01*
X42460869Y-63409682D01*
X42418652Y-63421947D01*
X42347657Y-63421744D01*
X42288040Y-63383190D01*
X42258732Y-63318526D01*
X42257500Y-63300950D01*
X42257500Y-62904000D01*
X42252273Y-62830921D01*
X42224989Y-62738000D01*
X42213635Y-62699330D01*
X42213634Y-62699328D01*
X42211096Y-62690684D01*
X42165393Y-62619569D01*
X42136949Y-62575309D01*
X42136947Y-62575306D01*
X42132077Y-62567729D01*
X42102147Y-62541794D01*
X42028431Y-62477918D01*
X42028428Y-62477916D01*
X42021619Y-62472016D01*
X42013421Y-62468272D01*
X41896864Y-62415042D01*
X41896863Y-62415042D01*
X41888670Y-62411300D01*
X41879755Y-62410018D01*
X41879754Y-62410018D01*
X41748448Y-62391139D01*
X41748441Y-62391138D01*
X41744000Y-62390500D01*
X40044000Y-62390500D01*
X39970921Y-62395727D01*
X39917884Y-62411300D01*
X39839330Y-62434365D01*
X39839328Y-62434366D01*
X39830684Y-62436904D01*
X39823105Y-62441775D01*
X39715309Y-62511051D01*
X39715306Y-62511053D01*
X39707729Y-62515923D01*
X39701828Y-62522733D01*
X39617918Y-62619569D01*
X39617916Y-62619572D01*
X39612016Y-62626381D01*
X39551300Y-62759330D01*
X39550018Y-62768245D01*
X39550018Y-62768246D01*
X39531139Y-62899552D01*
X39531138Y-62899559D01*
X39530500Y-62904000D01*
X39530500Y-64604000D01*
X39535727Y-64677079D01*
X39576904Y-64817316D01*
X39581775Y-64824895D01*
X39651051Y-64932691D01*
X39651053Y-64932694D01*
X39655923Y-64940271D01*
X39662733Y-64946172D01*
X39759569Y-65030082D01*
X39759572Y-65030084D01*
X39766381Y-65035984D01*
X39899330Y-65096700D01*
X39905639Y-65097607D01*
X39964244Y-65135269D01*
X39993738Y-65199849D01*
X39983636Y-65270123D01*
X39951601Y-65312949D01*
X39916492Y-65343415D01*
X39913109Y-65347541D01*
X39913105Y-65347545D01*
X39862943Y-65408723D01*
X39770304Y-65521705D01*
X39767665Y-65526341D01*
X39767663Y-65526344D01*
X39681427Y-65677838D01*
X39656245Y-65722077D01*
X39577578Y-65938802D01*
X39576629Y-65944051D01*
X39576628Y-65944054D01*
X39539157Y-66151269D01*
X39536551Y-66165683D01*
X39535597Y-66265050D01*
X39534399Y-66389924D01*
X39534338Y-66396233D01*
X39571002Y-66623861D01*
X39645494Y-66842056D01*
X39755685Y-67044580D01*
X39898424Y-67225644D01*
X39931145Y-67255158D01*
X40065659Y-67376489D01*
X40065665Y-67376494D01*
X40069629Y-67380069D01*
X40074142Y-67382928D01*
X40074144Y-67382929D01*
X40192242Y-67457731D01*
X40239087Y-67511079D01*
X40249654Y-67581285D01*
X40220587Y-67646058D01*
X40190186Y-67671894D01*
X40095196Y-67729535D01*
X40095189Y-67729540D01*
X40090631Y-67732306D01*
X40086601Y-67735803D01*
X39923763Y-67877106D01*
X39916492Y-67883415D01*
X39913109Y-67887541D01*
X39913105Y-67887545D01*
X39845941Y-67969458D01*
X39770304Y-68061705D01*
X39767665Y-68066341D01*
X39767663Y-68066344D01*
X39693257Y-68197056D01*
X39656245Y-68262077D01*
X39577578Y-68478802D01*
X39576629Y-68484051D01*
X39576628Y-68484054D01*
X39549603Y-68633504D01*
X39536551Y-68705683D01*
X39535777Y-68786329D01*
X39534765Y-68891794D01*
X39534338Y-68936233D01*
X39571002Y-69163861D01*
X39645494Y-69382056D01*
X39648044Y-69386743D01*
X39648045Y-69386745D01*
X39671045Y-69429018D01*
X39755685Y-69584580D01*
X39898424Y-69765644D01*
X39919423Y-69784585D01*
X40065659Y-69916489D01*
X40065665Y-69916494D01*
X40069629Y-69920069D01*
X40074142Y-69922928D01*
X40074144Y-69922929D01*
X40192242Y-69997731D01*
X40239087Y-70051079D01*
X40249654Y-70121285D01*
X40220587Y-70186058D01*
X40190186Y-70211894D01*
X40095196Y-70269535D01*
X40095189Y-70269540D01*
X40090631Y-70272306D01*
X40086601Y-70275803D01*
X39923763Y-70417106D01*
X39916492Y-70423415D01*
X39913109Y-70427541D01*
X39913105Y-70427545D01*
X39845941Y-70509458D01*
X39770304Y-70601705D01*
X39767665Y-70606341D01*
X39767663Y-70606344D01*
X39701105Y-70723269D01*
X39656245Y-70802077D01*
X39577578Y-71018802D01*
X39576629Y-71024051D01*
X39576628Y-71024054D01*
X39553528Y-71151799D01*
X39536551Y-71245683D01*
X39536117Y-71290863D01*
X39534559Y-71453254D01*
X39534338Y-71476233D01*
X39571002Y-71703861D01*
X39645494Y-71922056D01*
X39648044Y-71926743D01*
X39648045Y-71926745D01*
X39682828Y-71990674D01*
X39755685Y-72124580D01*
X39898424Y-72305644D01*
X39920911Y-72325927D01*
X40065659Y-72456489D01*
X40065665Y-72456494D01*
X40069629Y-72460069D01*
X40074142Y-72462928D01*
X40074144Y-72462929D01*
X40192242Y-72537731D01*
X40239087Y-72591079D01*
X40249654Y-72661285D01*
X40220587Y-72726058D01*
X40190186Y-72751894D01*
X40095196Y-72809535D01*
X40095189Y-72809540D01*
X40090631Y-72812306D01*
X40086601Y-72815803D01*
X39958326Y-72927114D01*
X39916492Y-72963415D01*
X39913109Y-72967541D01*
X39913105Y-72967545D01*
X39833974Y-73064053D01*
X39770304Y-73141705D01*
X39767665Y-73146341D01*
X39767663Y-73146344D01*
X39692969Y-73277562D01*
X39656245Y-73342077D01*
X39577578Y-73558802D01*
X39576629Y-73564051D01*
X39576628Y-73564054D01*
X39539590Y-73768876D01*
X39536551Y-73785683D01*
X39536155Y-73826982D01*
X39534435Y-74006158D01*
X39534338Y-74016233D01*
X39571002Y-74243861D01*
X39645494Y-74462056D01*
X39755685Y-74664580D01*
X39898424Y-74845644D01*
X39939337Y-74882547D01*
X40065659Y-74996489D01*
X40065665Y-74996494D01*
X40069629Y-75000069D01*
X40074142Y-75002928D01*
X40074144Y-75002929D01*
X40192242Y-75077731D01*
X40239087Y-75131079D01*
X40249654Y-75201285D01*
X40220587Y-75266058D01*
X40190186Y-75291894D01*
X40095196Y-75349535D01*
X40095189Y-75349540D01*
X40090631Y-75352306D01*
X40086601Y-75355803D01*
X39935409Y-75487000D01*
X39916492Y-75503415D01*
X39913109Y-75507541D01*
X39913105Y-75507545D01*
X39828686Y-75610503D01*
X39770304Y-75681705D01*
X39767665Y-75686341D01*
X39767663Y-75686344D01*
X39697778Y-75809114D01*
X39656245Y-75882077D01*
X39577578Y-76098802D01*
X39576629Y-76104051D01*
X39576628Y-76104054D01*
X39537773Y-76318927D01*
X39536551Y-76325683D01*
X39535846Y-76399158D01*
X39534765Y-76511797D01*
X39534338Y-76556233D01*
X39571002Y-76783861D01*
X39645494Y-77002056D01*
X39648044Y-77006743D01*
X39648045Y-77006745D01*
X39680500Y-77066395D01*
X39755685Y-77204580D01*
X39898424Y-77385644D01*
X39902389Y-77389220D01*
X40065659Y-77536489D01*
X40065665Y-77536494D01*
X40069629Y-77540069D01*
X40074142Y-77542928D01*
X40074144Y-77542929D01*
X40192242Y-77617731D01*
X40239087Y-77671079D01*
X40249654Y-77741285D01*
X40220587Y-77806058D01*
X40190186Y-77831894D01*
X40095196Y-77889535D01*
X40095189Y-77889540D01*
X40090631Y-77892306D01*
X39916492Y-78043415D01*
X39913109Y-78047541D01*
X39913105Y-78047545D01*
X39858117Y-78114609D01*
X39770304Y-78221705D01*
X39767665Y-78226341D01*
X39767663Y-78226344D01*
X39690031Y-78362723D01*
X39656245Y-78422077D01*
X39577578Y-78638802D01*
X39576629Y-78644051D01*
X39576628Y-78644054D01*
X39550083Y-78790850D01*
X39536551Y-78865683D01*
X39536500Y-78871023D01*
X39534408Y-79088990D01*
X39534338Y-79096233D01*
X39571002Y-79323861D01*
X39645494Y-79542056D01*
X39755685Y-79744580D01*
X39898424Y-79925644D01*
X39933847Y-79957595D01*
X40065659Y-80076489D01*
X40065665Y-80076494D01*
X40069629Y-80080069D01*
X40074142Y-80082928D01*
X40074144Y-80082929D01*
X40192242Y-80157731D01*
X40239087Y-80211079D01*
X40249654Y-80281285D01*
X40220587Y-80346058D01*
X40190186Y-80371894D01*
X40095196Y-80429535D01*
X40095189Y-80429540D01*
X40090631Y-80432306D01*
X40086601Y-80435803D01*
X39922093Y-80578555D01*
X39916492Y-80583415D01*
X39913109Y-80587541D01*
X39913105Y-80587545D01*
X39847223Y-80667895D01*
X39770304Y-80761705D01*
X39767665Y-80766341D01*
X39767663Y-80766344D01*
X39692936Y-80897621D01*
X39656245Y-80962077D01*
X39577578Y-81178802D01*
X39576629Y-81184051D01*
X39576628Y-81184054D01*
X39559278Y-81280000D01*
X39536551Y-81405683D01*
X39535972Y-81466045D01*
X39534697Y-81598871D01*
X39534338Y-81636233D01*
X39571002Y-81863861D01*
X39645494Y-82082056D01*
X39648044Y-82086743D01*
X39648045Y-82086745D01*
X39668231Y-82123845D01*
X39755685Y-82284580D01*
X39898424Y-82465644D01*
X39902389Y-82469220D01*
X40065659Y-82616489D01*
X40065665Y-82616494D01*
X40069629Y-82620069D01*
X40074142Y-82622928D01*
X40074144Y-82622929D01*
X40104503Y-82642158D01*
X40264406Y-82743439D01*
X40477184Y-82832228D01*
X40482394Y-82833426D01*
X40616402Y-82864241D01*
X40677261Y-82897941D01*
X41951908Y-84172589D01*
X41985934Y-84234901D01*
X41980869Y-84305717D01*
X41938322Y-84362552D01*
X41871802Y-84387363D01*
X41860079Y-84387654D01*
X39239257Y-84330680D01*
X39171589Y-84309202D01*
X39126273Y-84254549D01*
X39115997Y-84204710D01*
X39115997Y-78746565D01*
X39115998Y-76339597D01*
X39115999Y-62102000D01*
X39136001Y-62033879D01*
X39189657Y-61987386D01*
X39241999Y-61976000D01*
X51631056Y-61976000D01*
X51657707Y-61979201D01*
G37*
%TD.AperFunction*%
%TA.AperFunction,Conductor*%
G36*
X65269121Y-63770502D02*
G01*
X65315614Y-63824158D01*
X65327000Y-63876500D01*
X65327000Y-64498050D01*
X65331475Y-64513289D01*
X65332865Y-64514494D01*
X65340548Y-64516165D01*
X66310998Y-64516166D01*
X66311004Y-64516165D01*
X67784885Y-64516166D01*
X67800124Y-64511691D01*
X67801329Y-64510301D01*
X67803000Y-64502618D01*
X67803000Y-63876500D01*
X67823002Y-63808379D01*
X67876658Y-63761886D01*
X67929000Y-63750500D01*
X73293629Y-63750500D01*
X73361750Y-63770502D01*
X73382725Y-63787405D01*
X73626596Y-64031277D01*
X73660621Y-64093589D01*
X73663500Y-64120372D01*
X73663501Y-64377323D01*
X73663500Y-64943411D01*
X73663500Y-65249008D01*
X73646619Y-65312007D01*
X73587476Y-65414446D01*
X73580548Y-65435767D01*
X73552626Y-65521705D01*
X73528462Y-65596073D01*
X73527772Y-65602636D01*
X73527772Y-65602637D01*
X73514691Y-65727098D01*
X73508500Y-65786000D01*
X73508875Y-65789571D01*
X73489188Y-65856621D01*
X73435532Y-65903114D01*
X73383190Y-65914500D01*
X70050194Y-65914500D01*
X69982073Y-65894498D01*
X69962849Y-65878158D01*
X69962575Y-65878462D01*
X69957672Y-65874047D01*
X69953251Y-65869137D01*
X69947909Y-65865256D01*
X69947907Y-65865254D01*
X69804092Y-65760767D01*
X69804091Y-65760766D01*
X69798750Y-65756886D01*
X69792722Y-65754202D01*
X69792720Y-65754201D01*
X69630318Y-65681895D01*
X69630317Y-65681895D01*
X69624287Y-65679210D01*
X69530887Y-65659357D01*
X69443944Y-65640876D01*
X69443939Y-65640876D01*
X69437487Y-65639504D01*
X69246513Y-65639504D01*
X69240061Y-65640876D01*
X69240056Y-65640876D01*
X69153113Y-65659357D01*
X69059713Y-65679210D01*
X69053683Y-65681895D01*
X69053682Y-65681895D01*
X68891280Y-65754201D01*
X68891278Y-65754202D01*
X68885250Y-65756886D01*
X68879909Y-65760766D01*
X68879908Y-65760767D01*
X68736093Y-65865254D01*
X68736091Y-65865256D01*
X68730749Y-65869137D01*
X68726328Y-65874047D01*
X68726327Y-65874048D01*
X68634852Y-65975642D01*
X68602963Y-66011058D01*
X68569178Y-66069576D01*
X68517333Y-66159374D01*
X68507476Y-66176446D01*
X68501179Y-66195827D01*
X68459817Y-66323127D01*
X68448462Y-66358073D01*
X68428500Y-66548000D01*
X68448462Y-66737927D01*
X68507476Y-66919554D01*
X68602963Y-67084942D01*
X68607381Y-67089849D01*
X68607382Y-67089850D01*
X68676032Y-67166094D01*
X68730749Y-67226863D01*
X68736091Y-67230744D01*
X68736093Y-67230746D01*
X68879908Y-67335233D01*
X68885250Y-67339114D01*
X68891278Y-67341798D01*
X68891280Y-67341799D01*
X68977236Y-67380069D01*
X69059713Y-67416790D01*
X69172449Y-67440753D01*
X69234923Y-67474482D01*
X69269244Y-67536631D01*
X69264516Y-67607470D01*
X69222240Y-67664508D01*
X69172449Y-67687247D01*
X69059713Y-67711210D01*
X69053683Y-67713895D01*
X69053682Y-67713895D01*
X68891280Y-67786201D01*
X68891278Y-67786202D01*
X68885250Y-67788886D01*
X68879909Y-67792766D01*
X68879908Y-67792767D01*
X68736093Y-67897254D01*
X68736091Y-67897256D01*
X68730749Y-67901137D01*
X68726328Y-67906047D01*
X68726327Y-67906048D01*
X68669233Y-67969458D01*
X68602963Y-68043058D01*
X68592197Y-68061705D01*
X68512064Y-68200500D01*
X68507476Y-68208446D01*
X68505434Y-68214731D01*
X68452263Y-68378376D01*
X68448462Y-68390073D01*
X68447772Y-68396636D01*
X68447772Y-68396637D01*
X68444580Y-68427005D01*
X68428500Y-68580000D01*
X68429190Y-68586565D01*
X68445916Y-68745699D01*
X68448462Y-68769927D01*
X68450502Y-68776205D01*
X68450502Y-68776206D01*
X68482957Y-68876093D01*
X68507476Y-68951554D01*
X68602963Y-69116942D01*
X68730749Y-69258863D01*
X68736091Y-69262744D01*
X68736093Y-69262746D01*
X68841737Y-69339500D01*
X68885250Y-69371114D01*
X68891278Y-69373798D01*
X68891280Y-69373799D01*
X69015304Y-69429018D01*
X69059713Y-69448790D01*
X69147736Y-69467500D01*
X69172449Y-69472753D01*
X69234923Y-69506482D01*
X69269244Y-69568631D01*
X69264516Y-69639470D01*
X69222240Y-69696508D01*
X69172449Y-69719247D01*
X69059713Y-69743210D01*
X69053683Y-69745895D01*
X69053682Y-69745895D01*
X68891280Y-69818201D01*
X68891278Y-69818202D01*
X68885250Y-69820886D01*
X68879909Y-69824766D01*
X68879908Y-69824767D01*
X68736093Y-69929254D01*
X68736091Y-69929256D01*
X68730749Y-69933137D01*
X68726328Y-69938047D01*
X68726327Y-69938048D01*
X68704627Y-69962149D01*
X68602963Y-70075058D01*
X68599662Y-70080776D01*
X68522069Y-70215171D01*
X68507476Y-70240446D01*
X68497124Y-70272306D01*
X68453380Y-70406938D01*
X68448462Y-70422073D01*
X68447772Y-70428636D01*
X68447772Y-70428637D01*
X68437601Y-70525405D01*
X68428500Y-70612000D01*
X68429190Y-70618565D01*
X68439904Y-70720498D01*
X68448462Y-70801927D01*
X68507476Y-70983554D01*
X68510779Y-70989276D01*
X68510780Y-70989277D01*
X68514633Y-70995951D01*
X68602963Y-71148942D01*
X68607381Y-71153849D01*
X68607382Y-71153850D01*
X68708216Y-71265838D01*
X68730749Y-71290863D01*
X68736091Y-71294744D01*
X68736093Y-71294746D01*
X68876584Y-71396818D01*
X68885250Y-71403114D01*
X68891278Y-71405798D01*
X68891280Y-71405799D01*
X69053682Y-71478105D01*
X69059713Y-71480790D01*
X69172449Y-71504753D01*
X69234923Y-71538482D01*
X69269244Y-71600631D01*
X69264516Y-71671470D01*
X69222240Y-71728508D01*
X69172449Y-71751247D01*
X69059713Y-71775210D01*
X69053683Y-71777895D01*
X69053682Y-71777895D01*
X68891280Y-71850201D01*
X68891278Y-71850202D01*
X68885250Y-71852886D01*
X68879909Y-71856766D01*
X68879908Y-71856767D01*
X68736093Y-71961254D01*
X68736091Y-71961256D01*
X68730749Y-71965137D01*
X68726328Y-71970047D01*
X68726327Y-71970048D01*
X68639056Y-72066973D01*
X68602963Y-72107058D01*
X68572845Y-72159224D01*
X68523756Y-72244249D01*
X68507476Y-72272446D01*
X68448462Y-72454073D01*
X68447772Y-72460636D01*
X68447772Y-72460637D01*
X68434062Y-72591079D01*
X68428500Y-72644000D01*
X68429190Y-72650565D01*
X68446420Y-72814494D01*
X68448462Y-72833927D01*
X68450502Y-72840205D01*
X68450502Y-72840206D01*
X68471414Y-72904565D01*
X68507476Y-73015554D01*
X68510779Y-73021276D01*
X68510780Y-73021277D01*
X68523612Y-73043502D01*
X68602963Y-73180942D01*
X68607381Y-73185849D01*
X68607382Y-73185850D01*
X68708809Y-73298496D01*
X68730749Y-73322863D01*
X68736091Y-73326744D01*
X68736093Y-73326746D01*
X68879676Y-73431064D01*
X68923030Y-73487286D01*
X68929105Y-73558022D01*
X68895974Y-73620814D01*
X68879678Y-73634934D01*
X68836142Y-73666565D01*
X68736093Y-73739254D01*
X68736091Y-73739256D01*
X68730749Y-73743137D01*
X68726328Y-73748047D01*
X68726327Y-73748048D01*
X68673058Y-73807210D01*
X68602963Y-73885058D01*
X68549261Y-73978073D01*
X68512064Y-74042500D01*
X68507476Y-74050446D01*
X68505434Y-74056731D01*
X68461735Y-74191224D01*
X68448462Y-74232073D01*
X68447772Y-74238636D01*
X68447772Y-74238637D01*
X68434911Y-74361000D01*
X68428500Y-74422000D01*
X68429190Y-74428565D01*
X68447195Y-74599868D01*
X68448462Y-74611927D01*
X68450502Y-74618205D01*
X68450502Y-74618206D01*
X68470418Y-74679500D01*
X68507476Y-74793554D01*
X68551325Y-74869502D01*
X68568062Y-74938495D01*
X68544842Y-75005587D01*
X68489035Y-75049474D01*
X68442205Y-75058500D01*
X62425413Y-75058500D01*
X62357292Y-75038498D01*
X62310799Y-74984842D01*
X62300695Y-74914568D01*
X62330189Y-74849988D01*
X62333253Y-74846865D01*
X62333251Y-74846863D01*
X62456618Y-74709850D01*
X62456619Y-74709849D01*
X62461037Y-74704942D01*
X62540388Y-74567502D01*
X62553220Y-74545277D01*
X62553221Y-74545276D01*
X62556524Y-74539554D01*
X62592586Y-74428565D01*
X62613498Y-74364206D01*
X62613498Y-74364205D01*
X62615538Y-74357927D01*
X62634940Y-74173325D01*
X62661953Y-74107669D01*
X62720175Y-74067039D01*
X62760250Y-74060496D01*
X62833487Y-74060496D01*
X62839939Y-74059124D01*
X62839944Y-74059124D01*
X62926887Y-74040643D01*
X63020287Y-74020790D01*
X63028782Y-74017008D01*
X63188720Y-73945799D01*
X63188722Y-73945798D01*
X63194750Y-73943114D01*
X63243858Y-73907435D01*
X63343907Y-73834746D01*
X63343909Y-73834744D01*
X63349251Y-73830863D01*
X63353673Y-73825952D01*
X63472618Y-73693850D01*
X63472619Y-73693849D01*
X63477037Y-73688942D01*
X63564921Y-73536723D01*
X63569220Y-73529277D01*
X63569221Y-73529276D01*
X63572524Y-73523554D01*
X63603174Y-73429224D01*
X63629498Y-73348206D01*
X63629498Y-73348205D01*
X63631538Y-73341927D01*
X63631981Y-73337712D01*
X65327000Y-73337712D01*
X65327000Y-74067908D01*
X65327161Y-74072415D01*
X65331740Y-74136434D01*
X65334126Y-74149656D01*
X65370819Y-74274623D01*
X65378233Y-74290857D01*
X65447426Y-74398525D01*
X65459112Y-74412012D01*
X65555840Y-74495827D01*
X65570848Y-74505472D01*
X65687275Y-74558642D01*
X65704388Y-74563667D01*
X65835554Y-74582526D01*
X65844495Y-74583165D01*
X66292885Y-74583165D01*
X66308124Y-74578690D01*
X66309329Y-74577300D01*
X66311000Y-74569617D01*
X66311000Y-74565050D01*
X66818999Y-74565050D01*
X66823474Y-74580289D01*
X66824864Y-74581494D01*
X66832547Y-74583165D01*
X67287743Y-74583165D01*
X67292250Y-74583004D01*
X67356269Y-74578425D01*
X67369491Y-74576039D01*
X67494458Y-74539346D01*
X67510692Y-74531932D01*
X67618360Y-74462739D01*
X67631847Y-74451053D01*
X67715662Y-74354325D01*
X67725307Y-74339317D01*
X67778477Y-74222890D01*
X67783502Y-74205777D01*
X67802361Y-74074611D01*
X67803000Y-74065668D01*
X67803000Y-73342280D01*
X67798525Y-73327041D01*
X67797135Y-73325836D01*
X67789452Y-73324165D01*
X66837115Y-73324164D01*
X66821876Y-73328639D01*
X66820671Y-73330029D01*
X66819000Y-73337712D01*
X66818999Y-74565050D01*
X66311000Y-74565050D01*
X66311001Y-73342280D01*
X66306526Y-73327041D01*
X66305136Y-73325836D01*
X66297453Y-73324165D01*
X65345115Y-73324164D01*
X65329876Y-73328639D01*
X65328671Y-73330029D01*
X65327000Y-73337712D01*
X63631981Y-73337712D01*
X63636499Y-73294731D01*
X63650810Y-73158565D01*
X63651500Y-73152000D01*
X63642762Y-73068863D01*
X63632228Y-72968637D01*
X63632228Y-72968636D01*
X63631538Y-72962073D01*
X63622558Y-72934435D01*
X63620530Y-72863469D01*
X63657192Y-72802671D01*
X63720904Y-72771346D01*
X63742391Y-72769500D01*
X63807806Y-72769500D01*
X63875927Y-72789502D01*
X63895151Y-72805842D01*
X63895425Y-72805538D01*
X63900328Y-72809953D01*
X63904749Y-72814863D01*
X63910091Y-72818744D01*
X63910093Y-72818746D01*
X64007638Y-72889616D01*
X64059250Y-72927114D01*
X64065278Y-72929798D01*
X64065280Y-72929799D01*
X64132922Y-72959915D01*
X64233713Y-73004790D01*
X64321736Y-73023500D01*
X64414056Y-73043124D01*
X64414061Y-73043124D01*
X64420513Y-73044496D01*
X64611487Y-73044496D01*
X64617939Y-73043124D01*
X64617944Y-73043124D01*
X64710264Y-73023500D01*
X64798287Y-73004790D01*
X64899078Y-72959915D01*
X64966720Y-72929799D01*
X64966722Y-72929798D01*
X64972750Y-72927114D01*
X65024362Y-72889616D01*
X65121907Y-72818746D01*
X65121909Y-72818744D01*
X65127251Y-72814863D01*
X65134830Y-72806446D01*
X65195273Y-72769205D01*
X65266257Y-72770554D01*
X65310980Y-72795530D01*
X65332865Y-72814494D01*
X65340548Y-72816165D01*
X66292885Y-72816166D01*
X66308124Y-72811691D01*
X66309329Y-72810301D01*
X66311000Y-72802618D01*
X66311000Y-72798050D01*
X66818999Y-72798050D01*
X66823474Y-72813289D01*
X66824864Y-72814494D01*
X66832547Y-72816165D01*
X67784885Y-72816166D01*
X67800124Y-72811691D01*
X67801329Y-72810301D01*
X67803000Y-72802618D01*
X67803000Y-72072422D01*
X67802839Y-72067915D01*
X67798260Y-72003896D01*
X67795874Y-71990674D01*
X67759181Y-71865707D01*
X67751767Y-71849473D01*
X67682574Y-71741805D01*
X67670888Y-71728318D01*
X67574160Y-71644503D01*
X67559152Y-71634858D01*
X67442725Y-71581688D01*
X67425612Y-71576663D01*
X67294446Y-71557804D01*
X67285505Y-71557165D01*
X66837115Y-71557165D01*
X66821876Y-71561640D01*
X66820671Y-71563030D01*
X66819000Y-71570713D01*
X66818999Y-72798050D01*
X66311000Y-72798050D01*
X66311001Y-71575280D01*
X66306526Y-71560041D01*
X66305136Y-71558836D01*
X66297453Y-71557165D01*
X65842257Y-71557165D01*
X65837750Y-71557326D01*
X65773731Y-71561905D01*
X65760509Y-71564291D01*
X65635542Y-71600984D01*
X65619308Y-71608398D01*
X65511640Y-71677591D01*
X65491342Y-71695179D01*
X65490143Y-71693795D01*
X65439660Y-71726240D01*
X65368663Y-71726242D01*
X65308936Y-71687859D01*
X65295040Y-71668345D01*
X65267956Y-71621435D01*
X65255037Y-71599058D01*
X65234873Y-71576663D01*
X65131673Y-71462048D01*
X65131672Y-71462047D01*
X65127251Y-71457137D01*
X65121909Y-71453256D01*
X65121907Y-71453254D01*
X64978092Y-71348767D01*
X64978091Y-71348766D01*
X64972750Y-71344886D01*
X64966722Y-71342202D01*
X64966720Y-71342201D01*
X64804318Y-71269895D01*
X64804317Y-71269895D01*
X64798287Y-71267210D01*
X64704887Y-71247357D01*
X64617944Y-71228876D01*
X64617939Y-71228876D01*
X64611487Y-71227504D01*
X64420513Y-71227504D01*
X64414061Y-71228876D01*
X64414056Y-71228876D01*
X64327113Y-71247357D01*
X64233713Y-71267210D01*
X64227683Y-71269895D01*
X64227682Y-71269895D01*
X64065280Y-71342201D01*
X64065278Y-71342202D01*
X64059250Y-71344886D01*
X64053909Y-71348766D01*
X64053908Y-71348767D01*
X63910093Y-71453254D01*
X63910091Y-71453256D01*
X63904749Y-71457137D01*
X63900328Y-71462047D01*
X63895425Y-71466462D01*
X63894299Y-71465211D01*
X63841000Y-71498049D01*
X63807806Y-71502500D01*
X59426016Y-71502500D01*
X59357895Y-71482498D01*
X59311402Y-71428842D01*
X59306183Y-71415436D01*
X59256566Y-71262731D01*
X59254524Y-71256446D01*
X59249601Y-71247918D01*
X59189155Y-71143224D01*
X59159037Y-71091058D01*
X59101844Y-71027538D01*
X59035673Y-70954048D01*
X59035672Y-70954047D01*
X59031251Y-70949137D01*
X59025909Y-70945256D01*
X59025907Y-70945254D01*
X58882092Y-70840767D01*
X58882091Y-70840766D01*
X58876750Y-70836886D01*
X58870722Y-70834202D01*
X58870720Y-70834201D01*
X58708318Y-70761895D01*
X58708317Y-70761895D01*
X58702287Y-70759210D01*
X58608887Y-70739357D01*
X58521944Y-70720876D01*
X58521939Y-70720876D01*
X58515487Y-70719504D01*
X58324513Y-70719504D01*
X58318061Y-70720876D01*
X58318056Y-70720876D01*
X58231113Y-70739357D01*
X58137713Y-70759210D01*
X58131683Y-70761895D01*
X58131682Y-70761895D01*
X57969280Y-70834201D01*
X57969278Y-70834202D01*
X57963250Y-70836886D01*
X57957909Y-70840766D01*
X57957908Y-70840767D01*
X57814093Y-70945254D01*
X57814091Y-70945256D01*
X57808749Y-70949137D01*
X57804328Y-70954047D01*
X57804327Y-70954048D01*
X57738157Y-71027538D01*
X57680963Y-71091058D01*
X57650845Y-71143224D01*
X57590400Y-71247918D01*
X57585476Y-71256446D01*
X57583434Y-71262731D01*
X57539867Y-71396818D01*
X57526462Y-71438073D01*
X57506500Y-71628000D01*
X57507190Y-71634565D01*
X57517904Y-71736498D01*
X57526462Y-71817927D01*
X57528502Y-71824205D01*
X57528502Y-71824206D01*
X57541987Y-71865707D01*
X57585476Y-71999554D01*
X57588779Y-72005276D01*
X57588780Y-72005277D01*
X57595467Y-72016859D01*
X57680963Y-72164942D01*
X57685381Y-72169849D01*
X57685382Y-72169850D01*
X57754032Y-72246094D01*
X57808749Y-72306863D01*
X57814091Y-72310744D01*
X57814093Y-72310746D01*
X57957908Y-72415233D01*
X57963250Y-72419114D01*
X57969278Y-72421798D01*
X57969280Y-72421799D01*
X58055236Y-72460069D01*
X58137713Y-72496790D01*
X58231113Y-72516643D01*
X58318056Y-72535124D01*
X58318061Y-72535124D01*
X58324513Y-72536496D01*
X58379219Y-72536496D01*
X58447340Y-72556498D01*
X58465471Y-72570645D01*
X58484877Y-72588868D01*
X58487720Y-72591624D01*
X58508033Y-72611937D01*
X58511444Y-72614582D01*
X58520464Y-72622286D01*
X58552699Y-72652557D01*
X58559644Y-72656375D01*
X58559647Y-72656377D01*
X58570452Y-72662317D01*
X58586979Y-72673173D01*
X58602976Y-72685582D01*
X58643555Y-72703143D01*
X58654187Y-72708351D01*
X58692952Y-72729662D01*
X58700629Y-72731633D01*
X58700634Y-72731635D01*
X58712566Y-72734698D01*
X58731274Y-72741103D01*
X58735613Y-72742980D01*
X58742592Y-72746001D01*
X58742596Y-72746002D01*
X58749863Y-72749147D01*
X58757685Y-72750386D01*
X58757689Y-72750387D01*
X58793531Y-72756063D01*
X58805156Y-72758471D01*
X58842218Y-72767987D01*
X58842220Y-72767987D01*
X58847975Y-72769465D01*
X58848531Y-72769500D01*
X58868452Y-72769500D01*
X58888161Y-72771051D01*
X58907943Y-72774184D01*
X58915834Y-72773438D01*
X58951579Y-72770059D01*
X58963437Y-72769500D01*
X59667190Y-72769500D01*
X59735311Y-72789502D01*
X59781804Y-72843158D01*
X59792902Y-72894176D01*
X59792500Y-72898000D01*
X59812462Y-73087927D01*
X59814502Y-73094205D01*
X59814502Y-73094206D01*
X59834108Y-73154547D01*
X59871476Y-73269554D01*
X59874779Y-73275276D01*
X59874780Y-73275277D01*
X59888186Y-73298496D01*
X59966963Y-73434942D01*
X59971381Y-73439849D01*
X59971382Y-73439850D01*
X60090327Y-73571952D01*
X60094749Y-73576863D01*
X60100091Y-73580744D01*
X60100093Y-73580746D01*
X60241143Y-73683224D01*
X60249250Y-73689114D01*
X60255278Y-73691798D01*
X60255280Y-73691799D01*
X60417682Y-73764105D01*
X60423713Y-73766790D01*
X60536104Y-73790680D01*
X60548210Y-73793253D01*
X60610684Y-73826982D01*
X60645005Y-73889131D01*
X60640277Y-73959970D01*
X60598001Y-74017008D01*
X60531600Y-74042135D01*
X60522013Y-74042500D01*
X56080194Y-74042500D01*
X56012073Y-74022498D01*
X55992849Y-74006158D01*
X55992575Y-74006462D01*
X55987672Y-74002047D01*
X55983251Y-73997137D01*
X55977909Y-73993256D01*
X55977907Y-73993254D01*
X55834092Y-73888767D01*
X55834091Y-73888766D01*
X55828750Y-73884886D01*
X55822722Y-73882202D01*
X55822720Y-73882201D01*
X55660318Y-73809895D01*
X55660317Y-73809895D01*
X55654287Y-73807210D01*
X55552720Y-73785621D01*
X55473944Y-73768876D01*
X55473939Y-73768876D01*
X55467487Y-73767504D01*
X55276513Y-73767504D01*
X55270061Y-73768876D01*
X55270056Y-73768876D01*
X55191280Y-73785621D01*
X55089713Y-73807210D01*
X55083683Y-73809895D01*
X55083682Y-73809895D01*
X54921280Y-73882201D01*
X54921278Y-73882202D01*
X54915250Y-73884886D01*
X54909909Y-73888766D01*
X54909908Y-73888767D01*
X54766093Y-73993254D01*
X54766091Y-73993256D01*
X54760749Y-73997137D01*
X54756328Y-74002047D01*
X54756327Y-74002048D01*
X54658751Y-74110418D01*
X54632963Y-74139058D01*
X54582886Y-74225794D01*
X54545322Y-74290857D01*
X54537476Y-74304446D01*
X54519101Y-74360998D01*
X54486266Y-74462056D01*
X54478462Y-74486073D01*
X54477772Y-74492636D01*
X54477772Y-74492637D01*
X54469006Y-74576039D01*
X54458500Y-74676000D01*
X54459190Y-74682565D01*
X54476459Y-74846865D01*
X54478462Y-74865927D01*
X54480502Y-74872204D01*
X54480502Y-74872206D01*
X54498631Y-74928001D01*
X54500658Y-74998969D01*
X54472435Y-75051246D01*
X54378963Y-75155058D01*
X54346009Y-75212136D01*
X54295580Y-75299482D01*
X54283476Y-75320446D01*
X54224462Y-75502073D01*
X54223772Y-75508636D01*
X54223772Y-75508637D01*
X54208866Y-75650460D01*
X54204500Y-75692000D01*
X54204875Y-75695571D01*
X54185188Y-75762621D01*
X54131532Y-75809114D01*
X54079190Y-75820500D01*
X51330810Y-75820500D01*
X51262689Y-75800498D01*
X51216196Y-75746842D01*
X51205098Y-75695824D01*
X51205500Y-75692000D01*
X51201134Y-75650460D01*
X51186228Y-75508637D01*
X51186228Y-75508636D01*
X51185538Y-75502073D01*
X51126524Y-75320446D01*
X51114421Y-75299482D01*
X51063991Y-75212136D01*
X51031037Y-75155058D01*
X51008044Y-75129521D01*
X50907673Y-75018048D01*
X50907672Y-75018047D01*
X50903251Y-75013137D01*
X50897909Y-75009256D01*
X50897907Y-75009254D01*
X50800515Y-74938495D01*
X50754324Y-74904935D01*
X50710970Y-74848714D01*
X50704895Y-74777978D01*
X50738026Y-74715186D01*
X50754324Y-74701064D01*
X50754593Y-74700869D01*
X50864306Y-74621158D01*
X50897907Y-74596746D01*
X50897909Y-74596744D01*
X50903251Y-74592863D01*
X50912128Y-74583004D01*
X51026618Y-74455850D01*
X51026619Y-74455849D01*
X51031037Y-74450942D01*
X51126524Y-74285554D01*
X51164234Y-74169494D01*
X51183498Y-74110206D01*
X51183498Y-74110205D01*
X51185538Y-74103927D01*
X51190499Y-74056731D01*
X51204810Y-73920565D01*
X51205500Y-73914000D01*
X51185538Y-73724073D01*
X51176767Y-73697077D01*
X51137707Y-73576863D01*
X51126524Y-73542446D01*
X51121071Y-73533000D01*
X51034338Y-73382776D01*
X51031037Y-73377058D01*
X50995611Y-73337712D01*
X51577000Y-73337712D01*
X51577000Y-74067908D01*
X51577161Y-74072415D01*
X51581740Y-74136434D01*
X51584126Y-74149656D01*
X51620819Y-74274623D01*
X51628233Y-74290857D01*
X51697426Y-74398525D01*
X51709112Y-74412012D01*
X51805840Y-74495827D01*
X51820848Y-74505472D01*
X51937275Y-74558642D01*
X51954388Y-74563667D01*
X52085554Y-74582526D01*
X52094495Y-74583165D01*
X52542885Y-74583165D01*
X52558124Y-74578690D01*
X52559329Y-74577300D01*
X52561000Y-74569617D01*
X52561000Y-74565050D01*
X53068999Y-74565050D01*
X53073474Y-74580289D01*
X53074864Y-74581494D01*
X53082547Y-74583165D01*
X53537743Y-74583165D01*
X53542250Y-74583004D01*
X53606269Y-74578425D01*
X53619491Y-74576039D01*
X53744458Y-74539346D01*
X53760692Y-74531932D01*
X53868360Y-74462739D01*
X53881847Y-74451053D01*
X53965662Y-74354325D01*
X53975307Y-74339317D01*
X54028477Y-74222890D01*
X54033502Y-74205777D01*
X54052361Y-74074611D01*
X54053000Y-74065668D01*
X54053000Y-73342280D01*
X54048525Y-73327041D01*
X54047135Y-73325836D01*
X54039452Y-73324165D01*
X53087115Y-73324164D01*
X53071876Y-73328639D01*
X53070671Y-73330029D01*
X53069000Y-73337712D01*
X53068999Y-74565050D01*
X52561000Y-74565050D01*
X52561001Y-73342280D01*
X52556526Y-73327041D01*
X52555136Y-73325836D01*
X52547453Y-73324165D01*
X51595115Y-73324164D01*
X51579876Y-73328639D01*
X51578671Y-73330029D01*
X51577000Y-73337712D01*
X50995611Y-73337712D01*
X50995360Y-73337434D01*
X50907673Y-73240048D01*
X50907672Y-73240047D01*
X50903251Y-73235137D01*
X50897909Y-73231256D01*
X50897907Y-73231254D01*
X50754092Y-73126767D01*
X50754091Y-73126766D01*
X50748750Y-73122886D01*
X50742722Y-73120202D01*
X50742720Y-73120201D01*
X50580318Y-73047895D01*
X50580317Y-73047895D01*
X50574287Y-73045210D01*
X50472151Y-73023500D01*
X50393944Y-73006876D01*
X50393939Y-73006876D01*
X50387487Y-73005504D01*
X50196513Y-73005504D01*
X50190061Y-73006876D01*
X50190056Y-73006876D01*
X50111849Y-73023500D01*
X50009713Y-73045210D01*
X50003683Y-73047895D01*
X50003682Y-73047895D01*
X49841280Y-73120201D01*
X49841278Y-73120202D01*
X49835250Y-73122886D01*
X49829909Y-73126766D01*
X49829908Y-73126767D01*
X49686093Y-73231254D01*
X49686091Y-73231256D01*
X49680749Y-73235137D01*
X49676328Y-73240047D01*
X49671425Y-73244462D01*
X49670299Y-73243211D01*
X49617000Y-73276049D01*
X49583806Y-73280500D01*
X42172394Y-73280500D01*
X42104273Y-73260498D01*
X42067874Y-73224867D01*
X41997408Y-73120201D01*
X41956627Y-73059626D01*
X41941246Y-73043502D01*
X41857579Y-72955797D01*
X41797482Y-72892799D01*
X41612504Y-72755171D01*
X41607743Y-72752751D01*
X41604425Y-72750693D01*
X41557071Y-72697796D01*
X41545832Y-72627695D01*
X41574277Y-72562645D01*
X41597564Y-72541093D01*
X41644497Y-72507554D01*
X41777711Y-72412357D01*
X41879953Y-72309220D01*
X41936277Y-72252403D01*
X41936278Y-72252402D01*
X41940030Y-72248617D01*
X41943090Y-72244255D01*
X41943095Y-72244249D01*
X42071547Y-72061140D01*
X42127043Y-72016859D01*
X42174697Y-72007500D01*
X49389318Y-72007500D01*
X49457439Y-72027502D01*
X49498437Y-72070500D01*
X49552963Y-72164942D01*
X49557381Y-72169849D01*
X49557382Y-72169850D01*
X49626032Y-72246094D01*
X49680749Y-72306863D01*
X49686091Y-72310744D01*
X49686093Y-72310746D01*
X49829908Y-72415233D01*
X49835250Y-72419114D01*
X49841278Y-72421798D01*
X49841280Y-72421799D01*
X49927236Y-72460069D01*
X50009713Y-72496790D01*
X50103113Y-72516643D01*
X50190056Y-72535124D01*
X50190061Y-72535124D01*
X50196513Y-72536496D01*
X50387487Y-72536496D01*
X50393939Y-72535124D01*
X50393944Y-72535124D01*
X50480887Y-72516643D01*
X50574287Y-72496790D01*
X50656764Y-72460069D01*
X50742720Y-72421799D01*
X50742722Y-72421798D01*
X50748750Y-72419114D01*
X50754092Y-72415233D01*
X50897907Y-72310746D01*
X50897909Y-72310744D01*
X50903251Y-72306863D01*
X50957968Y-72246094D01*
X51026618Y-72169850D01*
X51026619Y-72169849D01*
X51031037Y-72164942D01*
X51083161Y-72074660D01*
X51577000Y-72074660D01*
X51577000Y-72798050D01*
X51581475Y-72813289D01*
X51582865Y-72814494D01*
X51590548Y-72816165D01*
X52542885Y-72816166D01*
X52558124Y-72811691D01*
X52559329Y-72810301D01*
X52561000Y-72802618D01*
X52561000Y-72798050D01*
X53068999Y-72798050D01*
X53073474Y-72813289D01*
X53074864Y-72814494D01*
X53082547Y-72816165D01*
X54034885Y-72816166D01*
X54050124Y-72811691D01*
X54051329Y-72810301D01*
X54053000Y-72802618D01*
X54053000Y-72072422D01*
X54052839Y-72067915D01*
X54048260Y-72003896D01*
X54045874Y-71990674D01*
X54009181Y-71865707D01*
X54001767Y-71849473D01*
X53932574Y-71741805D01*
X53920888Y-71728318D01*
X53824160Y-71644503D01*
X53809152Y-71634858D01*
X53692725Y-71581688D01*
X53675612Y-71576663D01*
X53544446Y-71557804D01*
X53535505Y-71557165D01*
X53087115Y-71557165D01*
X53071876Y-71561640D01*
X53070671Y-71563030D01*
X53069000Y-71570713D01*
X53068999Y-72798050D01*
X52561000Y-72798050D01*
X52561001Y-71575280D01*
X52556526Y-71560041D01*
X52555136Y-71558836D01*
X52547453Y-71557165D01*
X52092257Y-71557165D01*
X52087750Y-71557326D01*
X52023731Y-71561905D01*
X52010509Y-71564291D01*
X51885542Y-71600984D01*
X51869308Y-71608398D01*
X51761640Y-71677591D01*
X51748153Y-71689277D01*
X51664338Y-71786005D01*
X51654693Y-71801013D01*
X51601523Y-71917440D01*
X51596498Y-71934553D01*
X51577639Y-72065719D01*
X51577000Y-72074660D01*
X51083161Y-72074660D01*
X51116533Y-72016859D01*
X51123220Y-72005277D01*
X51123221Y-72005276D01*
X51126524Y-71999554D01*
X51170013Y-71865707D01*
X51183498Y-71824206D01*
X51183498Y-71824205D01*
X51185538Y-71817927D01*
X51194097Y-71736498D01*
X51204810Y-71634565D01*
X51205500Y-71628000D01*
X51185538Y-71438073D01*
X51172134Y-71396818D01*
X51128566Y-71262731D01*
X51126524Y-71256446D01*
X51121601Y-71247918D01*
X51034340Y-71096779D01*
X51034338Y-71096776D01*
X51031037Y-71091058D01*
X51018659Y-71077311D01*
X50987942Y-71013304D01*
X50996705Y-70942850D01*
X51018659Y-70908689D01*
X51026618Y-70899850D01*
X51026619Y-70899849D01*
X51031037Y-70894942D01*
X51126524Y-70729554D01*
X51163451Y-70615903D01*
X51183498Y-70554206D01*
X51183498Y-70554205D01*
X51185538Y-70547927D01*
X51205500Y-70358000D01*
X51185538Y-70168073D01*
X51126524Y-69986446D01*
X51121937Y-69978500D01*
X51112496Y-69962149D01*
X51095758Y-69893154D01*
X51118978Y-69826062D01*
X51169163Y-69784585D01*
X51169434Y-69784461D01*
X51176407Y-69782202D01*
X51182673Y-69778400D01*
X51188165Y-69775885D01*
X51193553Y-69773187D01*
X51200441Y-69770687D01*
X51261495Y-69730658D01*
X51265204Y-69728318D01*
X51322788Y-69693375D01*
X51322790Y-69693373D01*
X51327583Y-69690465D01*
X51331786Y-69686753D01*
X51331790Y-69686750D01*
X51336869Y-69682265D01*
X51339449Y-69680047D01*
X51342204Y-69677744D01*
X51348324Y-69673731D01*
X51397472Y-69621849D01*
X51399850Y-69619407D01*
X54061405Y-66957853D01*
X54123717Y-66923827D01*
X54194533Y-66928892D01*
X54251368Y-66971439D01*
X54276179Y-67037959D01*
X54276500Y-67046948D01*
X54276500Y-68120165D01*
X54281727Y-68193244D01*
X54289470Y-68219613D01*
X54317074Y-68313624D01*
X54322904Y-68333481D01*
X54337144Y-68355638D01*
X54397051Y-68448856D01*
X54397053Y-68448859D01*
X54401923Y-68456436D01*
X54408733Y-68462337D01*
X54505569Y-68546247D01*
X54505572Y-68546249D01*
X54512381Y-68552149D01*
X54520579Y-68555893D01*
X54558991Y-68573435D01*
X54645330Y-68612865D01*
X54654245Y-68614147D01*
X54654246Y-68614147D01*
X54785552Y-68633026D01*
X54785559Y-68633027D01*
X54790000Y-68633665D01*
X55355619Y-68633665D01*
X55423740Y-68653667D01*
X55470233Y-68707323D01*
X55480929Y-68772834D01*
X55474500Y-68834000D01*
X55494462Y-69023927D01*
X55496502Y-69030205D01*
X55496502Y-69030206D01*
X55515387Y-69088327D01*
X55553476Y-69205554D01*
X55556779Y-69211276D01*
X55556780Y-69211277D01*
X55558274Y-69213865D01*
X55648963Y-69370942D01*
X55653381Y-69375849D01*
X55653382Y-69375850D01*
X55772327Y-69507952D01*
X55776749Y-69512863D01*
X55782091Y-69516744D01*
X55782093Y-69516746D01*
X55872544Y-69582462D01*
X55931250Y-69625114D01*
X55937278Y-69627798D01*
X55937280Y-69627799D01*
X56091603Y-69696508D01*
X56105713Y-69702790D01*
X56189323Y-69720562D01*
X56286056Y-69741124D01*
X56286061Y-69741124D01*
X56292513Y-69742496D01*
X56483487Y-69742496D01*
X56489939Y-69741124D01*
X56489944Y-69741124D01*
X56586677Y-69720562D01*
X56670287Y-69702790D01*
X56684397Y-69696508D01*
X56838720Y-69627799D01*
X56838722Y-69627798D01*
X56844750Y-69625114D01*
X56903456Y-69582462D01*
X56993907Y-69516746D01*
X56993909Y-69516744D01*
X56999251Y-69512863D01*
X57003673Y-69507952D01*
X57122618Y-69375850D01*
X57122619Y-69375849D01*
X57127037Y-69370942D01*
X57217726Y-69213865D01*
X57219220Y-69211277D01*
X57219221Y-69211276D01*
X57222524Y-69205554D01*
X57260613Y-69088327D01*
X57279498Y-69030206D01*
X57279498Y-69030205D01*
X57281538Y-69023927D01*
X57290755Y-68936233D01*
X57299610Y-68851985D01*
X57326623Y-68786329D01*
X57384845Y-68745699D01*
X57455790Y-68742996D01*
X57516934Y-68779078D01*
X57544752Y-68826219D01*
X57547281Y-68834000D01*
X57582211Y-68941504D01*
X57585476Y-68951554D01*
X57680963Y-69116942D01*
X57808749Y-69258863D01*
X57814091Y-69262744D01*
X57814093Y-69262746D01*
X57919737Y-69339500D01*
X57963250Y-69371114D01*
X57969278Y-69373798D01*
X57969280Y-69373799D01*
X58093304Y-69429018D01*
X58137713Y-69448790D01*
X58215254Y-69465272D01*
X58318056Y-69487124D01*
X58318061Y-69487124D01*
X58324513Y-69488496D01*
X58515487Y-69488496D01*
X58521939Y-69487124D01*
X58521944Y-69487124D01*
X58624746Y-69465272D01*
X58702287Y-69448790D01*
X58746696Y-69429018D01*
X58870720Y-69373799D01*
X58870722Y-69373798D01*
X58876750Y-69371114D01*
X58920263Y-69339500D01*
X59025907Y-69262746D01*
X59025909Y-69262744D01*
X59031251Y-69258863D01*
X59159037Y-69116942D01*
X59254524Y-68951554D01*
X59279043Y-68876093D01*
X59311498Y-68776206D01*
X59311498Y-68776205D01*
X59313538Y-68769927D01*
X59316001Y-68746494D01*
X59343015Y-68680837D01*
X59401236Y-68640208D01*
X59441311Y-68633665D01*
X59673619Y-68633665D01*
X59741740Y-68653667D01*
X59788233Y-68707323D01*
X59798929Y-68772834D01*
X59792500Y-68834000D01*
X59812462Y-69023927D01*
X59814502Y-69030205D01*
X59814502Y-69030206D01*
X59833387Y-69088327D01*
X59871476Y-69205554D01*
X59874779Y-69211276D01*
X59874780Y-69211277D01*
X59876274Y-69213865D01*
X59966963Y-69370942D01*
X59971381Y-69375849D01*
X59971382Y-69375850D01*
X60090327Y-69507952D01*
X60094749Y-69512863D01*
X60100091Y-69516744D01*
X60100093Y-69516746D01*
X60190544Y-69582462D01*
X60249250Y-69625114D01*
X60255278Y-69627798D01*
X60255280Y-69627799D01*
X60409603Y-69696508D01*
X60423713Y-69702790D01*
X60507323Y-69720562D01*
X60604056Y-69741124D01*
X60604061Y-69741124D01*
X60610513Y-69742496D01*
X60801487Y-69742496D01*
X60807939Y-69741124D01*
X60807944Y-69741124D01*
X60904677Y-69720562D01*
X60988287Y-69702790D01*
X61009434Y-69693375D01*
X61162750Y-69625114D01*
X61164664Y-69629414D01*
X61187217Y-69617099D01*
X61258032Y-69622164D01*
X61264665Y-69626427D01*
X61265250Y-69625114D01*
X61418567Y-69693375D01*
X61439713Y-69702790D01*
X61523323Y-69720562D01*
X61620056Y-69741124D01*
X61620061Y-69741124D01*
X61626513Y-69742496D01*
X61817487Y-69742496D01*
X61823939Y-69741124D01*
X61823944Y-69741124D01*
X61920677Y-69720562D01*
X62004287Y-69702790D01*
X62018397Y-69696508D01*
X62172720Y-69627799D01*
X62172722Y-69627798D01*
X62178750Y-69625114D01*
X62237456Y-69582462D01*
X62327907Y-69516746D01*
X62327909Y-69516744D01*
X62333251Y-69512863D01*
X62337673Y-69507952D01*
X62456618Y-69375850D01*
X62456619Y-69375849D01*
X62461037Y-69370942D01*
X62551726Y-69213865D01*
X62553220Y-69211277D01*
X62553221Y-69211276D01*
X62556524Y-69205554D01*
X62594613Y-69088327D01*
X62613498Y-69030206D01*
X62613498Y-69030205D01*
X62615538Y-69023927D01*
X62635500Y-68834000D01*
X62629071Y-68772834D01*
X62641843Y-68702998D01*
X62690344Y-68651151D01*
X62754381Y-68633665D01*
X63290000Y-68633665D01*
X63363079Y-68628438D01*
X63466892Y-68597956D01*
X63494670Y-68589800D01*
X63494672Y-68589799D01*
X63503316Y-68587261D01*
X63567135Y-68546247D01*
X63618691Y-68513114D01*
X63618694Y-68513112D01*
X63626271Y-68508242D01*
X63651781Y-68478802D01*
X63716082Y-68404596D01*
X63716084Y-68404593D01*
X63721984Y-68397784D01*
X63738844Y-68360866D01*
X63778958Y-68273029D01*
X63778958Y-68273028D01*
X63782700Y-68264835D01*
X63786222Y-68240338D01*
X63802861Y-68124613D01*
X63802862Y-68124606D01*
X63803500Y-68120165D01*
X63803500Y-66620165D01*
X63798273Y-66547086D01*
X63772688Y-66459952D01*
X63759635Y-66415495D01*
X63759634Y-66415493D01*
X63757096Y-66406849D01*
X63703172Y-66322942D01*
X63682949Y-66291474D01*
X63682947Y-66291471D01*
X63678077Y-66283894D01*
X63648935Y-66258642D01*
X63574431Y-66194083D01*
X63574428Y-66194081D01*
X63567619Y-66188181D01*
X63541923Y-66176446D01*
X63442864Y-66131207D01*
X63442863Y-66131207D01*
X63434670Y-66127465D01*
X63425755Y-66126183D01*
X63425754Y-66126183D01*
X63294448Y-66107304D01*
X63294441Y-66107303D01*
X63290000Y-66106665D01*
X62524205Y-66106665D01*
X62456084Y-66086663D01*
X62409591Y-66033007D01*
X62399487Y-65962733D01*
X62428981Y-65898153D01*
X62435110Y-65891570D01*
X63288968Y-65037712D01*
X65327000Y-65037712D01*
X65327000Y-65767908D01*
X65327161Y-65772415D01*
X65331740Y-65836434D01*
X65334126Y-65849656D01*
X65370819Y-65974623D01*
X65378233Y-65990857D01*
X65447426Y-66098525D01*
X65459112Y-66112012D01*
X65555840Y-66195827D01*
X65570848Y-66205472D01*
X65687275Y-66258642D01*
X65704388Y-66263667D01*
X65835554Y-66282526D01*
X65844495Y-66283165D01*
X66292885Y-66283165D01*
X66308124Y-66278690D01*
X66309329Y-66277300D01*
X66311000Y-66269617D01*
X66311000Y-66265050D01*
X66818999Y-66265050D01*
X66823474Y-66280289D01*
X66824864Y-66281494D01*
X66832547Y-66283165D01*
X67287743Y-66283165D01*
X67292250Y-66283004D01*
X67356269Y-66278425D01*
X67369491Y-66276039D01*
X67494458Y-66239346D01*
X67510692Y-66231932D01*
X67618360Y-66162739D01*
X67631847Y-66151053D01*
X67715662Y-66054325D01*
X67725307Y-66039317D01*
X67778477Y-65922890D01*
X67783502Y-65905777D01*
X67802361Y-65774611D01*
X67803000Y-65765668D01*
X67803000Y-65042280D01*
X67798525Y-65027041D01*
X67797135Y-65025836D01*
X67789452Y-65024165D01*
X66837115Y-65024164D01*
X66821876Y-65028639D01*
X66820671Y-65030029D01*
X66819000Y-65037712D01*
X66818999Y-66265050D01*
X66311000Y-66265050D01*
X66311001Y-65042280D01*
X66306526Y-65027041D01*
X66305136Y-65025836D01*
X66297453Y-65024165D01*
X65345115Y-65024164D01*
X65329876Y-65028639D01*
X65328671Y-65030029D01*
X65327000Y-65037712D01*
X63288968Y-65037712D01*
X63400976Y-64925705D01*
X64539276Y-63787405D01*
X64601588Y-63753379D01*
X64628371Y-63750500D01*
X65201000Y-63750500D01*
X65269121Y-63770502D01*
G37*
%TD.AperFunction*%
%TA.AperFunction,Conductor*%
G36*
X79434059Y-63232501D02*
G01*
X79455033Y-63249404D01*
X82185882Y-65980253D01*
X82219908Y-66042565D01*
X82220776Y-66091769D01*
X82213377Y-66132686D01*
X82208551Y-66159374D01*
X82208218Y-66194083D01*
X82207097Y-66310901D01*
X82206338Y-66389924D01*
X82243002Y-66617552D01*
X82317494Y-66835747D01*
X82320044Y-66840434D01*
X82320045Y-66840436D01*
X82323478Y-66846745D01*
X82427685Y-67038271D01*
X82570424Y-67219335D01*
X82574389Y-67222911D01*
X82737659Y-67370180D01*
X82737665Y-67370185D01*
X82741629Y-67373760D01*
X82746142Y-67376619D01*
X82746144Y-67376620D01*
X82864242Y-67451422D01*
X82911087Y-67504770D01*
X82921654Y-67574976D01*
X82892587Y-67639749D01*
X82862186Y-67665585D01*
X82767196Y-67723226D01*
X82767189Y-67723231D01*
X82762631Y-67725997D01*
X82758601Y-67729494D01*
X82665426Y-67810347D01*
X82588492Y-67877106D01*
X82585109Y-67881232D01*
X82585105Y-67881236D01*
X82512768Y-67969458D01*
X82442304Y-68055396D01*
X82395948Y-68136832D01*
X82344866Y-68186138D01*
X82286446Y-68200500D01*
X78240394Y-68200500D01*
X78172273Y-68180498D01*
X78135874Y-68144867D01*
X78067332Y-68043058D01*
X78024627Y-67979626D01*
X77993027Y-67946500D01*
X77946048Y-67897254D01*
X77865482Y-67812799D01*
X77857003Y-67806490D01*
X77684790Y-67678360D01*
X77680504Y-67675171D01*
X77675743Y-67672751D01*
X77672425Y-67670693D01*
X77625071Y-67617796D01*
X77613832Y-67547695D01*
X77642277Y-67482645D01*
X77665564Y-67461093D01*
X77694027Y-67440753D01*
X77845711Y-67332357D01*
X77947953Y-67229220D01*
X78004277Y-67172403D01*
X78004278Y-67172402D01*
X78008030Y-67168617D01*
X78096529Y-67042462D01*
X78137375Y-66984236D01*
X78137376Y-66984234D01*
X78140439Y-66979868D01*
X78239153Y-66771508D01*
X78301349Y-66549494D01*
X78302561Y-66537871D01*
X78314105Y-66427097D01*
X78325249Y-66320176D01*
X78325500Y-66294000D01*
X78324567Y-66283004D01*
X78306458Y-66069576D01*
X78306457Y-66069572D01*
X78306007Y-66064265D01*
X78304370Y-66057956D01*
X78256636Y-65874048D01*
X78248084Y-65841098D01*
X78226222Y-65792565D01*
X78155578Y-65635743D01*
X78155577Y-65635741D01*
X78153388Y-65630882D01*
X78146162Y-65620148D01*
X78079886Y-65521705D01*
X78024627Y-65439626D01*
X78018609Y-65433317D01*
X77892484Y-65301104D01*
X77859937Y-65238007D01*
X77866669Y-65167330D01*
X77910543Y-65111513D01*
X77948156Y-65093236D01*
X78016458Y-65073181D01*
X78032692Y-65065767D01*
X78140360Y-64996574D01*
X78153847Y-64984888D01*
X78237662Y-64888160D01*
X78247307Y-64873152D01*
X78300477Y-64756725D01*
X78305502Y-64739612D01*
X78324361Y-64608446D01*
X78325000Y-64599503D01*
X78325000Y-64026115D01*
X78320525Y-64010876D01*
X78319135Y-64009671D01*
X78311452Y-64008000D01*
X76834000Y-64008000D01*
X76765879Y-63987998D01*
X76719386Y-63934342D01*
X76708000Y-63882000D01*
X76708000Y-63626000D01*
X76728002Y-63557879D01*
X76781658Y-63511386D01*
X76834000Y-63500000D01*
X78306885Y-63500000D01*
X78322124Y-63495525D01*
X78323329Y-63494135D01*
X78325000Y-63486452D01*
X78325000Y-63338499D01*
X78345002Y-63270378D01*
X78398658Y-63223885D01*
X78451000Y-63212499D01*
X79365938Y-63212499D01*
X79434059Y-63232501D01*
G37*
%TD.AperFunction*%
%TD*%
M02*
